<svg width="16" height="16" viewBox="0 0 16 16" fill="none" xmlns="http://www.w3.org/2000/svg">
<path d="M4 1.33333L2 3.99999V13.3333C2 13.6869 2.14048 14.0261 2.39052 14.2761C2.64057 14.5262 2.97971 14.6667 3.33333 14.6667H12.6667C13.0203 14.6667 13.3594 14.5262 13.6095 14.2761C13.8595 14.0261 14 13.6869 14 13.3333V3.99999L12 1.33333H4Z" stroke="black" stroke-linecap="round" stroke-linejoin="round"/>
<path d="M2 4H14" stroke="black" stroke-linecap="round" stroke-linejoin="round"/>
<path d="M10.6667 6.66667C10.6667 7.37392 10.3857 8.05219 9.88563 8.55229C9.38553 9.05239 8.70725 9.33334 8.00001 9.33334C7.29277 9.33334 6.61449 9.05239 6.11439 8.55229C5.61429 8.05219 5.33334 7.37392 5.33334 6.66667" stroke="black" stroke-linecap="round" stroke-linejoin="round"/>
</svg>
