<svg width="9" height="12" viewBox="0 0 9 12" fill="none" xmlns="http://www.w3.org/2000/svg">
<mask id="path-1-inside-1_81_16390" fill="white">
<path d="M4.31271 11.1667C4.24473 11.1666 4.17789 11.1492 4.11857 11.116C2.95475 10.4669 1.98543 9.51874 1.31081 8.36954C0.636185 7.22033 0.280751 5.91179 0.281251 4.5792C0.281251 4.52474 0.281781 4.47046 0.282842 4.41635C0.309365 3.2101 0.758395 2.19428 1.58246 1.47896C2.3113 0.847714 3.28071 0.5 4.31271 0.5C5.34471 0.5 6.31386 0.847714 7.04191 1.47896C7.86676 2.19507 8.31659 3.2101 8.34152 4.41635C8.34152 4.4694 8.34338 4.52483 8.34338 4.5792C8.3441 5.93241 7.97742 7.26043 7.28247 8.42156C6.60789 9.54625 5.65107 10.4751 4.50686 11.116C4.44754 11.1492 4.38069 11.1666 4.31271 11.1667ZM4.31271 1.29568C3.47221 1.29568 2.68793 1.57417 2.10469 2.08023C1.45409 2.6441 1.09921 3.45782 1.07853 4.43333C1.07853 4.4816 1.07693 4.5304 1.07693 4.5792C1.07654 5.73208 1.37429 6.86546 1.94126 7.86929C2.50823 8.87311 3.32517 9.71325 4.31271 10.3081C5.25128 9.74065 6.03689 8.95232 6.6011 8.01178C7.2217 6.9744 7.54914 5.78805 7.54849 4.5792C7.54849 4.5304 7.54849 4.4816 7.5469 4.43333C7.52595 3.45782 7.17107 2.6441 6.52073 2.08023C5.93723 1.57417 5.15322 1.29568 4.31271 1.29568Z"/>
</mask>
<path d="M4.31271 11.1667C4.24473 11.1666 4.17789 11.1492 4.11857 11.116C2.95475 10.4669 1.98543 9.51874 1.31081 8.36954C0.636185 7.22033 0.280751 5.91179 0.281251 4.5792C0.281251 4.52474 0.281781 4.47046 0.282842 4.41635C0.309365 3.2101 0.758395 2.19428 1.58246 1.47896C2.3113 0.847714 3.28071 0.5 4.31271 0.5C5.34471 0.5 6.31386 0.847714 7.04191 1.47896C7.86676 2.19507 8.31659 3.2101 8.34152 4.41635C8.34152 4.4694 8.34338 4.52483 8.34338 4.5792C8.3441 5.93241 7.97742 7.26043 7.28247 8.42156C6.60789 9.54625 5.65107 10.4751 4.50686 11.116C4.44754 11.1492 4.38069 11.1666 4.31271 11.1667ZM4.31271 1.29568C3.47221 1.29568 2.68793 1.57417 2.10469 2.08023C1.45409 2.6441 1.09921 3.45782 1.07853 4.43333C1.07853 4.4816 1.07693 4.5304 1.07693 4.5792C1.07654 5.73208 1.37429 6.86546 1.94126 7.86929C2.50823 8.87311 3.32517 9.71325 4.31271 10.3081C5.25128 9.74065 6.03689 8.95232 6.6011 8.01178C7.2217 6.9744 7.54914 5.78805 7.54849 4.5792C7.54849 4.5304 7.54849 4.4816 7.5469 4.43333C7.52595 3.45782 7.17107 2.6441 6.52073 2.08023C5.93723 1.57417 5.15322 1.29568 4.31271 1.29568Z" fill="#565450"/>
<path d="M4.31271 11.1667L4.31081 17.1667L4.31461 17.1667L4.31271 11.1667ZM4.11857 11.116L7.04847 5.88L7.04114 5.87592L4.11857 11.116ZM0.281251 4.5792L6.28125 4.58146V4.5792H0.281251ZM0.282842 4.41635L-5.71571 4.28446L-5.71587 4.29159L-5.71601 4.29873L0.282842 4.41635ZM1.58246 1.47896L-2.34562 -3.05649L-2.35068 -3.0521L1.58246 1.47896ZM7.04191 1.47896L10.9754 -3.05181L10.9724 -3.05436L7.04191 1.47896ZM8.34152 4.41635H14.3415V4.35436L14.3402 4.29237L8.34152 4.41635ZM8.34338 4.5792H2.34338L2.34338 4.58239L8.34338 4.5792ZM7.28247 8.42156L12.4279 11.5077L12.4308 11.5029L7.28247 8.42156ZM4.50686 11.116L7.43676 16.352L7.43904 16.3507L4.50686 11.116ZM2.10469 2.08023L6.03435 6.6143L6.03686 6.61212L2.10469 2.08023ZM1.07853 4.43333L-4.92013 4.30611L-4.92147 4.36971V4.43333H1.07853ZM1.07693 4.5792L7.07693 4.58126V4.5792H1.07693ZM4.31271 10.3081L1.21678 15.4477L4.31848 17.3161L7.41709 15.4426L4.31271 10.3081ZM6.6011 8.01178L11.7463 11.0983L11.75 11.0921L6.6011 8.01178ZM7.54849 4.5792H1.54849L1.54849 4.5824L7.54849 4.5792ZM7.5469 4.43333L1.54828 4.56217L1.54902 4.5966L1.55016 4.63102L7.5469 4.43333ZM6.52073 2.08023L2.58958 6.613L2.59017 6.61351L6.52073 2.08023ZM4.31461 5.16667C5.27186 5.16697 6.21308 5.41255 7.04846 5.88001L1.18867 16.352C2.1427 16.8859 3.2176 17.1663 4.31081 17.1667L4.31461 5.16667ZM7.04114 5.87592C6.81068 5.74738 6.61872 5.55962 6.48513 5.33204L-3.86352 11.407C-2.64787 13.4779 -0.901172 15.1864 1.19599 16.3561L7.04114 5.87592ZM6.48513 5.33204C6.35154 5.10447 6.28115 4.84534 6.28125 4.58146L-5.71875 4.57695C-5.71965 6.97824 -5.07917 9.33619 -3.86352 11.407L6.48513 5.33204ZM6.28125 4.5792C6.28125 4.5637 6.2814 4.54863 6.28169 4.53398L-5.71601 4.29873C-5.71784 4.39229 -5.71875 4.48579 -5.71875 4.5792H6.28125ZM6.28139 4.54825C6.27903 4.65554 6.25353 4.89049 6.12073 5.19071C5.98404 5.49973 5.77318 5.78641 5.51559 6.01001L-2.35068 -3.0521C-4.59768 -1.10161 -5.65642 1.58787 -5.71571 4.28446L6.28139 4.54825ZM5.51053 6.0144C5.06895 6.39684 4.61444 6.5 4.31271 6.5V-5.5C1.94698 -5.5 -0.446343 -4.70142 -2.34562 -3.05649L5.51053 6.0144ZM4.31271 6.5C4.01126 6.5 3.55504 6.39694 3.11138 6.01227L10.9724 -3.05436C9.07268 -4.70151 6.67817 -5.5 4.31271 -5.5V6.5ZM3.10844 6.00972C2.85375 5.78861 2.64271 5.50319 2.50512 5.19235C2.37129 4.88999 2.34511 4.65174 2.3428 4.54034L14.3402 4.29237C14.2843 1.58456 13.2192 -1.10379 10.9754 -3.05181L3.10844 6.00972ZM2.34152 4.41635C2.34152 4.46367 2.34193 4.50446 2.34231 4.53386C2.34267 4.56192 2.34313 4.58815 2.34332 4.59934C2.34358 4.61482 2.34359 4.61587 2.34358 4.61467C2.34354 4.61221 2.34338 4.59895 2.34338 4.5792H14.3434C14.3434 4.53227 14.343 4.4917 14.3426 4.46189C14.3422 4.43335 14.3418 4.40703 14.3416 4.39522C14.3413 4.37913 14.3413 4.37816 14.3413 4.37921C14.3413 4.38159 14.3415 4.39556 14.3415 4.41635H2.34152ZM2.34338 4.58239C2.34352 4.84928 2.2712 5.11121 2.13414 5.34021L12.4308 11.5029C13.6836 9.40966 14.3447 7.01555 14.3434 4.57602L2.34338 4.58239ZM2.13704 5.33537C2.00036 5.56324 1.80651 5.75143 1.57468 5.88128L7.43904 16.3507C9.49563 15.1988 11.2154 13.5293 12.4279 11.5077L2.13704 5.33537ZM1.57696 5.88001C2.41234 5.41255 3.35356 5.16697 4.31081 5.16667L4.31461 17.1667C5.40782 17.1663 6.48273 16.8859 7.43676 16.352L1.57696 5.88001ZM4.31271 -4.70432C2.16686 -4.70432 -0.0521522 -3.99206 -1.82748 -2.45166L6.03686 6.61212C5.42801 7.1404 4.77755 7.29568 4.31271 7.29568V-4.70432ZM-1.82496 -2.45385C-3.93454 -0.625489 -4.86879 1.88535 -4.92013 4.30611L7.07718 4.56054C7.07282 4.76586 7.02917 5.10184 6.85516 5.50085C6.67651 5.91051 6.39695 6.30003 6.03435 6.6143L-1.82496 -2.45385ZM-4.92147 4.43333C-4.92147 4.41317 -4.92131 4.39925 -4.92127 4.39581C-4.92124 4.39373 -4.92123 4.39365 -4.92147 4.40799C-4.92164 4.41825 -4.92204 4.44267 -4.92237 4.4692C-4.92271 4.49706 -4.92307 4.53508 -4.92307 4.5792H7.07693C7.07693 4.59893 7.07678 4.61255 7.07673 4.61602C7.07671 4.61817 7.0767 4.61822 7.07693 4.60414C7.07709 4.59415 7.0775 4.56977 7.07782 4.54344C7.07816 4.51574 7.07853 4.47763 7.07853 4.43333H-4.92147ZM-4.92307 4.57715C-4.92382 6.76471 -4.35884 8.91529 -3.28302 10.82L7.16554 4.91854C7.10742 4.81563 7.07689 4.69945 7.07693 4.58126L-4.92307 4.57715ZM-3.28302 10.82C-2.20719 12.7248 -0.657074 14.3189 1.21678 15.4477L7.40864 5.16855C7.3074 5.10757 7.22366 5.02144 7.16554 4.91854L-3.28302 10.82ZM7.41709 15.4426C9.1927 14.369 10.6789 12.8777 11.7463 11.0983L1.45588 4.92525C1.39485 5.02698 1.30987 5.11226 1.20833 5.17365L7.41709 15.4426ZM11.75 11.0921C12.9281 9.12283 13.5497 6.87077 13.5485 4.57601L1.54849 4.5824C1.54856 4.70533 1.51526 4.82597 1.45215 4.93147L11.75 11.0921ZM13.5485 4.5792C13.5485 4.54767 13.549 4.39945 13.5436 4.23563L1.55016 4.63102C1.54881 4.59018 1.54855 4.562 1.54849 4.55511C1.54846 4.55124 1.54847 4.55046 1.54848 4.55484C1.54849 4.5599 1.54849 4.56598 1.54849 4.5792H13.5485ZM13.5455 4.30448C13.4935 1.88502 12.5598 -0.624883 10.4513 -2.45305L2.59017 6.61351C2.2277 6.29923 1.94847 5.90995 1.77006 5.50085C1.5963 5.1024 1.55268 4.767 1.54828 4.56217L13.5455 4.30448ZM10.4519 -2.45255C8.67728 -3.99161 6.45935 -4.70432 4.31271 -4.70432V7.29568C3.84708 7.29568 3.19718 7.13996 2.58958 6.613L10.4519 -2.45255Z" fill="#565450" mask="url(#path-1-inside-1_81_16390)"/>
<mask id="path-3-inside-2_81_16390" fill="white">
<path d="M4.32307 6.52773C3.8283 6.52773 3.34463 6.38102 2.93324 6.10613C2.52185 5.83125 2.20121 5.44055 2.01187 4.98344C1.82253 4.52632 1.77299 4.02333 1.86951 3.53806C1.96604 3.05279 2.20429 2.60705 2.55415 2.25719C2.90401 1.90733 3.34976 1.66907 3.83503 1.57254C4.3203 1.47602 4.82329 1.52556 5.2804 1.7149C5.73752 1.90424 6.12822 2.22488 6.4031 2.63627C6.67798 3.04767 6.8247 3.53133 6.8247 4.02611C6.824 4.68936 6.56021 5.32525 6.09122 5.79425C5.62222 6.26324 4.98633 6.52703 4.32307 6.52773ZM4.32307 2.32042C3.98566 2.32042 3.65582 2.42048 3.37527 2.60795C3.09472 2.79541 2.87607 3.06186 2.74696 3.37359C2.61785 3.68533 2.58408 4.02835 2.64992 4.35928C2.71577 4.69021 2.87827 4.99418 3.11688 5.23275C3.35549 5.47132 3.65948 5.63377 3.99042 5.69957C4.32136 5.76536 4.66438 5.73154 4.97609 5.60238C5.28781 5.47322 5.55422 5.25453 5.74164 4.97395C5.92906 4.69337 6.02907 4.36352 6.02902 4.02611C6.02824 3.574 5.84823 3.14064 5.52844 2.82105C5.20865 2.50146 4.77518 2.32171 4.32307 2.32122V2.32042Z"/>
</mask>
<path d="M4.32307 6.52773C3.8283 6.52773 3.34463 6.38102 2.93324 6.10613C2.52185 5.83125 2.20121 5.44055 2.01187 4.98344C1.82253 4.52632 1.77299 4.02333 1.86951 3.53806C1.96604 3.05279 2.20429 2.60705 2.55415 2.25719C2.90401 1.90733 3.34976 1.66907 3.83503 1.57254C4.3203 1.47602 4.82329 1.52556 5.2804 1.7149C5.73752 1.90424 6.12822 2.22488 6.4031 2.63627C6.67798 3.04767 6.8247 3.53133 6.8247 4.02611C6.824 4.68936 6.56021 5.32525 6.09122 5.79425C5.62222 6.26324 4.98633 6.52703 4.32307 6.52773ZM4.32307 2.32042C3.98566 2.32042 3.65582 2.42048 3.37527 2.60795C3.09472 2.79541 2.87607 3.06186 2.74696 3.37359C2.61785 3.68533 2.58408 4.02835 2.64992 4.35928C2.71577 4.69021 2.87827 4.99418 3.11688 5.23275C3.35549 5.47132 3.65948 5.63377 3.99042 5.69957C4.32136 5.76536 4.66438 5.73154 4.97609 5.60238C5.28781 5.47322 5.55422 5.25453 5.74164 4.97395C5.92906 4.69337 6.02907 4.36352 6.02902 4.02611C6.02824 3.574 5.84823 3.14064 5.52844 2.82105C5.20865 2.50146 4.77518 2.32171 4.32307 2.32122V2.32042Z" fill="#565450"/>
<path d="M4.32307 6.52773V12.5277L4.32942 12.5277L4.32307 6.52773ZM6.8247 4.02611L12.8247 4.03246V4.02611H6.8247ZM4.32307 2.32042H10.3231V-3.67957H4.32307V2.32042ZM6.02902 4.02611L12.029 4.02517L12.029 4.01586L6.02902 4.02611ZM4.32307 2.32122H-1.67693V8.31471L4.31656 8.32122L4.32307 2.32122ZM4.32307 0.527734C5.01498 0.527734 5.69136 0.732909 6.26666 1.11732L-0.40018 11.095C0.997907 12.0291 2.64161 12.5277 4.32307 12.5277V0.527734ZM6.26666 1.11732C6.84197 1.50172 7.29036 2.04809 7.55514 2.68734L-3.53141 7.27954C-2.88794 8.83301 -1.79827 10.1608 -0.40018 11.095L6.26666 1.11732ZM7.55514 2.68734C7.81993 3.32658 7.88921 4.02999 7.75422 4.7086L-4.0152 2.36752C-4.34324 4.01667 -4.17488 5.72607 -3.53141 7.27954L7.55514 2.68734ZM7.75422 4.7086C7.61924 5.38722 7.28605 6.01057 6.79679 6.49983L-1.68849 -1.98545C-2.87746 -0.796481 -3.68716 0.718364 -4.0152 2.36752L7.75422 4.7086ZM6.79679 6.49983C6.30754 6.98908 5.68419 7.32227 5.00557 7.45726L2.66449 -4.31217C1.01533 -3.98413 -0.499516 -3.17443 -1.68849 -1.98545L6.79679 6.49983ZM5.00557 7.45726C4.32695 7.59224 3.62355 7.52296 2.9843 7.25818L7.5765 -3.82838C6.02303 -4.47184 4.31364 -4.6402 2.66449 -4.31217L5.00557 7.45726ZM2.9843 7.25818C2.34506 6.99339 1.79869 6.545 1.41428 5.9697L11.3919 -0.697147C10.4577 -2.09523 9.12998 -3.18491 7.5765 -3.82838L2.9843 7.25818ZM1.41428 5.9697C1.02988 5.39439 0.8247 4.71802 0.8247 4.02611H12.8247C12.8247 2.34464 12.3261 0.70094 11.3919 -0.697147L1.41428 5.9697ZM0.824703 4.01975C0.825683 3.09392 1.1939 2.20628 1.84857 1.55161L10.3339 10.0369C11.9265 8.44423 12.8223 6.28481 12.8247 4.03246L0.824703 4.01975ZM1.84857 1.55161C2.50324 0.896941 3.39088 0.528717 4.31672 0.527737L4.32942 12.5277C6.58178 12.5253 8.7412 11.6295 10.3339 10.0369L1.84857 1.55161ZM4.32307 -3.67957C2.79893 -3.67957 1.30902 -3.2276 0.0417529 -2.38081L6.70879 7.5967C6.00262 8.06857 5.17238 8.32043 4.32307 8.32043L4.32307 -3.67957ZM0.0417529 -2.38081C-1.22551 -1.53401 -2.2132 -0.330432 -2.79641 1.07771L8.29032 5.66948C7.96534 6.45415 7.41496 7.12483 6.70879 7.5967L0.0417529 -2.38081ZM-2.79641 1.07771C-3.37962 2.48586 -3.53215 4.03533 -3.23472 5.53017L8.53457 3.1884C8.70031 4.02138 8.61531 4.88481 8.29032 5.66948L-2.79641 1.07771ZM-3.23472 5.53017C-2.93729 7.02501 -2.20325 8.39807 -1.12543 9.47572L7.35919 0.989779C7.95979 1.59029 8.36883 2.35541 8.53457 3.1884L-3.23472 5.53017ZM-1.12543 9.47572C-0.0476179 10.5534 1.32556 11.2872 2.82045 11.5844L5.16039 -0.185257C5.9934 -0.0196444 6.75859 0.389274 7.35919 0.989779L-1.12543 9.47572ZM2.82045 11.5844C4.31534 11.8816 5.86479 11.7288 7.27284 11.1454L2.67935 0.0593724C3.46397 -0.265736 4.32738 -0.350869 5.16039 -0.185257L2.82045 11.5844ZM7.27284 11.1454C8.6809 10.562 9.88432 9.57409 10.7309 8.30669L0.752371 1.64121C1.22413 0.934965 1.89472 0.384482 2.67935 0.0593724L7.27284 11.1454ZM10.7309 8.30669C11.5775 7.03929 12.0293 5.54931 12.029 4.02517L0.0290166 4.02704C0.0288845 3.17773 0.280612 2.34745 0.752371 1.64121L10.7309 8.30669ZM12.029 4.01586C12.0255 1.97536 11.2131 0.0194979 9.76976 -1.42291L1.28712 7.06501C0.483392 6.26178 0.0309658 5.17263 0.0290253 4.03635L12.029 4.01586ZM9.76976 -1.42291C8.32646 -2.86532 6.37009 -3.67656 4.32959 -3.67878L4.31656 8.32122C3.18027 8.31998 2.09084 7.86823 1.28712 7.06501L9.76976 -1.42291ZM10.3231 2.32122V2.32042H-1.67693V2.32122H10.3231Z" fill="#565450" mask="url(#path-3-inside-2_81_16390)"/>
</svg>
