<svg width="24" height="24" viewBox="0 0 24 24" fill="none" xmlns="http://www.w3.org/2000/svg">
<g clip-path="url(#clip0_79_14893)">
<path fill-rule="evenodd" clip-rule="evenodd" d="M2.66667 24H21.3333C22.8061 24 24 22.8061 24 21.3333V2.66667C24 1.19391 22.8061 0 21.3333 0H2.66667C1.19391 0 0 1.19391 0 2.66667V21.3333C0 22.8061 1.19391 24 2.66667 24Z" fill="#7F4DA0"/>
<path fill-rule="evenodd" clip-rule="evenodd" d="M12 3.33332C16.7864 3.33332 20.6666 7.21352 20.6666 12C20.6666 16.7865 16.7864 20.6667 12 20.6667C7.21351 20.6667 3.33331 16.7865 3.33331 12C3.33331 7.21352 7.21351 3.33332 12 3.33332ZM12.519 6.86359C13.1083 6.93713 13.5846 7.0791 14.1071 7.33396C14.621 7.58541 14.9499 7.82316 15.385 8.2559C15.7927 8.6647 16.0188 8.97431 16.2586 9.45494C16.5927 10.1255 16.7829 10.9225 16.8154 11.8C16.8274 12.0993 16.8188 12.166 16.7503 12.2515C16.6201 12.4175 16.334 12.3901 16.2364 12.2037C16.2055 12.1421 16.197 12.0891 16.1867 11.8496C16.1696 11.4818 16.1439 11.2441 16.0925 10.9601C15.8903 9.84665 15.3559 8.9572 14.5028 8.31919C13.7918 7.78553 13.0569 7.52553 12.0942 7.46909C11.7687 7.45028 11.7122 7.43831 11.6385 7.38186C11.5015 7.27409 11.4946 7.02096 11.6265 6.90294C11.707 6.82937 11.7636 6.81911 12.0428 6.82767C12.1884 6.8328 12.4025 6.8499 12.519 6.86359ZM8.60298 7.04832C8.66295 7.06884 8.75546 7.11673 8.80857 7.15094C9.13402 7.36647 10.0402 8.52444 10.3366 9.10259C10.5062 9.4327 10.5627 9.6773 10.5096 9.85861C10.4548 10.0536 10.364 10.1562 9.95802 10.4829C9.79528 10.6146 9.64281 10.7498 9.61884 10.7857C9.55717 10.8746 9.50747 11.0491 9.50747 11.1723C9.50921 11.4579 9.69421 11.9762 9.93747 12.3747C10.1259 12.6843 10.4634 13.0811 10.7974 13.3856C11.1897 13.7448 11.5357 13.9894 11.9263 14.1827C12.4282 14.4324 12.7349 14.4957 12.9593 14.3914C13.0158 14.3657 13.0758 14.3315 13.0946 14.3161C13.1118 14.3007 13.2437 14.1399 13.3876 13.962C13.6651 13.6131 13.7285 13.5567 13.9186 13.4917C14.1602 13.4096 14.4068 13.4318 14.6552 13.5584C14.8437 13.6559 15.2548 13.9107 15.5203 14.0954C15.8698 14.34 16.6167 14.949 16.7178 15.0704C16.8959 15.2894 16.9268 15.5699 16.8068 15.8795C16.6801 16.2062 16.1867 16.8185 15.8424 17.0802C15.5306 17.3163 15.3096 17.4069 15.0184 17.4206C14.7786 17.4326 14.6792 17.4121 14.3726 17.2855C11.9674 16.2951 10.0471 14.8173 8.52246 12.7869C7.72591 11.7265 7.11947 10.6266 6.70489 9.48574C6.46337 8.82037 6.45139 8.5313 6.65008 8.19092C6.73575 8.04725 7.10063 7.69146 7.36615 7.49305C7.80813 7.16463 8.01197 7.04318 8.17472 7.00898C8.28606 6.98503 8.47963 7.00385 8.60298 7.04832ZM12.6372 8.10368C13.6771 8.2559 14.4822 8.73826 15.0098 9.52165C15.3062 9.96295 15.4912 10.4812 15.5546 11.0371C15.5768 11.2407 15.5768 11.6118 15.5529 11.6734C15.5306 11.7316 15.4586 11.8103 15.397 11.8427C15.3302 11.877 15.188 11.8736 15.1092 11.8325C14.9773 11.7658 14.9379 11.6597 14.9379 11.3724C14.9379 10.9294 14.8231 10.4624 14.6244 10.0998C14.3983 9.68585 14.0694 9.34377 13.6685 9.106C13.3242 8.90075 12.8154 8.74852 12.3512 8.7109C12.1833 8.6972 12.0908 8.663 12.0274 8.58945C11.9298 8.47826 11.9195 8.32774 12.0017 8.20289C12.0908 8.06433 12.2278 8.0421 12.6372 8.10368ZM13.0021 9.39507C13.3396 9.46692 13.5983 9.5952 13.8193 9.80217C14.1036 10.0707 14.2595 10.3957 14.328 10.8627C14.3743 11.1671 14.3554 11.2868 14.2475 11.3861C14.1464 11.4784 13.9597 11.4818 13.8467 11.3946C13.7644 11.333 13.7387 11.268 13.7199 11.0919C13.6976 10.8575 13.6565 10.6933 13.5863 10.5411C13.4355 10.2178 13.17 10.0502 12.7212 9.99545C12.5105 9.96978 12.4471 9.94584 12.3786 9.86546C12.2535 9.71664 12.3015 9.47547 12.4745 9.38652C12.5396 9.35402 12.567 9.3506 12.7109 9.35915C12.8 9.36428 12.9319 9.37967 13.0021 9.39507Z" fill="white"/>
</g>
<defs>
<clipPath id="clip0_79_14893">
<rect width="24" height="24" fill="white"/>
</clipPath>
</defs>
</svg>
