<svg width="199" height="192" viewBox="0 0 199 192" fill="none" xmlns="http://www.w3.org/2000/svg">
<g clip-path="url(#clip0_9_2208)">
<path d="M82.9702 41.756C73.0327 52.2874 65.7458 64.5553 60.1408 79.0275C54.5357 93.4998 51.4903 108.567 51.7878 121.949C51.8338 124.472 52.6207 127.002 55.9928 126.699C58.7316 126.455 129.813 122.44 155.413 120.371C156.277 120.302 157.105 119.991 157.8 119.473C158.496 118.955 159.031 118.251 159.344 117.442C159.657 116.633 159.736 115.753 159.571 114.902C159.406 114.05 159.004 113.263 158.411 112.63L89.2899 41.206C87.763 39.6258 85.2328 39.3557 82.9702 41.756Z" fill="#D9A404"/>
<path fill-rule="evenodd" clip-rule="evenodd" d="M45.4576 122.078C45.14 107.703 48.4004 91.8099 54.2366 76.7409C60.0829 61.6457 67.77 48.6398 78.3629 37.4131C80.3975 35.2547 83.0992 33.7582 86.2058 33.66C89.2893 33.5625 91.9763 34.8762 93.8397 36.8029C93.8409 36.8041 93.842 36.8053 93.8432 36.8065L162.998 108.265L163.034 108.303C164.441 109.806 165.395 111.676 165.787 113.697C166.178 115.718 165.992 117.809 165.248 119.729C164.504 121.649 163.234 123.32 161.583 124.55C159.933 125.78 157.969 126.519 155.917 126.683C143.04 127.723 118.805 129.248 97.5133 130.539C88.0654 131.113 79.1788 131.641 72.0952 132.062C71.1858 132.116 70.306 132.168 69.4586 132.219C65.7333 132.44 62.6363 132.625 60.3856 132.762C59.2596 132.83 58.351 132.887 57.6837 132.929C57.3497 132.951 57.082 132.968 56.8807 132.982C56.7801 132.989 56.7007 132.995 56.6408 132.999C56.586 133.003 56.5607 133.005 56.556 133.006C56.5551 133.006 56.555 133.006 56.5555 133.006C52.9612 133.327 49.5367 132.05 47.4211 128.964C45.731 126.499 45.4883 123.703 45.4576 122.078ZM58.0995 120.216C60.9517 120.039 65.8442 119.748 71.9911 119.383C79.0004 118.966 87.6406 118.452 96.7466 117.9C116.186 116.72 137.927 115.356 151.26 114.345L86.4214 47.3465C77.7201 56.907 71.1837 68.0461 66.045 81.3142C60.9015 94.5949 58.0881 108.21 58.0995 120.216ZM58.1654 122.4C58.1653 122.4 58.1652 122.399 58.1651 122.399C58.1678 122.409 58.1676 122.41 58.1654 122.4Z" fill="#870031"/>
<path d="M75.3813 29.0152C64.3926 40.9002 53.9013 56.7193 47.2022 74.0165C40.5031 91.3137 37.3523 109.678 37.543 126.234C37.5709 127.699 37.8474 130.53 40.1072 130.658L47.6193 130.567C50.2472 130.345 50.7348 129.086 51.4019 127.364C51.5887 126.881 51.5802 126.103 51.5742 125.174C51.5587 109.395 54.4631 93.7495 60.1408 79.0275C66.0663 63.7277 75.3715 49.306 84.8889 39.1389C85.6411 38.3173 86.0601 37.8597 86.2366 37.4041C86.9235 35.6305 87.9105 34.8348 85.6191 32.5152L80.1483 27.3679C78.7408 26.1997 76.7108 27.5834 75.3813 29.0152Z" fill="#D9A404"/>
<path fill-rule="evenodd" clip-rule="evenodd" d="M31.2119 126.307C31.0118 108.94 34.3093 89.7747 41.2981 71.7298C48.3109 53.6226 59.2528 37.1326 70.7324 24.7167L70.737 24.7117L70.7416 24.7068C71.7039 23.6704 73.2213 22.2969 75.1569 21.4337C77.1558 20.5424 80.8884 19.7537 84.192 22.4957L84.3436 22.6214L90.0422 27.9831L90.1236 28.0655C91.6966 29.6579 93.5867 32.1343 93.363 35.5751C93.2691 37.019 92.8101 38.1523 92.578 38.6976C92.3678 39.1916 92.3045 39.3192 92.2647 39.3994C92.2313 39.4668 92.2144 39.5008 92.1408 39.6907C91.7081 40.808 91.094 41.6289 90.7088 42.1069C90.3584 42.5418 89.9418 42.9964 89.6238 43.3435L89.5353 43.4401L89.5114 43.4657C80.5541 53.0345 71.6824 66.7601 66.0467 81.3097C60.6533 95.2964 57.8932 110.16 57.9058 125.15C57.906 125.176 57.9061 125.202 57.9063 125.229C57.9091 125.627 57.9133 126.223 57.8823 126.785C57.8527 127.323 57.7703 128.452 57.3061 129.651C57.2898 129.693 57.271 129.743 57.2494 129.8C56.9786 130.519 56.2759 132.385 54.8204 133.906C52.91 135.902 50.4893 136.679 48.1527 136.876L47.9249 136.896L39.9662 136.992L39.7487 136.98C35.2229 136.723 32.9551 133.46 32.0923 131.255C31.3094 129.256 31.2296 127.243 31.2126 126.355L31.2122 126.331L31.2119 126.307ZM43.8676 124.281L45.2449 124.264C45.3399 108.015 48.3845 91.9151 54.2333 76.7492L54.235 76.745L54.2366 76.7408C60.3134 61.0504 69.7573 46.2512 79.5929 35.5386L78.7373 34.7336C68.7126 45.916 59.2292 60.4941 53.1065 76.3031C46.951 92.1967 43.9362 109.026 43.8676 124.281ZM80.9412 33.7011C80.9412 33.7011 80.9372 33.7129 80.9263 33.7385Z" fill="#870031"/>
<path d="M87.9621 109.642C89.8072 104.878 87.441 99.5202 82.6771 97.6752C77.9133 95.8302 72.5558 98.1964 70.7108 102.96C68.8658 107.724 71.232 113.082 75.9958 114.927C80.7596 116.772 86.1171 114.405 87.9621 109.642Z" fill="#F2EDD5"/>
<path d="M105.638 76.8092C107.483 72.0453 105.117 66.6878 100.353 64.8428C95.5889 62.9978 90.2314 65.364 88.3863 70.1278C86.5413 74.8916 88.9075 80.2492 93.6713 82.0942C98.4352 83.9392 103.793 81.573 105.638 76.8092Z" fill="#C0123C"/>
<path d="M129.146 105.753C130.991 100.989 128.625 95.6316 123.861 93.7866C119.097 91.9415 113.74 94.3077 111.895 99.0716C110.05 103.835 112.416 109.193 117.18 111.038C121.944 112.883 127.301 110.517 129.146 105.753Z" fill="#F2EDD5"/>
<path d="M91 133.462C91 143.955 82.4934 152.462 72 152.462C61.5066 152.462 53 143.955 53 133.462C53 122.968 61.5066 114.462 72 114.462C82.4934 114.462 91 122.968 91 133.462Z" fill="#870031"/>
<path d="M147 133.462C147 143.955 138.493 152.462 128 152.462C117.507 152.462 109 143.955 109 133.462C109 122.968 117.507 114.462 128 114.462C138.493 114.462 147 122.968 147 133.462Z" fill="#870031"/>
</g>
<rect y="70" width="186" height="43" fill="white"/>
<path d="M49.4073 89.7737C49.4073 91.3604 48.9966 92.8164 48.1753 94.1417C47.3539 95.4671 46.1593 96.5497 44.5913 97.3897C43.0233 98.2297 41.1566 98.7244 38.9913 98.8737L37.7873 105.622C37.3206 108.216 36.0513 109.514 33.9793 109.514C32.8406 109.514 31.7859 109.178 30.8153 108.506C29.8633 107.834 29.0979 106.807 28.5193 105.426C27.9406 104.044 27.6513 102.346 27.6513 100.33C27.6513 96.5404 28.2579 93.3297 29.4713 90.6977C30.7033 88.0471 32.3459 86.0684 34.3993 84.7617C36.4713 83.4364 38.7486 82.7737 41.2313 82.7737C42.9859 82.7737 44.4699 83.0817 45.6833 83.6977C46.9153 84.3137 47.8393 85.1537 48.4553 86.2177C49.0899 87.2631 49.4073 88.4484 49.4073 89.7737ZM39.4953 95.9897C43.3219 95.5044 45.2353 93.5164 45.2353 90.0257C45.2353 88.7937 44.8246 87.7951 44.0033 87.0297C43.2006 86.2457 41.9499 85.8537 40.2513 85.8537C38.3286 85.8537 36.6486 86.4604 35.2113 87.6737C33.7926 88.8871 32.6913 90.5764 31.9073 92.7417C31.1419 94.8884 30.7593 97.3431 30.7593 100.106C30.7593 101.263 30.8713 102.29 31.0953 103.186C31.3379 104.082 31.6366 104.782 31.9913 105.286C32.3646 105.771 32.7193 106.014 33.0553 106.014C33.5219 106.014 33.8766 105.37 34.1193 104.082L35.0433 98.7897C34.3153 98.6777 33.9979 98.6311 34.0913 98.6497C33.5313 98.5564 33.1673 98.3884 32.9993 98.1457C32.8313 97.8844 32.7473 97.5577 32.7473 97.1657C32.7473 96.7551 32.8593 96.4284 33.0833 96.1857C33.3259 95.9431 33.6526 95.8217 34.0633 95.8217C34.2499 95.8217 34.3899 95.8311 34.4833 95.8497C34.9313 95.9244 35.2766 95.9711 35.5193 95.9897C35.7619 94.5337 36.1073 92.5831 36.5553 90.1377C36.6673 89.5031 36.9193 89.0551 37.3113 88.7937C37.7219 88.5137 38.1979 88.3737 38.7393 88.3737C39.3553 88.3737 39.7939 88.4951 40.0553 88.7377C40.3353 88.9617 40.4753 89.3257 40.4753 89.8297C40.4753 90.1284 40.4566 90.3711 40.4193 90.5577L39.4953 95.9897ZM61.332 100.218C61.5747 100.218 61.7613 100.33 61.892 100.554C62.0413 100.778 62.116 101.086 62.116 101.478C62.116 102.224 61.9387 102.803 61.584 103.214C60.8933 104.054 59.9133 104.828 58.644 105.538C57.3933 106.247 56.0493 106.602 54.612 106.602C52.652 106.602 51.1307 106.07 50.048 105.006C48.9653 103.942 48.424 102.486 48.424 100.638C48.424 99.3497 48.6947 98.1551 49.236 97.0537C49.7773 95.9337 50.524 95.0471 51.476 94.3937C52.4467 93.7404 53.5387 93.4137 54.752 93.4137C55.8347 93.4137 56.7027 93.7404 57.356 94.3937C58.0093 95.0284 58.336 95.8964 58.336 96.9977C58.336 98.2857 57.8693 99.3964 56.936 100.33C56.0213 101.244 54.4627 101.972 52.26 102.514C52.7267 103.372 53.6133 103.802 54.92 103.802C55.76 103.802 56.712 103.512 57.776 102.934C58.8587 102.336 59.792 101.562 60.576 100.61C60.8 100.348 61.052 100.218 61.332 100.218ZM54.276 96.1577C53.5853 96.1577 52.9973 96.5591 52.512 97.3617C52.0453 98.1644 51.812 99.1351 51.812 100.274V100.33C52.9133 100.068 53.7813 99.6764 54.416 99.1537C55.0507 98.6311 55.368 98.0244 55.368 97.3337C55.368 96.9791 55.2653 96.6991 55.06 96.4937C54.8733 96.2697 54.612 96.1577 54.276 96.1577ZM75.3351 100.218C75.5777 100.218 75.7644 100.33 75.8951 100.554C76.0444 100.778 76.1191 101.086 76.1191 101.478C76.1191 102.224 75.9417 102.803 75.5871 103.214C74.7844 104.203 73.9164 105.015 72.9831 105.65C72.0684 106.284 71.0231 106.602 69.8471 106.602C68.8577 106.602 68.0551 106.247 67.4391 105.538C66.3751 106.228 65.2644 106.583 64.1071 106.602C63.8644 110.204 63.3137 113.21 62.4551 115.618C61.5964 118.044 60.3364 119.258 58.6751 119.258C57.6671 119.258 56.9204 118.894 56.4351 118.166C55.9497 117.438 55.7071 116.43 55.7071 115.142C55.7071 113.312 56.1271 111.175 56.9671 108.73C57.8071 106.303 59.1044 103.624 60.8591 100.694C60.8591 97.9684 60.8404 96.0737 60.8031 95.0097C60.7844 94.4684 60.9991 94.0391 61.4471 93.7217C61.8951 93.4044 62.4551 93.2457 63.1271 93.2457C63.5191 93.2457 63.7991 93.3297 63.9671 93.4977C64.1537 93.6471 64.2564 93.9551 64.2751 94.4217C64.2751 94.8884 64.2844 95.2337 64.3031 95.4577C64.9004 94.7111 65.4884 94.1791 66.0671 93.8617C66.6457 93.5257 67.2617 93.3577 67.9151 93.3577C68.9604 93.3577 69.8097 93.7777 70.4631 94.6177C71.1351 95.4577 71.4711 96.5591 71.4711 97.9217C71.4711 98.9111 71.3124 99.8724 70.9951 100.806C70.6777 101.739 70.2391 102.588 69.6791 103.354C70.0711 103.466 70.3977 103.522 70.6591 103.522C71.2751 103.522 71.8631 103.298 72.4231 102.85C72.9831 102.402 73.7017 101.655 74.5791 100.61C74.8031 100.348 75.0551 100.218 75.3351 100.218ZM64.2471 103.914C64.9191 103.764 65.5351 103.4 66.0951 102.822C66.6737 102.224 67.1311 101.496 67.4671 100.638C67.8031 99.7604 67.9711 98.8457 67.9711 97.8937C67.9711 97.3337 67.8591 96.9137 67.6351 96.6337C67.4111 96.3351 67.1124 96.1857 66.7391 96.1857C66.0671 96.1857 65.2551 96.8951 64.3031 98.3137C64.2844 99.1351 64.2751 100.339 64.2751 101.926C64.2751 102.784 64.2657 103.447 64.2471 103.914ZM58.8991 116.514C59.4031 116.514 59.8231 115.412 60.1591 113.21C60.4951 111.026 60.7097 108.3 60.8031 105.034C60.0004 106.9 59.3657 108.683 58.8991 110.382C58.4324 112.08 58.1991 113.508 58.1991 114.666C58.1991 115.263 58.2737 115.72 58.4231 116.038C58.5537 116.355 58.7124 116.514 58.8991 116.514ZM83.8875 101.058C84.1302 101.058 84.3169 101.17 84.4475 101.394C84.5969 101.618 84.6715 101.926 84.6715 102.318C84.6715 102.99 84.5129 103.568 84.1955 104.054C83.6729 104.856 82.9822 105.482 82.1235 105.93C81.2835 106.378 80.2755 106.602 79.0995 106.602C77.3075 106.602 75.9169 106.07 74.9275 105.006C73.9382 103.923 73.4435 102.467 73.4435 100.638C73.4435 99.3497 73.7142 98.1551 74.2555 97.0537C74.7969 95.9337 75.5435 95.0471 76.4955 94.3937C77.4662 93.7404 78.5582 93.4137 79.7715 93.4137C80.8542 93.4137 81.7222 93.7404 82.3755 94.3937C83.0289 95.0284 83.3555 95.8964 83.3555 96.9977C83.3555 98.2857 82.8889 99.3964 81.9555 100.33C81.0409 101.244 79.4729 101.972 77.2515 102.514C77.6995 103.372 78.4555 103.802 79.5195 103.802C80.2849 103.802 80.9102 103.624 81.3955 103.27C81.8995 102.915 82.4782 102.318 83.1315 101.478C83.3555 101.198 83.6075 101.058 83.8875 101.058ZM79.2955 96.1577C78.6049 96.1577 78.0169 96.5591 77.5315 97.3617C77.0649 98.1644 76.8315 99.1351 76.8315 100.274V100.33C77.9329 100.068 78.8009 99.6764 79.4355 99.1537C80.0702 98.6311 80.3875 98.0244 80.3875 97.3337C80.3875 96.9791 80.2849 96.6991 80.0795 96.4937C79.8929 96.2697 79.6315 96.1577 79.2955 96.1577ZM87.1113 99.5737C86.6633 99.6111 86.2993 99.4804 86.0193 99.1817C85.7579 98.8831 85.6273 98.4631 85.6273 97.9217C85.6273 97.4177 85.7486 97.0444 85.9913 96.8017C86.2526 96.5591 86.6259 96.4191 87.1113 96.3817L92.8513 95.8217C93.3179 95.7844 93.6726 95.9057 93.9153 96.1857C94.1766 96.4471 94.3073 96.8391 94.3073 97.3617C94.3073 98.3697 93.8219 98.9204 92.8513 99.0137L87.1113 99.5737ZM111.62 100.218C111.863 100.218 112.05 100.33 112.18 100.554C112.33 100.778 112.404 101.086 112.404 101.478C112.404 102.224 112.227 102.803 111.872 103.214C111.07 104.203 110.202 105.015 109.268 105.65C108.354 106.284 107.308 106.602 106.132 106.602C105.143 106.602 104.34 106.247 103.724 105.538C102.66 106.228 101.55 106.583 100.392 106.602C100.15 110.204 99.5989 113.21 98.7402 115.618C97.8816 118.044 96.6216 119.258 94.9602 119.258C93.9522 119.258 93.2056 118.894 92.7202 118.166C92.2349 117.438 91.9922 116.43 91.9922 115.142C91.9922 113.312 92.4122 111.175 93.2522 108.73C94.0922 106.303 95.3896 103.624 97.1442 100.694C97.1442 97.9684 97.1256 96.0737 97.0882 95.0097C97.0696 94.4684 97.2842 94.0391 97.7322 93.7217C98.1802 93.4044 98.7402 93.2457 99.4122 93.2457C99.8042 93.2457 100.084 93.3297 100.252 93.4977C100.439 93.6471 100.542 93.9551 100.56 94.4217C100.56 94.8884 100.57 95.2337 100.588 95.4577C101.186 94.7111 101.774 94.1791 102.352 93.8617C102.931 93.5257 103.547 93.3577 104.2 93.3577C105.246 93.3577 106.095 93.7777 106.748 94.6177C107.42 95.4577 107.756 96.5591 107.756 97.9217C107.756 98.9111 107.598 99.8724 107.28 100.806C106.963 101.739 106.524 102.588 105.964 103.354C106.356 103.466 106.683 103.522 106.944 103.522C107.56 103.522 108.148 103.298 108.708 102.85C109.268 102.402 109.987 101.655 110.864 100.61C111.088 100.348 111.34 100.218 111.62 100.218ZM100.532 103.914C101.204 103.764 101.82 103.4 102.38 102.822C102.959 102.224 103.416 101.496 103.752 100.638C104.088 99.7604 104.256 98.8457 104.256 97.8937C104.256 97.3337 104.144 96.9137 103.92 96.6337C103.696 96.3351 103.398 96.1857 103.024 96.1857C102.352 96.1857 101.54 96.8951 100.588 98.3137C100.57 99.1351 100.56 100.339 100.56 101.926C100.56 102.784 100.551 103.447 100.532 103.914ZM95.1842 116.514C95.6882 116.514 96.1082 115.412 96.4442 113.21C96.7802 111.026 96.9949 108.3 97.0882 105.034C96.2856 106.9 95.6509 108.683 95.1842 110.382C94.7176 112.08 94.4842 113.508 94.4842 114.666C94.4842 115.263 94.5589 115.72 94.7082 116.038C94.8389 116.355 94.9976 116.514 95.1842 116.514ZM113.817 91.5657C113.033 91.5657 112.445 91.3884 112.053 91.0337C111.661 90.6604 111.465 90.1471 111.465 89.4937C111.465 88.8404 111.717 88.2991 112.221 87.8697C112.743 87.4217 113.387 87.1977 114.153 87.1977C114.843 87.1977 115.403 87.3657 115.833 87.7017C116.262 88.0377 116.477 88.5137 116.477 89.1297C116.477 89.8764 116.234 90.4737 115.749 90.9217C115.263 91.3511 114.619 91.5657 113.817 91.5657ZM113.593 106.602C112.379 106.602 111.493 106.172 110.933 105.314C110.391 104.455 110.121 103.316 110.121 101.898C110.121 101.058 110.223 99.9844 110.429 98.6777C110.653 97.3524 110.933 96.1204 111.269 94.9817C111.437 94.3844 111.661 93.9737 111.941 93.7497C112.221 93.5257 112.669 93.4137 113.285 93.4137C114.237 93.4137 114.713 93.7311 114.713 94.3657C114.713 94.8324 114.535 95.9151 114.181 97.6137C113.733 99.6671 113.509 101.058 113.509 101.786C113.509 102.346 113.583 102.775 113.733 103.074C113.882 103.372 114.134 103.522 114.489 103.522C114.825 103.522 115.245 103.288 115.749 102.822C116.253 102.355 116.925 101.618 117.765 100.61C117.989 100.348 118.241 100.218 118.521 100.218C118.763 100.218 118.95 100.33 119.081 100.554C119.23 100.778 119.305 101.086 119.305 101.478C119.305 102.224 119.127 102.803 118.773 103.214C116.925 105.472 115.198 106.602 113.593 106.602ZM130.464 100.218C130.707 100.218 130.894 100.33 131.024 100.554C131.174 100.778 131.248 101.086 131.248 101.478C131.248 102.168 131.071 102.747 130.716 103.214C129.839 104.352 128.747 105.248 127.44 105.902C126.152 106.555 124.696 106.882 123.072 106.882C121.803 106.882 120.702 106.695 119.768 106.322C118.835 105.93 118.116 105.407 117.612 104.754C117.127 104.082 116.884 103.335 116.884 102.514C116.884 101.282 117.379 100.19 118.368 99.2377C119.358 98.2857 120.776 97.3711 122.624 96.4937L118.032 96.6057C117.622 96.6244 117.304 96.4844 117.08 96.1857C116.875 95.8684 116.772 95.4951 116.772 95.0657C116.772 94.6177 116.875 94.2257 117.08 93.8897C117.304 93.5351 117.603 93.3577 117.976 93.3577C118.835 93.3577 119.983 93.4231 121.42 93.5537C121.719 93.5724 122.26 93.6097 123.044 93.6657C123.847 93.7217 124.519 93.7497 125.06 93.7497C125.247 93.7497 125.602 93.6751 126.124 93.5257C126.218 93.5071 126.395 93.4604 126.656 93.3857C126.936 93.3111 127.17 93.2737 127.356 93.2737C127.655 93.2737 127.898 93.4044 128.084 93.6657C128.29 93.9271 128.392 94.3284 128.392 94.8697C128.392 95.4671 128.252 95.9337 127.972 96.2697C127.692 96.6057 127.254 96.9044 126.656 97.1657C124.958 97.8937 123.548 98.6777 122.428 99.5177C121.308 100.339 120.748 101.16 120.748 101.982C120.748 102.504 120.991 102.934 121.476 103.27C121.962 103.606 122.68 103.774 123.632 103.774C124.678 103.774 125.732 103.512 126.796 102.99C127.879 102.467 128.85 101.674 129.708 100.61C129.932 100.348 130.184 100.218 130.464 100.218ZM142.933 100.218C143.176 100.218 143.363 100.33 143.493 100.554C143.643 100.778 143.717 101.086 143.717 101.478C143.717 102.168 143.54 102.747 143.185 103.214C142.308 104.352 141.216 105.248 139.909 105.902C138.621 106.555 137.165 106.882 135.541 106.882C134.272 106.882 133.171 106.695 132.237 106.322C131.304 105.93 130.585 105.407 130.081 104.754C129.596 104.082 129.353 103.335 129.353 102.514C129.353 101.282 129.848 100.19 130.837 99.2377C131.827 98.2857 133.245 97.3711 135.093 96.4937L130.501 96.6057C130.091 96.6244 129.773 96.4844 129.549 96.1857C129.344 95.8684 129.241 95.4951 129.241 95.0657C129.241 94.6177 129.344 94.2257 129.549 93.8897C129.773 93.5351 130.072 93.3577 130.445 93.3577C131.304 93.3577 132.452 93.4231 133.889 93.5537C134.188 93.5724 134.729 93.6097 135.513 93.6657C136.316 93.7217 136.988 93.7497 137.529 93.7497C137.716 93.7497 138.071 93.6751 138.593 93.5257C138.687 93.5071 138.864 93.4604 139.125 93.3857C139.405 93.3111 139.639 93.2737 139.825 93.2737C140.124 93.2737 140.367 93.4044 140.553 93.6657C140.759 93.9271 140.861 94.3284 140.861 94.8697C140.861 95.4671 140.721 95.9337 140.441 96.2697C140.161 96.6057 139.723 96.9044 139.125 97.1657C137.427 97.8937 136.017 98.6777 134.897 99.5177C133.777 100.339 133.217 101.16 133.217 101.982C133.217 102.504 133.46 102.934 133.945 103.27C134.431 103.606 135.149 103.774 136.101 103.774C137.147 103.774 138.201 103.512 139.265 102.99C140.348 102.467 141.319 101.674 142.177 100.61C142.401 100.348 142.653 100.218 142.933 100.218ZM144.377 106.602C143.313 106.602 142.445 106.182 141.773 105.342C141.119 104.502 140.793 103.4 140.793 102.038C140.793 100.544 141.138 99.1351 141.829 97.8097C142.519 96.4657 143.434 95.3924 144.573 94.5897C145.73 93.7684 146.953 93.3577 148.241 93.3577C148.651 93.3577 148.922 93.4417 149.053 93.6097C149.202 93.7591 149.323 94.0391 149.417 94.4497C149.771 94.3751 150.163 94.3377 150.593 94.3377C151.041 94.3377 151.386 94.4497 151.629 94.6737C151.871 94.8977 151.993 95.2151 151.993 95.6257C151.993 96.0551 151.899 96.8017 151.713 97.8657C151.507 99.0044 151.349 100.096 151.237 101.142C151.125 102.168 151.069 103.326 151.069 104.614C151.069 105.323 150.919 105.836 150.621 106.154C150.341 106.452 149.874 106.602 149.221 106.602C148.586 106.602 148.11 106.452 147.793 106.154C147.494 105.836 147.345 105.332 147.345 104.642L147.373 104.194C146.794 105.799 145.795 106.602 144.377 106.602ZM145.469 103.774C145.991 103.774 146.467 103.41 146.897 102.682C147.326 101.954 147.709 100.656 148.044 98.7897L148.577 95.9617C147.811 95.9804 147.102 96.2791 146.449 96.8577C145.795 97.4177 145.273 98.1644 144.881 99.0977C144.489 100.031 144.293 101.02 144.293 102.066C144.293 102.626 144.395 103.055 144.601 103.354C144.825 103.634 145.114 103.774 145.469 103.774Z" fill="#870031"/>
<defs>
<clipPath id="clip0_9_2208">
<rect width="148" height="148" fill="white" transform="translate(7.53831 138.011) rotate(-68.8289)"/>
</clipPath>
</defs>
</svg>
