<svg xmlns="http://www.w3.org/2000/svg" xmlns:xlink="http://www.w3.org/1999/xlink"><defs>
<clipPath id="clip0_21_823">
<rect width="16" height="16" fill="white"/>
</clipPath>

<clipPath id="clip0_37_2221">
<rect width="16" height="16" fill="white"/>
</clipPath>

<clipPath id="clip0_22_988">
<rect width="16" height="16" fill="white"/>
</clipPath>
<clipPath id="clip1_22_988">
<rect width="16" height="16" fill="white" transform="translate(-0.0362549 0.309677)"/>
</clipPath>

<clipPath id="clip0_9_2208">
<rect width="148" height="148" fill="white" transform="translate(7.53831 138.011) rotate(-68.8289)"/>
</clipPath>

<clipPath id="clip0_79_14893">
<rect width="24" height="24" fill="white"/>
</clipPath>

<clipPath id="clip0_67_10341">
<rect width="16" height="16" fill="white"/>
</clipPath>

<clipPath id="clip0_67_10331">
<rect width="16" height="16" fill="white"/>
</clipPath>
</defs><symbol id="arrow" viewBox="0 0 10 6">
<path d="M1 1.00001L5 5.00001L9 1.00001" stroke="black" stroke-linecap="round" stroke-linejoin="round"/>
</symbol><symbol id="cross" viewBox="0 0 16 16">
<g clip-path="url(#clip0_21_823)">
<path d="M13.6578 1.9924L1.65781 13.9924" stroke="#565450" stroke-linecap="round" stroke-linejoin="round"/>
<path d="M1.65781 1.9924L13.6578 13.9924" stroke="#565450" stroke-linecap="round" stroke-linejoin="round"/>
</g>

</symbol><symbol id="double-arrow" viewBox="0 0 16 16">
<g clip-path="url(#clip0_37_2221)">
<path d="M9 13L14 8L9 3" stroke="#565450" stroke-linecap="round" stroke-linejoin="round"/>
<path d="M2 13L7 8L2 3" stroke="#565450" stroke-linecap="round" stroke-linejoin="round"/>
</g>

</symbol><symbol id="icon-bin" viewBox="0 0 16 22">
<path d="M15 5V19C15 19.5304 14.7893 20.0391 14.4142 20.4142C14.0391 20.7893 13.5304 21 13 21H3C2.46957 21 1.96086 20.7893 1.58579 20.4142C1.21071 20.0391 1 19.5304 1 19V5M4 5V3C4 2.46957 4.21071 1.96086 4.58579 1.58579C4.96086 1.21071 5.46957 1 6 1H10C10.5304 1 11.0391 1.21071 11.4142 1.58579C11.7893 1.96086 12 2.46957 12 3V5" stroke="#565450" stroke-linecap="round" stroke-linejoin="round"/>
</symbol><symbol id="icon-cart" viewBox="0 0 14 16">
<path d="M1 3.99999L3 1.33333H11L13 3.99999M1 3.99999V13.3333C1 13.6869 1.14048 14.0261 1.39052 14.2761C1.64057 14.5262 1.97971 14.6667 2.33333 14.6667H11.6667C12.0203 14.6667 12.3594 14.5262 12.6095 14.2761C12.8595 14.0261 13 13.6869 13 13.3333V3.99999M1 3.99999H13M9.66667 6.66666C9.66667 7.37391 9.38572 8.05218 8.88562 8.55228C8.38552 9.05238 7.70724 9.33333 7 9.33333C6.29276 9.33333 5.61448 9.05238 5.11438 8.55228C4.61428 8.05218 4.33333 7.37391 4.33333 6.66666" stroke="white" stroke-linecap="round" stroke-linejoin="round"/>
</symbol><symbol id="icon-checkmark" viewBox="0 0 18 13">
<path d="M17 1L6 12L1 7" stroke="#565450" stroke-linecap="round" stroke-linejoin="round"/>
</symbol><symbol id="icon-close" viewBox="0 0 20 20"><path d="M.293 18.291a1 1 0 101.414 1.414L10 11.413l8.292 8.292a1 1 0 101.414-1.414l-8.292-8.292 8.292-8.292A1 1 0 1018.291.293L9.999 8.585 1.707.293A1 1 0 10.293 1.707L8.585 10 .293 18.291z"/></symbol><symbol id="icon-coffee" viewBox="0 0 24 24">
<path d="M18 8H19C20.0609 8 21.0783 8.42143 21.8284 9.17157C22.5786 9.92172 23 10.9391 23 12C23 13.0609 22.5786 14.0783 21.8284 14.8284C21.0783 15.5786 20.0609 16 19 16H18" stroke="#565450" stroke-linecap="round" stroke-linejoin="round"/>
<path d="M2 8H18V17C18 18.0609 17.5786 19.0783 16.8284 19.8284C16.0783 20.5786 15.0609 21 14 21H6C4.93913 21 3.92172 20.5786 3.17157 19.8284C2.42143 19.0783 2 18.0609 2 17V8Z" stroke="#565450" stroke-linecap="round" stroke-linejoin="round"/>
<path d="M6 1V4" stroke="#565450" stroke-linecap="round" stroke-linejoin="round"/>
<path d="M10 1V4" stroke="#565450" stroke-linecap="round" stroke-linejoin="round"/>
<path d="M14 1V4" stroke="#565450" stroke-linecap="round" stroke-linejoin="round"/>
</symbol><symbol id="icon-email">
<path d="M27.5584 10H12.4457C11.0966 10 10 11.441 10 13.2137V26.7863C10 28.559 11.0966 30 12.4457 30H27.5543C28.9034 30 30 28.559 30 26.7863V13.2191C30.0041 11.4464 28.9075 10 27.5584 10ZM28.8868 26.7863C28.8868 27.7488 28.2909 28.5318 27.5584 28.5318H12.4457C11.7132 28.5318 11.1173 27.7488 11.1173 26.7863V13.2191C11.1173 12.2567 11.7132 11.4736 12.4457 11.4736H27.5543C28.2868 11.4736 28.8827 12.2567 28.8827 13.2191V26.7863H28.8868Z" fill="#00B2FF"/>
<path d="M22.6133 19.8314L27.5046 14.0674C27.7322 13.7955 27.7529 13.3333 27.546 13.0288C27.3391 12.7298 26.9873 12.7026 26.7556 12.9745L20.0103 20.9299L18.6944 19.3855C18.6902 19.3801 18.6861 19.3747 18.6861 19.3692C18.6571 19.3312 18.6282 19.2985 18.595 19.2659L13.2402 12.969C13.0085 12.6971 12.6567 12.7243 12.4498 13.0288C12.2429 13.3333 12.2636 13.7955 12.4953 14.0674L17.4446 19.8804L12.516 25.9435C12.2925 26.2208 12.2801 26.683 12.4912 26.9821C12.6029 27.1343 12.7519 27.2159 12.9009 27.2159C13.0374 27.2159 13.174 27.1506 13.2816 27.0201L18.2847 20.87L19.642 22.4633C19.7496 22.5884 19.882 22.6482 20.0145 22.6482C20.1469 22.6482 20.2834 22.5829 20.3869 22.4579L21.7815 20.8157L26.7556 27.0256C26.8632 27.1615 27.0039 27.2268 27.1405 27.2268C27.2894 27.2268 27.4343 27.1506 27.546 26.9984C27.7571 26.7047 27.7488 26.2371 27.5253 25.9598L22.6133 19.8314Z" fill="#00B2FF"/>
</symbol><symbol id="icon-geo" viewBox="0 0 9 12">
<mask id="path-1-inside-1_81_16390" fill="white">
<path d="M4.31271 11.1667C4.24473 11.1666 4.17789 11.1492 4.11857 11.116C2.95475 10.4669 1.98543 9.51874 1.31081 8.36954C0.636185 7.22033 0.280751 5.91179 0.281251 4.5792C0.281251 4.52474 0.281781 4.47046 0.282842 4.41635C0.309365 3.2101 0.758395 2.19428 1.58246 1.47896C2.3113 0.847714 3.28071 0.5 4.31271 0.5C5.34471 0.5 6.31386 0.847714 7.04191 1.47896C7.86676 2.19507 8.31659 3.2101 8.34152 4.41635C8.34152 4.4694 8.34338 4.52483 8.34338 4.5792C8.3441 5.93241 7.97742 7.26043 7.28247 8.42156C6.60789 9.54625 5.65107 10.4751 4.50686 11.116C4.44754 11.1492 4.38069 11.1666 4.31271 11.1667ZM4.31271 1.29568C3.47221 1.29568 2.68793 1.57417 2.10469 2.08023C1.45409 2.6441 1.09921 3.45782 1.07853 4.43333C1.07853 4.4816 1.07693 4.5304 1.07693 4.5792C1.07654 5.73208 1.37429 6.86546 1.94126 7.86929C2.50823 8.87311 3.32517 9.71325 4.31271 10.3081C5.25128 9.74065 6.03689 8.95232 6.6011 8.01178C7.2217 6.9744 7.54914 5.78805 7.54849 4.5792C7.54849 4.5304 7.54849 4.4816 7.5469 4.43333C7.52595 3.45782 7.17107 2.6441 6.52073 2.08023C5.93723 1.57417 5.15322 1.29568 4.31271 1.29568Z"/>
</mask>
<path d="M4.31271 11.1667C4.24473 11.1666 4.17789 11.1492 4.11857 11.116C2.95475 10.4669 1.98543 9.51874 1.31081 8.36954C0.636185 7.22033 0.280751 5.91179 0.281251 4.5792C0.281251 4.52474 0.281781 4.47046 0.282842 4.41635C0.309365 3.2101 0.758395 2.19428 1.58246 1.47896C2.3113 0.847714 3.28071 0.5 4.31271 0.5C5.34471 0.5 6.31386 0.847714 7.04191 1.47896C7.86676 2.19507 8.31659 3.2101 8.34152 4.41635C8.34152 4.4694 8.34338 4.52483 8.34338 4.5792C8.3441 5.93241 7.97742 7.26043 7.28247 8.42156C6.60789 9.54625 5.65107 10.4751 4.50686 11.116C4.44754 11.1492 4.38069 11.1666 4.31271 11.1667ZM4.31271 1.29568C3.47221 1.29568 2.68793 1.57417 2.10469 2.08023C1.45409 2.6441 1.09921 3.45782 1.07853 4.43333C1.07853 4.4816 1.07693 4.5304 1.07693 4.5792C1.07654 5.73208 1.37429 6.86546 1.94126 7.86929C2.50823 8.87311 3.32517 9.71325 4.31271 10.3081C5.25128 9.74065 6.03689 8.95232 6.6011 8.01178C7.2217 6.9744 7.54914 5.78805 7.54849 4.5792C7.54849 4.5304 7.54849 4.4816 7.5469 4.43333C7.52595 3.45782 7.17107 2.6441 6.52073 2.08023C5.93723 1.57417 5.15322 1.29568 4.31271 1.29568Z" fill="#565450"/>
<path d="M4.31271 11.1667L4.31081 17.1667L4.31461 17.1667L4.31271 11.1667ZM4.11857 11.116L7.04847 5.88L7.04114 5.87592L4.11857 11.116ZM0.281251 4.5792L6.28125 4.58146V4.5792H0.281251ZM0.282842 4.41635L-5.71571 4.28446L-5.71587 4.29159L-5.71601 4.29873L0.282842 4.41635ZM1.58246 1.47896L-2.34562 -3.05649L-2.35068 -3.0521L1.58246 1.47896ZM7.04191 1.47896L10.9754 -3.05181L10.9724 -3.05436L7.04191 1.47896ZM8.34152 4.41635H14.3415V4.35436L14.3402 4.29237L8.34152 4.41635ZM8.34338 4.5792H2.34338L2.34338 4.58239L8.34338 4.5792ZM7.28247 8.42156L12.4279 11.5077L12.4308 11.5029L7.28247 8.42156ZM4.50686 11.116L7.43676 16.352L7.43904 16.3507L4.50686 11.116ZM2.10469 2.08023L6.03435 6.6143L6.03686 6.61212L2.10469 2.08023ZM1.07853 4.43333L-4.92013 4.30611L-4.92147 4.36971V4.43333H1.07853ZM1.07693 4.5792L7.07693 4.58126V4.5792H1.07693ZM4.31271 10.3081L1.21678 15.4477L4.31848 17.3161L7.41709 15.4426L4.31271 10.3081ZM6.6011 8.01178L11.7463 11.0983L11.75 11.0921L6.6011 8.01178ZM7.54849 4.5792H1.54849L1.54849 4.5824L7.54849 4.5792ZM7.5469 4.43333L1.54828 4.56217L1.54902 4.5966L1.55016 4.63102L7.5469 4.43333ZM6.52073 2.08023L2.58958 6.613L2.59017 6.61351L6.52073 2.08023ZM4.31461 5.16667C5.27186 5.16697 6.21308 5.41255 7.04846 5.88001L1.18867 16.352C2.1427 16.8859 3.2176 17.1663 4.31081 17.1667L4.31461 5.16667ZM7.04114 5.87592C6.81068 5.74738 6.61872 5.55962 6.48513 5.33204L-3.86352 11.407C-2.64787 13.4779 -0.901172 15.1864 1.19599 16.3561L7.04114 5.87592ZM6.48513 5.33204C6.35154 5.10447 6.28115 4.84534 6.28125 4.58146L-5.71875 4.57695C-5.71965 6.97824 -5.07917 9.33619 -3.86352 11.407L6.48513 5.33204ZM6.28125 4.5792C6.28125 4.5637 6.2814 4.54863 6.28169 4.53398L-5.71601 4.29873C-5.71784 4.39229 -5.71875 4.48579 -5.71875 4.5792H6.28125ZM6.28139 4.54825C6.27903 4.65554 6.25353 4.89049 6.12073 5.19071C5.98404 5.49973 5.77318 5.78641 5.51559 6.01001L-2.35068 -3.0521C-4.59768 -1.10161 -5.65642 1.58787 -5.71571 4.28446L6.28139 4.54825ZM5.51053 6.0144C5.06895 6.39684 4.61444 6.5 4.31271 6.5V-5.5C1.94698 -5.5 -0.446343 -4.70142 -2.34562 -3.05649L5.51053 6.0144ZM4.31271 6.5C4.01126 6.5 3.55504 6.39694 3.11138 6.01227L10.9724 -3.05436C9.07268 -4.70151 6.67817 -5.5 4.31271 -5.5V6.5ZM3.10844 6.00972C2.85375 5.78861 2.64271 5.50319 2.50512 5.19235C2.37129 4.88999 2.34511 4.65174 2.3428 4.54034L14.3402 4.29237C14.2843 1.58456 13.2192 -1.10379 10.9754 -3.05181L3.10844 6.00972ZM2.34152 4.41635C2.34152 4.46367 2.34193 4.50446 2.34231 4.53386C2.34267 4.56192 2.34313 4.58815 2.34332 4.59934C2.34358 4.61482 2.34359 4.61587 2.34358 4.61467C2.34354 4.61221 2.34338 4.59895 2.34338 4.5792H14.3434C14.3434 4.53227 14.343 4.4917 14.3426 4.46189C14.3422 4.43335 14.3418 4.40703 14.3416 4.39522C14.3413 4.37913 14.3413 4.37816 14.3413 4.37921C14.3413 4.38159 14.3415 4.39556 14.3415 4.41635H2.34152ZM2.34338 4.58239C2.34352 4.84928 2.2712 5.11121 2.13414 5.34021L12.4308 11.5029C13.6836 9.40966 14.3447 7.01555 14.3434 4.57602L2.34338 4.58239ZM2.13704 5.33537C2.00036 5.56324 1.80651 5.75143 1.57468 5.88128L7.43904 16.3507C9.49563 15.1988 11.2154 13.5293 12.4279 11.5077L2.13704 5.33537ZM1.57696 5.88001C2.41234 5.41255 3.35356 5.16697 4.31081 5.16667L4.31461 17.1667C5.40782 17.1663 6.48273 16.8859 7.43676 16.352L1.57696 5.88001ZM4.31271 -4.70432C2.16686 -4.70432 -0.0521522 -3.99206 -1.82748 -2.45166L6.03686 6.61212C5.42801 7.1404 4.77755 7.29568 4.31271 7.29568V-4.70432ZM-1.82496 -2.45385C-3.93454 -0.625489 -4.86879 1.88535 -4.92013 4.30611L7.07718 4.56054C7.07282 4.76586 7.02917 5.10184 6.85516 5.50085C6.67651 5.91051 6.39695 6.30003 6.03435 6.6143L-1.82496 -2.45385ZM-4.92147 4.43333C-4.92147 4.41317 -4.92131 4.39925 -4.92127 4.39581C-4.92124 4.39373 -4.92123 4.39365 -4.92147 4.40799C-4.92164 4.41825 -4.92204 4.44267 -4.92237 4.4692C-4.92271 4.49706 -4.92307 4.53508 -4.92307 4.5792H7.07693C7.07693 4.59893 7.07678 4.61255 7.07673 4.61602C7.07671 4.61817 7.0767 4.61822 7.07693 4.60414C7.07709 4.59415 7.0775 4.56977 7.07782 4.54344C7.07816 4.51574 7.07853 4.47763 7.07853 4.43333H-4.92147ZM-4.92307 4.57715C-4.92382 6.76471 -4.35884 8.91529 -3.28302 10.82L7.16554 4.91854C7.10742 4.81563 7.07689 4.69945 7.07693 4.58126L-4.92307 4.57715ZM-3.28302 10.82C-2.20719 12.7248 -0.657074 14.3189 1.21678 15.4477L7.40864 5.16855C7.3074 5.10757 7.22366 5.02144 7.16554 4.91854L-3.28302 10.82ZM7.41709 15.4426C9.1927 14.369 10.6789 12.8777 11.7463 11.0983L1.45588 4.92525C1.39485 5.02698 1.30987 5.11226 1.20833 5.17365L7.41709 15.4426ZM11.75 11.0921C12.9281 9.12283 13.5497 6.87077 13.5485 4.57601L1.54849 4.5824C1.54856 4.70533 1.51526 4.82597 1.45215 4.93147L11.75 11.0921ZM13.5485 4.5792C13.5485 4.54767 13.549 4.39945 13.5436 4.23563L1.55016 4.63102C1.54881 4.59018 1.54855 4.562 1.54849 4.55511C1.54846 4.55124 1.54847 4.55046 1.54848 4.55484C1.54849 4.5599 1.54849 4.56598 1.54849 4.5792H13.5485ZM13.5455 4.30448C13.4935 1.88502 12.5598 -0.624883 10.4513 -2.45305L2.59017 6.61351C2.2277 6.29923 1.94847 5.90995 1.77006 5.50085C1.5963 5.1024 1.55268 4.767 1.54828 4.56217L13.5455 4.30448ZM10.4519 -2.45255C8.67728 -3.99161 6.45935 -4.70432 4.31271 -4.70432V7.29568C3.84708 7.29568 3.19718 7.13996 2.58958 6.613L10.4519 -2.45255Z" fill="#565450" mask="url(#path-1-inside-1_81_16390)"/>
<mask id="path-3-inside-2_81_16390" fill="white">
<path d="M4.32307 6.52773C3.8283 6.52773 3.34463 6.38102 2.93324 6.10613C2.52185 5.83125 2.20121 5.44055 2.01187 4.98344C1.82253 4.52632 1.77299 4.02333 1.86951 3.53806C1.96604 3.05279 2.20429 2.60705 2.55415 2.25719C2.90401 1.90733 3.34976 1.66907 3.83503 1.57254C4.3203 1.47602 4.82329 1.52556 5.2804 1.7149C5.73752 1.90424 6.12822 2.22488 6.4031 2.63627C6.67798 3.04767 6.8247 3.53133 6.8247 4.02611C6.824 4.68936 6.56021 5.32525 6.09122 5.79425C5.62222 6.26324 4.98633 6.52703 4.32307 6.52773ZM4.32307 2.32042C3.98566 2.32042 3.65582 2.42048 3.37527 2.60795C3.09472 2.79541 2.87607 3.06186 2.74696 3.37359C2.61785 3.68533 2.58408 4.02835 2.64992 4.35928C2.71577 4.69021 2.87827 4.99418 3.11688 5.23275C3.35549 5.47132 3.65948 5.63377 3.99042 5.69957C4.32136 5.76536 4.66438 5.73154 4.97609 5.60238C5.28781 5.47322 5.55422 5.25453 5.74164 4.97395C5.92906 4.69337 6.02907 4.36352 6.02902 4.02611C6.02824 3.574 5.84823 3.14064 5.52844 2.82105C5.20865 2.50146 4.77518 2.32171 4.32307 2.32122V2.32042Z"/>
</mask>
<path d="M4.32307 6.52773C3.8283 6.52773 3.34463 6.38102 2.93324 6.10613C2.52185 5.83125 2.20121 5.44055 2.01187 4.98344C1.82253 4.52632 1.77299 4.02333 1.86951 3.53806C1.96604 3.05279 2.20429 2.60705 2.55415 2.25719C2.90401 1.90733 3.34976 1.66907 3.83503 1.57254C4.3203 1.47602 4.82329 1.52556 5.2804 1.7149C5.73752 1.90424 6.12822 2.22488 6.4031 2.63627C6.67798 3.04767 6.8247 3.53133 6.8247 4.02611C6.824 4.68936 6.56021 5.32525 6.09122 5.79425C5.62222 6.26324 4.98633 6.52703 4.32307 6.52773ZM4.32307 2.32042C3.98566 2.32042 3.65582 2.42048 3.37527 2.60795C3.09472 2.79541 2.87607 3.06186 2.74696 3.37359C2.61785 3.68533 2.58408 4.02835 2.64992 4.35928C2.71577 4.69021 2.87827 4.99418 3.11688 5.23275C3.35549 5.47132 3.65948 5.63377 3.99042 5.69957C4.32136 5.76536 4.66438 5.73154 4.97609 5.60238C5.28781 5.47322 5.55422 5.25453 5.74164 4.97395C5.92906 4.69337 6.02907 4.36352 6.02902 4.02611C6.02824 3.574 5.84823 3.14064 5.52844 2.82105C5.20865 2.50146 4.77518 2.32171 4.32307 2.32122V2.32042Z" fill="#565450"/>
<path d="M4.32307 6.52773V12.5277L4.32942 12.5277L4.32307 6.52773ZM6.8247 4.02611L12.8247 4.03246V4.02611H6.8247ZM4.32307 2.32042H10.3231V-3.67957H4.32307V2.32042ZM6.02902 4.02611L12.029 4.02517L12.029 4.01586L6.02902 4.02611ZM4.32307 2.32122H-1.67693V8.31471L4.31656 8.32122L4.32307 2.32122ZM4.32307 0.527734C5.01498 0.527734 5.69136 0.732909 6.26666 1.11732L-0.40018 11.095C0.997907 12.0291 2.64161 12.5277 4.32307 12.5277V0.527734ZM6.26666 1.11732C6.84197 1.50172 7.29036 2.04809 7.55514 2.68734L-3.53141 7.27954C-2.88794 8.83301 -1.79827 10.1608 -0.40018 11.095L6.26666 1.11732ZM7.55514 2.68734C7.81993 3.32658 7.88921 4.02999 7.75422 4.7086L-4.0152 2.36752C-4.34324 4.01667 -4.17488 5.72607 -3.53141 7.27954L7.55514 2.68734ZM7.75422 4.7086C7.61924 5.38722 7.28605 6.01057 6.79679 6.49983L-1.68849 -1.98545C-2.87746 -0.796481 -3.68716 0.718364 -4.0152 2.36752L7.75422 4.7086ZM6.79679 6.49983C6.30754 6.98908 5.68419 7.32227 5.00557 7.45726L2.66449 -4.31217C1.01533 -3.98413 -0.499516 -3.17443 -1.68849 -1.98545L6.79679 6.49983ZM5.00557 7.45726C4.32695 7.59224 3.62355 7.52296 2.9843 7.25818L7.5765 -3.82838C6.02303 -4.47184 4.31364 -4.6402 2.66449 -4.31217L5.00557 7.45726ZM2.9843 7.25818C2.34506 6.99339 1.79869 6.545 1.41428 5.9697L11.3919 -0.697147C10.4577 -2.09523 9.12998 -3.18491 7.5765 -3.82838L2.9843 7.25818ZM1.41428 5.9697C1.02988 5.39439 0.8247 4.71802 0.8247 4.02611H12.8247C12.8247 2.34464 12.3261 0.70094 11.3919 -0.697147L1.41428 5.9697ZM0.824703 4.01975C0.825683 3.09392 1.1939 2.20628 1.84857 1.55161L10.3339 10.0369C11.9265 8.44423 12.8223 6.28481 12.8247 4.03246L0.824703 4.01975ZM1.84857 1.55161C2.50324 0.896941 3.39088 0.528717 4.31672 0.527737L4.32942 12.5277C6.58178 12.5253 8.7412 11.6295 10.3339 10.0369L1.84857 1.55161ZM4.32307 -3.67957C2.79893 -3.67957 1.30902 -3.2276 0.0417529 -2.38081L6.70879 7.5967C6.00262 8.06857 5.17238 8.32043 4.32307 8.32043L4.32307 -3.67957ZM0.0417529 -2.38081C-1.22551 -1.53401 -2.2132 -0.330432 -2.79641 1.07771L8.29032 5.66948C7.96534 6.45415 7.41496 7.12483 6.70879 7.5967L0.0417529 -2.38081ZM-2.79641 1.07771C-3.37962 2.48586 -3.53215 4.03533 -3.23472 5.53017L8.53457 3.1884C8.70031 4.02138 8.61531 4.88481 8.29032 5.66948L-2.79641 1.07771ZM-3.23472 5.53017C-2.93729 7.02501 -2.20325 8.39807 -1.12543 9.47572L7.35919 0.989779C7.95979 1.59029 8.36883 2.35541 8.53457 3.1884L-3.23472 5.53017ZM-1.12543 9.47572C-0.0476179 10.5534 1.32556 11.2872 2.82045 11.5844L5.16039 -0.185257C5.9934 -0.0196444 6.75859 0.389274 7.35919 0.989779L-1.12543 9.47572ZM2.82045 11.5844C4.31534 11.8816 5.86479 11.7288 7.27284 11.1454L2.67935 0.0593724C3.46397 -0.265736 4.32738 -0.350869 5.16039 -0.185257L2.82045 11.5844ZM7.27284 11.1454C8.6809 10.562 9.88432 9.57409 10.7309 8.30669L0.752371 1.64121C1.22413 0.934965 1.89472 0.384482 2.67935 0.0593724L7.27284 11.1454ZM10.7309 8.30669C11.5775 7.03929 12.0293 5.54931 12.029 4.02517L0.0290166 4.02704C0.0288845 3.17773 0.280612 2.34745 0.752371 1.64121L10.7309 8.30669ZM12.029 4.01586C12.0255 1.97536 11.2131 0.0194979 9.76976 -1.42291L1.28712 7.06501C0.483392 6.26178 0.0309658 5.17263 0.0290253 4.03635L12.029 4.01586ZM9.76976 -1.42291C8.32646 -2.86532 6.37009 -3.67656 4.32959 -3.67878L4.31656 8.32122C3.18027 8.31998 2.09084 7.86823 1.28712 7.06501L9.76976 -1.42291ZM10.3231 2.32122V2.32042H-1.67693V2.32122H10.3231Z" fill="#565450" mask="url(#path-3-inside-2_81_16390)"/>
</symbol><symbol id="icon-phone" viewBox="0 0 16 16">
<g clip-path="url(#clip0_22_988)">
<g clip-path="url(#clip1_22_988)">
<path d="M14.6304 11.5897V13.5897C14.6312 13.7753 14.5931 13.9591 14.5188 14.1292C14.4444 14.2994 14.3353 14.4521 14.1985 14.5776C14.0617 14.7031 13.9001 14.7987 13.7243 14.8581C13.5484 14.9176 13.362 14.9397 13.1771 14.923C11.1256 14.7001 9.15508 13.9991 7.42375 12.8763C5.81297 11.8528 4.44731 10.4871 3.42375 8.87634C2.29707 7.13715 1.59591 5.15701 1.37708 3.09634C1.36043 2.91199 1.38233 2.72618 1.44142 2.55076C1.5005 2.37533 1.59547 2.21414 1.72026 2.07742C1.84506 1.94071 1.99695 1.83148 2.16628 1.75669C2.3356 1.6819 2.51865 1.64318 2.70375 1.64301H4.70375C5.02729 1.63982 5.34095 1.75439 5.58626 1.96536C5.83157 2.17633 5.9918 2.46931 6.03708 2.78968C6.1215 3.42972 6.27805 4.05816 6.50375 4.66301C6.59345 4.90162 6.61286 5.16095 6.55969 5.41026C6.50652 5.65957 6.38299 5.88842 6.20375 6.06968L5.35709 6.91634C6.30612 8.58537 7.68805 9.96731 9.35709 10.9163L10.2038 10.0697C10.385 9.89043 10.6139 9.76691 10.8632 9.71374C11.1125 9.66057 11.3718 9.67998 11.6104 9.76968C12.2153 9.99538 12.8437 10.1519 13.4838 10.2363C13.8076 10.282 14.1034 10.4451 14.3148 10.6947C14.5262 10.9442 14.6385 11.2627 14.6304 11.5897Z" stroke="#565450" stroke-linecap="round" stroke-linejoin="round"/>
</g>
</g>

</symbol><symbol id="icon-truck" viewBox="0 0 24 24">
<path d="M16 3H1V16H16V3Z" stroke="#4D734F" stroke-linecap="round" stroke-linejoin="round"/>
<path d="M16 8H20L23 11V16H16V8Z" stroke="#4D734F" stroke-linecap="round" stroke-linejoin="round"/>
<path d="M5.5 21C6.88071 21 8 19.8807 8 18.5C8 17.1193 6.88071 16 5.5 16C4.11929 16 3 17.1193 3 18.5C3 19.8807 4.11929 21 5.5 21Z" stroke="#4D734F" stroke-linecap="round" stroke-linejoin="round"/>
<path d="M18.5 21C19.8807 21 21 19.8807 21 18.5C21 17.1193 19.8807 16 18.5 16C17.1193 16 16 17.1193 16 18.5C16 19.8807 17.1193 21 18.5 21Z" stroke="#4D734F" stroke-linecap="round" stroke-linejoin="round"/>
</symbol><symbol id="icon-user-check" viewBox="0 0 16 16">
<path d="M10.667 14V12.6667C10.667 11.9594 10.386 11.2811 9.88594 10.781C9.38585 10.281 8.70757 10 8.00033 10H3.33366C2.62641 10 1.94814 10.281 1.44804 10.781C0.947944 11.2811 0.666992 11.9594 0.666992 12.6667V14" stroke="#4D734F" stroke-linecap="round" stroke-linejoin="round"/>
<path d="M5.66667 7.33333C7.13943 7.33333 8.33333 6.13943 8.33333 4.66667C8.33333 3.19391 7.13943 2 5.66667 2C4.19391 2 3 3.19391 3 4.66667C3 6.13943 4.19391 7.33333 5.66667 7.33333Z" stroke="#4D734F" stroke-linecap="round" stroke-linejoin="round"/>
<path d="M11.333 7.33333L12.6663 8.66667L15.333 6" stroke="#4D734F" stroke-linecap="round" stroke-linejoin="round"/>
</symbol><symbol id="icon-user" viewBox="0 0 16 16">
<path d="M13.3333 14V12.6667C13.3333 11.9594 13.0524 11.2811 12.5523 10.781C12.0522 10.281 11.3739 10 10.6667 10H5.33332C4.62608 10 3.9478 10.281 3.4477 10.781C2.94761 11.2811 2.66666 11.9594 2.66666 12.6667V14" stroke="black" stroke-linecap="round" stroke-linejoin="round"/>
<path d="M8.00001 7.33333C9.47277 7.33333 10.6667 6.13943 10.6667 4.66667C10.6667 3.19391 9.47277 2 8.00001 2C6.52725 2 5.33334 3.19391 5.33334 4.66667C5.33334 6.13943 6.52725 7.33333 8.00001 7.33333Z" stroke="black" stroke-linecap="round" stroke-linejoin="round"/>
</symbol><symbol id="logo-edited" viewBox="0 0 199 192">
<g clip-path="url(#clip0_9_2208)">
<path d="M82.9702 41.756C73.0327 52.2874 65.7458 64.5553 60.1408 79.0275C54.5357 93.4998 51.4903 108.567 51.7878 121.949C51.8338 124.472 52.6207 127.002 55.9928 126.699C58.7316 126.455 129.813 122.44 155.413 120.371C156.277 120.302 157.105 119.991 157.8 119.473C158.496 118.955 159.031 118.251 159.344 117.442C159.657 116.633 159.736 115.753 159.571 114.902C159.406 114.05 159.004 113.263 158.411 112.63L89.2899 41.206C87.763 39.6258 85.2328 39.3557 82.9702 41.756Z" fill="#D9A404"/>
<path fill-rule="evenodd" clip-rule="evenodd" d="M45.4576 122.078C45.14 107.703 48.4004 91.8099 54.2366 76.7409C60.0829 61.6457 67.77 48.6398 78.3629 37.4131C80.3975 35.2547 83.0992 33.7582 86.2058 33.66C89.2893 33.5625 91.9763 34.8762 93.8397 36.8029C93.8409 36.8041 93.842 36.8053 93.8432 36.8065L162.998 108.265L163.034 108.303C164.441 109.806 165.395 111.676 165.787 113.697C166.178 115.718 165.992 117.809 165.248 119.729C164.504 121.649 163.234 123.32 161.583 124.55C159.933 125.78 157.969 126.519 155.917 126.683C143.04 127.723 118.805 129.248 97.5133 130.539C88.0654 131.113 79.1788 131.641 72.0952 132.062C71.1858 132.116 70.306 132.168 69.4586 132.219C65.7333 132.44 62.6363 132.625 60.3856 132.762C59.2596 132.83 58.351 132.887 57.6837 132.929C57.3497 132.951 57.082 132.968 56.8807 132.982C56.7801 132.989 56.7007 132.995 56.6408 132.999C56.586 133.003 56.5607 133.005 56.556 133.006C56.5551 133.006 56.555 133.006 56.5555 133.006C52.9612 133.327 49.5367 132.05 47.4211 128.964C45.731 126.499 45.4883 123.703 45.4576 122.078ZM58.0995 120.216C60.9517 120.039 65.8442 119.748 71.9911 119.383C79.0004 118.966 87.6406 118.452 96.7466 117.9C116.186 116.72 137.927 115.356 151.26 114.345L86.4214 47.3465C77.7201 56.907 71.1837 68.0461 66.045 81.3142C60.9015 94.5949 58.0881 108.21 58.0995 120.216ZM58.1654 122.4C58.1653 122.4 58.1652 122.399 58.1651 122.399C58.1678 122.409 58.1676 122.41 58.1654 122.4Z" fill="#870031"/>
<path d="M75.3813 29.0152C64.3926 40.9002 53.9013 56.7193 47.2022 74.0165C40.5031 91.3137 37.3523 109.678 37.543 126.234C37.5709 127.699 37.8474 130.53 40.1072 130.658L47.6193 130.567C50.2472 130.345 50.7348 129.086 51.4019 127.364C51.5887 126.881 51.5802 126.103 51.5742 125.174C51.5587 109.395 54.4631 93.7495 60.1408 79.0275C66.0663 63.7277 75.3715 49.306 84.8889 39.1389C85.6411 38.3173 86.0601 37.8597 86.2366 37.4041C86.9235 35.6305 87.9105 34.8348 85.6191 32.5152L80.1483 27.3679C78.7408 26.1997 76.7108 27.5834 75.3813 29.0152Z" fill="#D9A404"/>
<path fill-rule="evenodd" clip-rule="evenodd" d="M31.2119 126.307C31.0118 108.94 34.3093 89.7747 41.2981 71.7298C48.3109 53.6226 59.2528 37.1326 70.7324 24.7167L70.737 24.7117L70.7416 24.7068C71.7039 23.6704 73.2213 22.2969 75.1569 21.4337C77.1558 20.5424 80.8884 19.7537 84.192 22.4957L84.3436 22.6214L90.0422 27.9831L90.1236 28.0655C91.6966 29.6579 93.5867 32.1343 93.363 35.5751C93.2691 37.019 92.8101 38.1523 92.578 38.6976C92.3678 39.1916 92.3045 39.3192 92.2647 39.3994C92.2313 39.4668 92.2144 39.5008 92.1408 39.6907C91.7081 40.808 91.094 41.6289 90.7088 42.1069C90.3584 42.5418 89.9418 42.9964 89.6238 43.3435L89.5353 43.4401L89.5114 43.4657C80.5541 53.0345 71.6824 66.7601 66.0467 81.3097C60.6533 95.2964 57.8932 110.16 57.9058 125.15C57.906 125.176 57.9061 125.202 57.9063 125.229C57.9091 125.627 57.9133 126.223 57.8823 126.785C57.8527 127.323 57.7703 128.452 57.3061 129.651C57.2898 129.693 57.271 129.743 57.2494 129.8C56.9786 130.519 56.2759 132.385 54.8204 133.906C52.91 135.902 50.4893 136.679 48.1527 136.876L47.9249 136.896L39.9662 136.992L39.7487 136.98C35.2229 136.723 32.9551 133.46 32.0923 131.255C31.3094 129.256 31.2296 127.243 31.2126 126.355L31.2122 126.331L31.2119 126.307ZM43.8676 124.281L45.2449 124.264C45.3399 108.015 48.3845 91.9151 54.2333 76.7492L54.235 76.745L54.2366 76.7408C60.3134 61.0504 69.7573 46.2512 79.5929 35.5386L78.7373 34.7336C68.7126 45.916 59.2292 60.4941 53.1065 76.3031C46.951 92.1967 43.9362 109.026 43.8676 124.281ZM80.9412 33.7011C80.9412 33.7011 80.9372 33.7129 80.9263 33.7385Z" fill="#870031"/>
<path d="M87.9621 109.642C89.8072 104.878 87.441 99.5202 82.6771 97.6752C77.9133 95.8302 72.5558 98.1964 70.7108 102.96C68.8658 107.724 71.232 113.082 75.9958 114.927C80.7596 116.772 86.1171 114.405 87.9621 109.642Z" fill="#F2EDD5"/>
<path d="M105.638 76.8092C107.483 72.0453 105.117 66.6878 100.353 64.8428C95.5889 62.9978 90.2314 65.364 88.3863 70.1278C86.5413 74.8916 88.9075 80.2492 93.6713 82.0942C98.4352 83.9392 103.793 81.573 105.638 76.8092Z" fill="#C0123C"/>
<path d="M129.146 105.753C130.991 100.989 128.625 95.6316 123.861 93.7866C119.097 91.9415 113.74 94.3077 111.895 99.0716C110.05 103.835 112.416 109.193 117.18 111.038C121.944 112.883 127.301 110.517 129.146 105.753Z" fill="#F2EDD5"/>
<path d="M91 133.462C91 143.955 82.4934 152.462 72 152.462C61.5066 152.462 53 143.955 53 133.462C53 122.968 61.5066 114.462 72 114.462C82.4934 114.462 91 122.968 91 133.462Z" fill="#870031"/>
<path d="M147 133.462C147 143.955 138.493 152.462 128 152.462C117.507 152.462 109 143.955 109 133.462C109 122.968 117.507 114.462 128 114.462C138.493 114.462 147 122.968 147 133.462Z" fill="#870031"/>
</g>
<rect y="70" width="186" height="43" fill="white"/>
<path d="M49.4073 89.7737C49.4073 91.3604 48.9966 92.8164 48.1753 94.1417C47.3539 95.4671 46.1593 96.5497 44.5913 97.3897C43.0233 98.2297 41.1566 98.7244 38.9913 98.8737L37.7873 105.622C37.3206 108.216 36.0513 109.514 33.9793 109.514C32.8406 109.514 31.7859 109.178 30.8153 108.506C29.8633 107.834 29.0979 106.807 28.5193 105.426C27.9406 104.044 27.6513 102.346 27.6513 100.33C27.6513 96.5404 28.2579 93.3297 29.4713 90.6977C30.7033 88.0471 32.3459 86.0684 34.3993 84.7617C36.4713 83.4364 38.7486 82.7737 41.2313 82.7737C42.9859 82.7737 44.4699 83.0817 45.6833 83.6977C46.9153 84.3137 47.8393 85.1537 48.4553 86.2177C49.0899 87.2631 49.4073 88.4484 49.4073 89.7737ZM39.4953 95.9897C43.3219 95.5044 45.2353 93.5164 45.2353 90.0257C45.2353 88.7937 44.8246 87.7951 44.0033 87.0297C43.2006 86.2457 41.9499 85.8537 40.2513 85.8537C38.3286 85.8537 36.6486 86.4604 35.2113 87.6737C33.7926 88.8871 32.6913 90.5764 31.9073 92.7417C31.1419 94.8884 30.7593 97.3431 30.7593 100.106C30.7593 101.263 30.8713 102.29 31.0953 103.186C31.3379 104.082 31.6366 104.782 31.9913 105.286C32.3646 105.771 32.7193 106.014 33.0553 106.014C33.5219 106.014 33.8766 105.37 34.1193 104.082L35.0433 98.7897C34.3153 98.6777 33.9979 98.6311 34.0913 98.6497C33.5313 98.5564 33.1673 98.3884 32.9993 98.1457C32.8313 97.8844 32.7473 97.5577 32.7473 97.1657C32.7473 96.7551 32.8593 96.4284 33.0833 96.1857C33.3259 95.9431 33.6526 95.8217 34.0633 95.8217C34.2499 95.8217 34.3899 95.8311 34.4833 95.8497C34.9313 95.9244 35.2766 95.9711 35.5193 95.9897C35.7619 94.5337 36.1073 92.5831 36.5553 90.1377C36.6673 89.5031 36.9193 89.0551 37.3113 88.7937C37.7219 88.5137 38.1979 88.3737 38.7393 88.3737C39.3553 88.3737 39.7939 88.4951 40.0553 88.7377C40.3353 88.9617 40.4753 89.3257 40.4753 89.8297C40.4753 90.1284 40.4566 90.3711 40.4193 90.5577L39.4953 95.9897ZM61.332 100.218C61.5747 100.218 61.7613 100.33 61.892 100.554C62.0413 100.778 62.116 101.086 62.116 101.478C62.116 102.224 61.9387 102.803 61.584 103.214C60.8933 104.054 59.9133 104.828 58.644 105.538C57.3933 106.247 56.0493 106.602 54.612 106.602C52.652 106.602 51.1307 106.07 50.048 105.006C48.9653 103.942 48.424 102.486 48.424 100.638C48.424 99.3497 48.6947 98.1551 49.236 97.0537C49.7773 95.9337 50.524 95.0471 51.476 94.3937C52.4467 93.7404 53.5387 93.4137 54.752 93.4137C55.8347 93.4137 56.7027 93.7404 57.356 94.3937C58.0093 95.0284 58.336 95.8964 58.336 96.9977C58.336 98.2857 57.8693 99.3964 56.936 100.33C56.0213 101.244 54.4627 101.972 52.26 102.514C52.7267 103.372 53.6133 103.802 54.92 103.802C55.76 103.802 56.712 103.512 57.776 102.934C58.8587 102.336 59.792 101.562 60.576 100.61C60.8 100.348 61.052 100.218 61.332 100.218ZM54.276 96.1577C53.5853 96.1577 52.9973 96.5591 52.512 97.3617C52.0453 98.1644 51.812 99.1351 51.812 100.274V100.33C52.9133 100.068 53.7813 99.6764 54.416 99.1537C55.0507 98.6311 55.368 98.0244 55.368 97.3337C55.368 96.9791 55.2653 96.6991 55.06 96.4937C54.8733 96.2697 54.612 96.1577 54.276 96.1577ZM75.3351 100.218C75.5777 100.218 75.7644 100.33 75.8951 100.554C76.0444 100.778 76.1191 101.086 76.1191 101.478C76.1191 102.224 75.9417 102.803 75.5871 103.214C74.7844 104.203 73.9164 105.015 72.9831 105.65C72.0684 106.284 71.0231 106.602 69.8471 106.602C68.8577 106.602 68.0551 106.247 67.4391 105.538C66.3751 106.228 65.2644 106.583 64.1071 106.602C63.8644 110.204 63.3137 113.21 62.4551 115.618C61.5964 118.044 60.3364 119.258 58.6751 119.258C57.6671 119.258 56.9204 118.894 56.4351 118.166C55.9497 117.438 55.7071 116.43 55.7071 115.142C55.7071 113.312 56.1271 111.175 56.9671 108.73C57.8071 106.303 59.1044 103.624 60.8591 100.694C60.8591 97.9684 60.8404 96.0737 60.8031 95.0097C60.7844 94.4684 60.9991 94.0391 61.4471 93.7217C61.8951 93.4044 62.4551 93.2457 63.1271 93.2457C63.5191 93.2457 63.7991 93.3297 63.9671 93.4977C64.1537 93.6471 64.2564 93.9551 64.2751 94.4217C64.2751 94.8884 64.2844 95.2337 64.3031 95.4577C64.9004 94.7111 65.4884 94.1791 66.0671 93.8617C66.6457 93.5257 67.2617 93.3577 67.9151 93.3577C68.9604 93.3577 69.8097 93.7777 70.4631 94.6177C71.1351 95.4577 71.4711 96.5591 71.4711 97.9217C71.4711 98.9111 71.3124 99.8724 70.9951 100.806C70.6777 101.739 70.2391 102.588 69.6791 103.354C70.0711 103.466 70.3977 103.522 70.6591 103.522C71.2751 103.522 71.8631 103.298 72.4231 102.85C72.9831 102.402 73.7017 101.655 74.5791 100.61C74.8031 100.348 75.0551 100.218 75.3351 100.218ZM64.2471 103.914C64.9191 103.764 65.5351 103.4 66.0951 102.822C66.6737 102.224 67.1311 101.496 67.4671 100.638C67.8031 99.7604 67.9711 98.8457 67.9711 97.8937C67.9711 97.3337 67.8591 96.9137 67.6351 96.6337C67.4111 96.3351 67.1124 96.1857 66.7391 96.1857C66.0671 96.1857 65.2551 96.8951 64.3031 98.3137C64.2844 99.1351 64.2751 100.339 64.2751 101.926C64.2751 102.784 64.2657 103.447 64.2471 103.914ZM58.8991 116.514C59.4031 116.514 59.8231 115.412 60.1591 113.21C60.4951 111.026 60.7097 108.3 60.8031 105.034C60.0004 106.9 59.3657 108.683 58.8991 110.382C58.4324 112.08 58.1991 113.508 58.1991 114.666C58.1991 115.263 58.2737 115.72 58.4231 116.038C58.5537 116.355 58.7124 116.514 58.8991 116.514ZM83.8875 101.058C84.1302 101.058 84.3169 101.17 84.4475 101.394C84.5969 101.618 84.6715 101.926 84.6715 102.318C84.6715 102.99 84.5129 103.568 84.1955 104.054C83.6729 104.856 82.9822 105.482 82.1235 105.93C81.2835 106.378 80.2755 106.602 79.0995 106.602C77.3075 106.602 75.9169 106.07 74.9275 105.006C73.9382 103.923 73.4435 102.467 73.4435 100.638C73.4435 99.3497 73.7142 98.1551 74.2555 97.0537C74.7969 95.9337 75.5435 95.0471 76.4955 94.3937C77.4662 93.7404 78.5582 93.4137 79.7715 93.4137C80.8542 93.4137 81.7222 93.7404 82.3755 94.3937C83.0289 95.0284 83.3555 95.8964 83.3555 96.9977C83.3555 98.2857 82.8889 99.3964 81.9555 100.33C81.0409 101.244 79.4729 101.972 77.2515 102.514C77.6995 103.372 78.4555 103.802 79.5195 103.802C80.2849 103.802 80.9102 103.624 81.3955 103.27C81.8995 102.915 82.4782 102.318 83.1315 101.478C83.3555 101.198 83.6075 101.058 83.8875 101.058ZM79.2955 96.1577C78.6049 96.1577 78.0169 96.5591 77.5315 97.3617C77.0649 98.1644 76.8315 99.1351 76.8315 100.274V100.33C77.9329 100.068 78.8009 99.6764 79.4355 99.1537C80.0702 98.6311 80.3875 98.0244 80.3875 97.3337C80.3875 96.9791 80.2849 96.6991 80.0795 96.4937C79.8929 96.2697 79.6315 96.1577 79.2955 96.1577ZM87.1113 99.5737C86.6633 99.6111 86.2993 99.4804 86.0193 99.1817C85.7579 98.8831 85.6273 98.4631 85.6273 97.9217C85.6273 97.4177 85.7486 97.0444 85.9913 96.8017C86.2526 96.5591 86.6259 96.4191 87.1113 96.3817L92.8513 95.8217C93.3179 95.7844 93.6726 95.9057 93.9153 96.1857C94.1766 96.4471 94.3073 96.8391 94.3073 97.3617C94.3073 98.3697 93.8219 98.9204 92.8513 99.0137L87.1113 99.5737ZM111.62 100.218C111.863 100.218 112.05 100.33 112.18 100.554C112.33 100.778 112.404 101.086 112.404 101.478C112.404 102.224 112.227 102.803 111.872 103.214C111.07 104.203 110.202 105.015 109.268 105.65C108.354 106.284 107.308 106.602 106.132 106.602C105.143 106.602 104.34 106.247 103.724 105.538C102.66 106.228 101.55 106.583 100.392 106.602C100.15 110.204 99.5989 113.21 98.7402 115.618C97.8816 118.044 96.6216 119.258 94.9602 119.258C93.9522 119.258 93.2056 118.894 92.7202 118.166C92.2349 117.438 91.9922 116.43 91.9922 115.142C91.9922 113.312 92.4122 111.175 93.2522 108.73C94.0922 106.303 95.3896 103.624 97.1442 100.694C97.1442 97.9684 97.1256 96.0737 97.0882 95.0097C97.0696 94.4684 97.2842 94.0391 97.7322 93.7217C98.1802 93.4044 98.7402 93.2457 99.4122 93.2457C99.8042 93.2457 100.084 93.3297 100.252 93.4977C100.439 93.6471 100.542 93.9551 100.56 94.4217C100.56 94.8884 100.57 95.2337 100.588 95.4577C101.186 94.7111 101.774 94.1791 102.352 93.8617C102.931 93.5257 103.547 93.3577 104.2 93.3577C105.246 93.3577 106.095 93.7777 106.748 94.6177C107.42 95.4577 107.756 96.5591 107.756 97.9217C107.756 98.9111 107.598 99.8724 107.28 100.806C106.963 101.739 106.524 102.588 105.964 103.354C106.356 103.466 106.683 103.522 106.944 103.522C107.56 103.522 108.148 103.298 108.708 102.85C109.268 102.402 109.987 101.655 110.864 100.61C111.088 100.348 111.34 100.218 111.62 100.218ZM100.532 103.914C101.204 103.764 101.82 103.4 102.38 102.822C102.959 102.224 103.416 101.496 103.752 100.638C104.088 99.7604 104.256 98.8457 104.256 97.8937C104.256 97.3337 104.144 96.9137 103.92 96.6337C103.696 96.3351 103.398 96.1857 103.024 96.1857C102.352 96.1857 101.54 96.8951 100.588 98.3137C100.57 99.1351 100.56 100.339 100.56 101.926C100.56 102.784 100.551 103.447 100.532 103.914ZM95.1842 116.514C95.6882 116.514 96.1082 115.412 96.4442 113.21C96.7802 111.026 96.9949 108.3 97.0882 105.034C96.2856 106.9 95.6509 108.683 95.1842 110.382C94.7176 112.08 94.4842 113.508 94.4842 114.666C94.4842 115.263 94.5589 115.72 94.7082 116.038C94.8389 116.355 94.9976 116.514 95.1842 116.514ZM113.817 91.5657C113.033 91.5657 112.445 91.3884 112.053 91.0337C111.661 90.6604 111.465 90.1471 111.465 89.4937C111.465 88.8404 111.717 88.2991 112.221 87.8697C112.743 87.4217 113.387 87.1977 114.153 87.1977C114.843 87.1977 115.403 87.3657 115.833 87.7017C116.262 88.0377 116.477 88.5137 116.477 89.1297C116.477 89.8764 116.234 90.4737 115.749 90.9217C115.263 91.3511 114.619 91.5657 113.817 91.5657ZM113.593 106.602C112.379 106.602 111.493 106.172 110.933 105.314C110.391 104.455 110.121 103.316 110.121 101.898C110.121 101.058 110.223 99.9844 110.429 98.6777C110.653 97.3524 110.933 96.1204 111.269 94.9817C111.437 94.3844 111.661 93.9737 111.941 93.7497C112.221 93.5257 112.669 93.4137 113.285 93.4137C114.237 93.4137 114.713 93.7311 114.713 94.3657C114.713 94.8324 114.535 95.9151 114.181 97.6137C113.733 99.6671 113.509 101.058 113.509 101.786C113.509 102.346 113.583 102.775 113.733 103.074C113.882 103.372 114.134 103.522 114.489 103.522C114.825 103.522 115.245 103.288 115.749 102.822C116.253 102.355 116.925 101.618 117.765 100.61C117.989 100.348 118.241 100.218 118.521 100.218C118.763 100.218 118.95 100.33 119.081 100.554C119.23 100.778 119.305 101.086 119.305 101.478C119.305 102.224 119.127 102.803 118.773 103.214C116.925 105.472 115.198 106.602 113.593 106.602ZM130.464 100.218C130.707 100.218 130.894 100.33 131.024 100.554C131.174 100.778 131.248 101.086 131.248 101.478C131.248 102.168 131.071 102.747 130.716 103.214C129.839 104.352 128.747 105.248 127.44 105.902C126.152 106.555 124.696 106.882 123.072 106.882C121.803 106.882 120.702 106.695 119.768 106.322C118.835 105.93 118.116 105.407 117.612 104.754C117.127 104.082 116.884 103.335 116.884 102.514C116.884 101.282 117.379 100.19 118.368 99.2377C119.358 98.2857 120.776 97.3711 122.624 96.4937L118.032 96.6057C117.622 96.6244 117.304 96.4844 117.08 96.1857C116.875 95.8684 116.772 95.4951 116.772 95.0657C116.772 94.6177 116.875 94.2257 117.08 93.8897C117.304 93.5351 117.603 93.3577 117.976 93.3577C118.835 93.3577 119.983 93.4231 121.42 93.5537C121.719 93.5724 122.26 93.6097 123.044 93.6657C123.847 93.7217 124.519 93.7497 125.06 93.7497C125.247 93.7497 125.602 93.6751 126.124 93.5257C126.218 93.5071 126.395 93.4604 126.656 93.3857C126.936 93.3111 127.17 93.2737 127.356 93.2737C127.655 93.2737 127.898 93.4044 128.084 93.6657C128.29 93.9271 128.392 94.3284 128.392 94.8697C128.392 95.4671 128.252 95.9337 127.972 96.2697C127.692 96.6057 127.254 96.9044 126.656 97.1657C124.958 97.8937 123.548 98.6777 122.428 99.5177C121.308 100.339 120.748 101.16 120.748 101.982C120.748 102.504 120.991 102.934 121.476 103.27C121.962 103.606 122.68 103.774 123.632 103.774C124.678 103.774 125.732 103.512 126.796 102.99C127.879 102.467 128.85 101.674 129.708 100.61C129.932 100.348 130.184 100.218 130.464 100.218ZM142.933 100.218C143.176 100.218 143.363 100.33 143.493 100.554C143.643 100.778 143.717 101.086 143.717 101.478C143.717 102.168 143.54 102.747 143.185 103.214C142.308 104.352 141.216 105.248 139.909 105.902C138.621 106.555 137.165 106.882 135.541 106.882C134.272 106.882 133.171 106.695 132.237 106.322C131.304 105.93 130.585 105.407 130.081 104.754C129.596 104.082 129.353 103.335 129.353 102.514C129.353 101.282 129.848 100.19 130.837 99.2377C131.827 98.2857 133.245 97.3711 135.093 96.4937L130.501 96.6057C130.091 96.6244 129.773 96.4844 129.549 96.1857C129.344 95.8684 129.241 95.4951 129.241 95.0657C129.241 94.6177 129.344 94.2257 129.549 93.8897C129.773 93.5351 130.072 93.3577 130.445 93.3577C131.304 93.3577 132.452 93.4231 133.889 93.5537C134.188 93.5724 134.729 93.6097 135.513 93.6657C136.316 93.7217 136.988 93.7497 137.529 93.7497C137.716 93.7497 138.071 93.6751 138.593 93.5257C138.687 93.5071 138.864 93.4604 139.125 93.3857C139.405 93.3111 139.639 93.2737 139.825 93.2737C140.124 93.2737 140.367 93.4044 140.553 93.6657C140.759 93.9271 140.861 94.3284 140.861 94.8697C140.861 95.4671 140.721 95.9337 140.441 96.2697C140.161 96.6057 139.723 96.9044 139.125 97.1657C137.427 97.8937 136.017 98.6777 134.897 99.5177C133.777 100.339 133.217 101.16 133.217 101.982C133.217 102.504 133.46 102.934 133.945 103.27C134.431 103.606 135.149 103.774 136.101 103.774C137.147 103.774 138.201 103.512 139.265 102.99C140.348 102.467 141.319 101.674 142.177 100.61C142.401 100.348 142.653 100.218 142.933 100.218ZM144.377 106.602C143.313 106.602 142.445 106.182 141.773 105.342C141.119 104.502 140.793 103.4 140.793 102.038C140.793 100.544 141.138 99.1351 141.829 97.8097C142.519 96.4657 143.434 95.3924 144.573 94.5897C145.73 93.7684 146.953 93.3577 148.241 93.3577C148.651 93.3577 148.922 93.4417 149.053 93.6097C149.202 93.7591 149.323 94.0391 149.417 94.4497C149.771 94.3751 150.163 94.3377 150.593 94.3377C151.041 94.3377 151.386 94.4497 151.629 94.6737C151.871 94.8977 151.993 95.2151 151.993 95.6257C151.993 96.0551 151.899 96.8017 151.713 97.8657C151.507 99.0044 151.349 100.096 151.237 101.142C151.125 102.168 151.069 103.326 151.069 104.614C151.069 105.323 150.919 105.836 150.621 106.154C150.341 106.452 149.874 106.602 149.221 106.602C148.586 106.602 148.11 106.452 147.793 106.154C147.494 105.836 147.345 105.332 147.345 104.642L147.373 104.194C146.794 105.799 145.795 106.602 144.377 106.602ZM145.469 103.774C145.991 103.774 146.467 103.41 146.897 102.682C147.326 101.954 147.709 100.656 148.044 98.7897L148.577 95.9617C147.811 95.9804 147.102 96.2791 146.449 96.8577C145.795 97.4177 145.273 98.1644 144.881 99.0977C144.489 100.031 144.293 101.02 144.293 102.066C144.293 102.626 144.395 103.055 144.601 103.354C144.825 103.634 145.114 103.774 145.469 103.774Z" fill="#870031"/>

</symbol><symbol id="logo-fb" viewBox="0 0 13 22">
<path d="M12 1H9C7.67392 1 6.40215 1.52678 5.46447 2.46447C4.52678 3.40215 4 4.67392 4 6V9H1V13H4V21H8V13H11L12 9H8V6C8 5.73478 8.10536 5.48043 8.29289 5.29289C8.48043 5.10536 8.73478 5 9 5H12V1Z" stroke="#565450" stroke-width="2" stroke-linecap="round" stroke-linejoin="round"/>
</symbol><symbol id="logo-insta" viewBox="0 0 24 24">
<path d="M17 2H7C4.23858 2 2 4.23858 2 7V17C2 19.7614 4.23858 22 7 22H17C19.7614 22 22 19.7614 22 17V7C22 4.23858 19.7614 2 17 2Z" stroke="#565450" stroke-width="2" stroke-linecap="round" stroke-linejoin="round"/>
<path d="M16 11.3701C16.1234 12.2023 15.9812 13.0523 15.5937 13.7991C15.2062 14.5459 14.5931 15.1515 13.8416 15.5297C13.0901 15.908 12.2384 16.0397 11.4077 15.906C10.5771 15.7723 9.80971 15.3801 9.21479 14.7852C8.61987 14.1903 8.22768 13.4229 8.09402 12.5923C7.96035 11.7616 8.09202 10.91 8.47028 10.1584C8.84854 9.40691 9.45414 8.7938 10.2009 8.4063C10.9477 8.0188 11.7977 7.87665 12.63 8.00006C13.4789 8.12594 14.2648 8.52152 14.8716 9.12836C15.4785 9.73521 15.8741 10.5211 16 11.3701Z" stroke="#565450" stroke-width="2" stroke-linecap="round" stroke-linejoin="round"/>
<path d="M17.5 6.5H17.51" stroke="#565450" stroke-width="2" stroke-linecap="round" stroke-linejoin="round"/>
</symbol><symbol id="logo-pinterest" viewBox="0 0 40 40">
<path d="M19.9999 5C28.2847 5 35 11.7162 35 20.0001C35 28.2848 28.2847 35 19.9999 35C11.7152 35 5 28.2847 5 20.0001C5 11.7162 11.7153 5 19.9999 5Z" fill="#F8FDFF"/>
<path d="M20 10C14.4823 10 10 14.4823 10 20C10 25.5177 14.4823 30 20 30C25.5177 30 30 25.5177 30 20C30 14.4823 25.5177 10 20 10ZM20 10.8696C25.0477 10.8696 29.1304 14.9522 29.1304 20C29.1304 25.0477 25.0477 29.1304 20 29.1304C19.0767 29.1304 18.186 28.9922 17.3463 28.7381C17.7203 28.1128 18.2032 27.219 18.395 26.481C18.509 26.0434 18.9776 24.2587 18.9776 24.2587C19.2821 24.84 20.1719 25.332 21.1192 25.332C23.9383 25.332 25.9706 22.7394 25.9706 19.5177C25.9706 16.4289 23.4502 14.1185 20.2072 14.1185C16.1725 14.1185 14.0311 16.8264 14.0311 19.775C14.0311 21.1462 14.7604 22.8531 15.9282 23.3967C16.105 23.4791 16.2 23.4434 16.2407 23.2719C16.2719 23.1418 16.4297 22.5073 16.5005 22.2121C16.5232 22.1179 16.5122 22.0365 16.436 21.9438C16.0495 21.475 15.7396 20.6138 15.7396 19.8106C15.7396 17.7487 17.3006 15.7532 19.9601 15.7532C22.2564 15.7532 23.8646 17.3186 23.8646 19.5567C23.8646 22.0853 22.5879 23.8375 20.9265 23.8375C20.0089 23.8375 19.3219 23.0784 19.5423 22.1476C19.8065 21.0366 20.3167 19.8378 20.3167 19.0353C20.3167 18.3177 19.9316 17.7191 19.1338 17.7191C18.1958 17.7191 17.4423 18.6889 17.4423 19.989C17.4423 20.8162 17.7225 21.3765 17.7225 21.3765C17.7225 21.3765 16.7959 25.2941 16.6262 26.0233C16.4561 26.7519 16.5017 27.7332 16.5718 28.4638C13.2266 27.1098 10.8696 23.8345 10.8696 20C10.8696 14.9522 14.9522 10.8696 20 10.8696Z" fill="#041827"/>
</symbol><symbol id="logo-red" viewBox="0 0 176 49">
<path d="M28.4601 15.1541C25.1983 13.8252 21.7755 13.25 18.0004 13.25C14.2254 13.25 10.5403 13.8828 7.5309 15.1259C6.96278 15.358 6.45794 15.7587 6.82286 16.497C7.11887 17.0968 14.2739 32.8672 16.9922 38.4922C17.0837 38.6822 17.227 38.8425 17.4056 38.9547C17.5843 39.0669 17.7909 39.1265 18.0018 39.1265C18.2128 39.1265 18.4194 39.0669 18.598 38.9547C18.7766 38.8425 18.92 38.6822 19.0115 38.4922L29.14 16.5392C29.3643 16.0541 29.2033 15.4564 28.4601 15.1541Z" fill="white"/>
<path fill-rule="evenodd" clip-rule="evenodd" d="M6.94541 13.7015C10.1783 12.3666 14.0696 11.71 18.0003 11.71C21.9379 11.71 25.5632 12.3111 29.0403 13.7276C29.7086 13.9994 30.2854 14.4808 30.5806 15.1768C30.8736 15.8677 30.8117 16.5926 30.5384 17.1845C30.5382 17.1849 30.538 17.1852 30.5378 17.1856L20.4044 39.1492L20.3988 39.1608C20.1815 39.6119 19.8412 39.9926 19.4171 40.2589C18.9931 40.5253 18.5025 40.6666 18.0017 40.6666C17.5009 40.6666 17.0103 40.5253 16.5863 40.2589C16.1623 39.9926 15.8221 39.6121 15.6047 39.1611C14.2374 36.3315 11.7626 30.9684 9.59918 26.2524C8.63919 24.1597 7.73868 22.1904 7.02088 20.6206C6.92872 20.4191 6.83957 20.2241 6.7537 20.0364C6.37618 19.2108 6.06222 18.5246 5.83344 18.0261C5.71899 17.7767 5.62643 17.5755 5.55813 17.4279C5.52393 17.354 5.49643 17.2949 5.4756 17.2504C5.46519 17.2282 5.45694 17.2107 5.45067 17.1975C5.44493 17.1854 5.44222 17.1799 5.44172 17.1788C5.44163 17.1787 5.44161 17.1786 5.44167 17.1787C5.05295 16.3917 5.04195 15.5027 5.55598 14.7518C5.96662 14.1519 6.57955 13.8512 6.94541 13.7015ZM8.47834 16.4054C8.76903 17.0368 9.26482 18.121 9.88774 19.4832C10.598 21.0364 11.4736 22.9511 12.3989 24.9681C14.3741 29.2738 16.5935 34.0854 17.9941 37.0209L27.4951 16.4281C24.5621 15.2943 21.4613 14.7902 18.0003 14.7902C14.536 14.7902 11.2006 15.3481 8.47834 16.4054ZM7.98871 16.6122C7.9888 16.6122 7.9889 16.6121 7.98899 16.612C7.98693 16.6135 7.98672 16.6136 7.98871 16.6122Z" fill="#C0123C"/>
<path d="M30.683 12.3134C27.0218 10.865 22.512 9.875 18 9.875C13.4881 9.875 9.04574 10.7736 5.30722 12.2713C4.97745 12.4063 4.35941 12.7177 4.52886 13.2416L5.20949 14.9375C5.49074 15.5141 5.8191 15.5141 6.26839 15.5141C6.39425 15.5141 6.57003 15.4437 6.78027 15.3608C10.358 13.9711 14.1619 13.2555 18 13.25C21.991 13.25 26.0796 14.0938 29.2219 15.3594C29.4743 15.4578 29.615 15.5127 29.7338 15.5127C30.1964 15.5127 30.4636 15.6666 30.7885 14.9431L31.4754 13.25C31.6168 12.8281 31.1246 12.4892 30.683 12.3134Z" fill="#92908D"/>
<path fill-rule="evenodd" clip-rule="evenodd" d="M4.73478 10.8417C8.65648 9.27062 13.2933 8.33496 18.0003 8.33496C22.7235 8.33496 27.4251 9.36826 31.2499 10.8814L31.2514 10.882L31.2529 10.8826C31.5725 11.0098 32.0174 11.2334 32.3832 11.5966C32.761 11.9717 33.2678 12.749 32.936 13.7393L32.9208 13.7847L32.2053 15.5483L32.1937 15.574C31.9707 16.0707 31.5751 16.717 30.775 16.9685C30.4392 17.074 30.1418 17.0695 29.9977 17.0648C29.8672 17.0605 29.8327 17.0573 29.811 17.0553C29.7928 17.0537 29.7836 17.0528 29.7341 17.0528C29.4426 17.0528 29.2025 16.9856 29.0602 16.9403C28.9308 16.899 28.791 16.8444 28.6844 16.8028L28.6547 16.7912L28.6468 16.788C25.6895 15.5969 21.7968 14.7903 18.0015 14.7902C14.3551 14.7955 10.7412 15.4752 7.34209 16.7949C7.33642 16.7972 7.33052 16.7995 7.32442 16.8019C7.23434 16.8375 7.09948 16.8909 6.9692 16.9332C6.84474 16.9737 6.58132 17.0542 6.26867 17.0542C6.25771 17.0542 6.2447 17.0544 6.22979 17.0545C6.04291 17.0562 5.55799 17.0608 5.08513 16.8642C4.46447 16.6063 4.07564 16.1254 3.82557 15.6128L3.80118 15.5628L3.08011 13.7661L3.0638 13.7157C2.72442 12.6665 3.26549 11.8654 3.68965 11.4761C4.07447 11.1228 4.52395 10.9279 4.72401 10.846L4.72939 10.8438L4.73478 10.8417ZM6.30611 13.5343L6.4309 13.8453C10.125 12.4393 14.0443 11.7156 17.9981 11.71L17.9992 11.71H18.0003C22.0931 11.71 26.2796 12.552 29.5735 13.8419L29.681 13.5771C26.2639 12.2856 22.1241 11.4152 18.0003 11.4152C13.8545 11.4152 9.77232 12.2098 6.30611 13.5343ZM30.099 13.9862C30.099 13.9862 30.099 13.9862 30.099 13.9862C30.1057 13.9864 30.1089 13.9864 30.1088 13.9863L30.099 13.9862Z" fill="#C0123C"/>
<path d="M13.5 22.25C14.7426 22.25 15.75 21.2426 15.75 20C15.75 18.7574 14.7426 17.75 13.5 17.75C12.2574 17.75 11.25 18.7574 11.25 20C11.25 21.2426 12.2574 22.25 13.5 22.25Z" fill="#C0123C"/>
<path d="M22.5 23.375C23.7426 23.375 24.75 22.3676 24.75 21.125C24.75 19.8824 23.7426 18.875 22.5 18.875C21.2574 18.875 20.25 19.8824 20.25 21.125C20.25 22.3676 21.2574 23.375 22.5 23.375Z" fill="#C0123C"/>
<path d="M18 31.25C19.2426 31.25 20.25 30.2426 20.25 29C20.25 27.7574 19.2426 26.75 18 26.75C16.7574 26.75 15.75 27.7574 15.75 29C15.75 30.2426 16.7574 31.25 18 31.25Z" fill="#C0123C"/>
<path d="M72.4073 19.312C72.4073 20.8987 71.9966 22.3547 71.1753 23.68C70.3539 25.0053 69.1593 26.088 67.5913 26.928C66.0233 27.768 64.1566 28.2627 61.9913 28.412L60.7873 35.16C60.3206 37.7547 59.0513 39.052 56.9793 39.052C55.8406 39.052 54.7859 38.716 53.8153 38.044C52.8633 37.372 52.0979 36.3453 51.5193 34.964C50.9406 33.5827 50.6513 31.884 50.6513 29.868C50.6513 26.0787 51.2579 22.868 52.4713 20.236C53.7033 17.5853 55.3459 15.6067 57.3993 14.3C59.4713 12.9747 61.7486 12.312 64.2313 12.312C65.9859 12.312 67.4699 12.62 68.6833 13.236C69.9153 13.852 70.8393 14.692 71.4553 15.756C72.0899 16.8013 72.4073 17.9867 72.4073 19.312ZM62.4953 25.528C66.3219 25.0427 68.2353 23.0547 68.2353 19.564C68.2353 18.332 67.8246 17.3333 67.0033 16.568C66.2006 15.784 64.9499 15.392 63.2513 15.392C61.3286 15.392 59.6486 15.9987 58.2113 17.212C56.7926 18.4253 55.6913 20.1147 54.9073 22.28C54.1419 24.4267 53.7593 26.8813 53.7593 29.644C53.7593 30.8013 53.8713 31.828 54.0953 32.724C54.3379 33.62 54.6366 34.32 54.9913 34.824C55.3646 35.3093 55.7193 35.552 56.0553 35.552C56.5219 35.552 56.8766 34.908 57.1193 33.62L58.0433 28.328C57.3153 28.216 56.9979 28.1693 57.0913 28.188C56.5313 28.0947 56.1673 27.9267 55.9993 27.684C55.8313 27.4227 55.7473 27.096 55.7473 26.704C55.7473 26.2933 55.8593 25.9667 56.0833 25.724C56.3259 25.4813 56.6526 25.36 57.0633 25.36C57.2499 25.36 57.3899 25.3693 57.4833 25.388C57.9313 25.4627 58.2766 25.5093 58.5193 25.528C58.7619 24.072 59.1073 22.1213 59.5553 19.676C59.6673 19.0413 59.9193 18.5933 60.3113 18.332C60.7219 18.052 61.1979 17.912 61.7393 17.912C62.3553 17.912 62.7939 18.0333 63.0553 18.276C63.3353 18.5 63.4753 18.864 63.4753 19.368C63.4753 19.6667 63.4566 19.9093 63.4193 20.096L62.4953 25.528ZM84.332 29.756C84.5747 29.756 84.7613 29.868 84.892 30.092C85.0413 30.316 85.116 30.624 85.116 31.016C85.116 31.7627 84.9387 32.3413 84.584 32.752C83.8933 33.592 82.9133 34.3667 81.644 35.076C80.3933 35.7853 79.0493 36.14 77.612 36.14C75.652 36.14 74.1307 35.608 73.048 34.544C71.9653 33.48 71.424 32.024 71.424 30.176C71.424 28.888 71.6947 27.6933 72.236 26.592C72.7773 25.472 73.524 24.5853 74.476 23.932C75.4467 23.2787 76.5387 22.952 77.752 22.952C78.8347 22.952 79.7027 23.2787 80.356 23.932C81.0093 24.5667 81.336 25.4347 81.336 26.536C81.336 27.824 80.8693 28.9347 79.936 29.868C79.0213 30.7827 77.4627 31.5107 75.26 32.052C75.7267 32.9107 76.6133 33.34 77.92 33.34C78.76 33.34 79.712 33.0507 80.776 32.472C81.8587 31.8747 82.792 31.1 83.576 30.148C83.8 29.8867 84.052 29.756 84.332 29.756ZM77.276 25.696C76.5853 25.696 75.9973 26.0973 75.512 26.9C75.0453 27.7027 74.812 28.6733 74.812 29.812V29.868C75.9133 29.6067 76.7813 29.2147 77.416 28.692C78.0507 28.1693 78.368 27.5627 78.368 26.872C78.368 26.5173 78.2653 26.2373 78.06 26.032C77.8733 25.808 77.612 25.696 77.276 25.696ZM98.3351 29.756C98.5777 29.756 98.7644 29.868 98.8951 30.092C99.0444 30.316 99.1191 30.624 99.1191 31.016C99.1191 31.7627 98.9417 32.3413 98.5871 32.752C97.7844 33.7413 96.9164 34.5533 95.9831 35.188C95.0684 35.8227 94.0231 36.14 92.8471 36.14C91.8577 36.14 91.0551 35.7853 90.4391 35.076C89.3751 35.7667 88.2644 36.1213 87.1071 36.14C86.8644 39.7427 86.3137 42.748 85.4551 45.156C84.5964 47.5827 83.3364 48.796 81.6751 48.796C80.6671 48.796 79.9204 48.432 79.4351 47.704C78.9497 46.976 78.7071 45.968 78.7071 44.68C78.7071 42.8507 79.1271 40.7133 79.9671 38.268C80.8071 35.8413 82.1044 33.1627 83.8591 30.232C83.8591 27.5067 83.8404 25.612 83.8031 24.548C83.7844 24.0067 83.9991 23.5773 84.4471 23.26C84.8951 22.9427 85.4551 22.784 86.1271 22.784C86.5191 22.784 86.7991 22.868 86.9671 23.036C87.1537 23.1853 87.2564 23.4933 87.2751 23.96C87.2751 24.4267 87.2844 24.772 87.3031 24.996C87.9004 24.2493 88.4884 23.7173 89.0671 23.4C89.6457 23.064 90.2617 22.896 90.9151 22.896C91.9604 22.896 92.8097 23.316 93.4631 24.156C94.1351 24.996 94.4711 26.0973 94.4711 27.46C94.4711 28.4493 94.3124 29.4107 93.9951 30.344C93.6777 31.2773 93.2391 32.1267 92.6791 32.892C93.0711 33.004 93.3977 33.06 93.6591 33.06C94.2751 33.06 94.8631 32.836 95.4231 32.388C95.9831 31.94 96.7017 31.1933 97.5791 30.148C97.8031 29.8867 98.0551 29.756 98.3351 29.756ZM87.2471 33.452C87.9191 33.3027 88.5351 32.9387 89.0951 32.36C89.6737 31.7627 90.1311 31.0347 90.4671 30.176C90.8031 29.2987 90.9711 28.384 90.9711 27.432C90.9711 26.872 90.8591 26.452 90.6351 26.172C90.4111 25.8733 90.1124 25.724 89.7391 25.724C89.0671 25.724 88.2551 26.4333 87.3031 27.852C87.2844 28.6733 87.2751 29.8773 87.2751 31.464C87.2751 32.3227 87.2657 32.9853 87.2471 33.452ZM81.8991 46.052C82.4031 46.052 82.8231 44.9507 83.1591 42.748C83.4951 40.564 83.7097 37.8387 83.8031 34.572C83.0004 36.4387 82.3657 38.2213 81.8991 39.92C81.4324 41.6187 81.1991 43.0467 81.1991 44.204C81.1991 44.8013 81.2737 45.2587 81.4231 45.576C81.5537 45.8933 81.7124 46.052 81.8991 46.052ZM106.888 30.596C107.13 30.596 107.317 30.708 107.448 30.932C107.597 31.156 107.672 31.464 107.672 31.856C107.672 32.528 107.513 33.1067 107.196 33.592C106.673 34.3947 105.982 35.02 105.124 35.468C104.284 35.916 103.276 36.14 102.1 36.14C100.308 36.14 98.9169 35.608 97.9275 34.544C96.9382 33.4613 96.4435 32.0053 96.4435 30.176C96.4435 28.888 96.7142 27.6933 97.2555 26.592C97.7969 25.472 98.5435 24.5853 99.4955 23.932C100.466 23.2787 101.558 22.952 102.772 22.952C103.854 22.952 104.722 23.2787 105.376 23.932C106.029 24.5667 106.356 25.4347 106.356 26.536C106.356 27.824 105.889 28.9347 104.956 29.868C104.041 30.7827 102.473 31.5107 100.252 32.052C100.7 32.9107 101.456 33.34 102.52 33.34C103.285 33.34 103.91 33.1627 104.396 32.808C104.9 32.4533 105.478 31.856 106.132 31.016C106.356 30.736 106.608 30.596 106.888 30.596ZM102.296 25.696C101.605 25.696 101.017 26.0973 100.532 26.9C100.065 27.7027 99.8315 28.6733 99.8315 29.812V29.868C100.933 29.6067 101.801 29.2147 102.436 28.692C103.07 28.1693 103.388 27.5627 103.388 26.872C103.388 26.5173 103.285 26.2373 103.08 26.032C102.893 25.808 102.632 25.696 102.296 25.696ZM110.111 29.112C109.663 29.1493 109.299 29.0187 109.019 28.72C108.758 28.4213 108.627 28.0013 108.627 27.46C108.627 26.956 108.749 26.5827 108.991 26.34C109.253 26.0973 109.626 25.9573 110.111 25.92L115.851 25.36C116.318 25.3227 116.673 25.444 116.915 25.724C117.177 25.9853 117.307 26.3773 117.307 26.9C117.307 27.908 116.822 28.4587 115.851 28.552L110.111 29.112ZM134.62 29.756C134.863 29.756 135.05 29.868 135.18 30.092C135.33 30.316 135.404 30.624 135.404 31.016C135.404 31.7627 135.227 32.3413 134.872 32.752C134.07 33.7413 133.202 34.5533 132.268 35.188C131.354 35.8227 130.308 36.14 129.132 36.14C128.143 36.14 127.34 35.7853 126.724 35.076C125.66 35.7667 124.55 36.1213 123.392 36.14C123.15 39.7427 122.599 42.748 121.74 45.156C120.882 47.5827 119.622 48.796 117.96 48.796C116.952 48.796 116.206 48.432 115.72 47.704C115.235 46.976 114.992 45.968 114.992 44.68C114.992 42.8507 115.412 40.7133 116.252 38.268C117.092 35.8413 118.39 33.1627 120.144 30.232C120.144 27.5067 120.126 25.612 120.088 24.548C120.07 24.0067 120.284 23.5773 120.732 23.26C121.18 22.9427 121.74 22.784 122.412 22.784C122.804 22.784 123.084 22.868 123.252 23.036C123.439 23.1853 123.542 23.4933 123.56 23.96C123.56 24.4267 123.57 24.772 123.588 24.996C124.186 24.2493 124.774 23.7173 125.352 23.4C125.931 23.064 126.547 22.896 127.2 22.896C128.246 22.896 129.095 23.316 129.748 24.156C130.42 24.996 130.756 26.0973 130.756 27.46C130.756 28.4493 130.598 29.4107 130.28 30.344C129.963 31.2773 129.524 32.1267 128.964 32.892C129.356 33.004 129.683 33.06 129.944 33.06C130.56 33.06 131.148 32.836 131.708 32.388C132.268 31.94 132.987 31.1933 133.864 30.148C134.088 29.8867 134.34 29.756 134.62 29.756ZM123.532 33.452C124.204 33.3027 124.82 32.9387 125.38 32.36C125.959 31.7627 126.416 31.0347 126.752 30.176C127.088 29.2987 127.256 28.384 127.256 27.432C127.256 26.872 127.144 26.452 126.92 26.172C126.696 25.8733 126.398 25.724 126.024 25.724C125.352 25.724 124.54 26.4333 123.588 27.852C123.57 28.6733 123.56 29.8773 123.56 31.464C123.56 32.3227 123.551 32.9853 123.532 33.452ZM118.184 46.052C118.688 46.052 119.108 44.9507 119.444 42.748C119.78 40.564 119.995 37.8387 120.088 34.572C119.286 36.4387 118.651 38.2213 118.184 39.92C117.718 41.6187 117.484 43.0467 117.484 44.204C117.484 44.8013 117.559 45.2587 117.708 45.576C117.839 45.8933 117.998 46.052 118.184 46.052ZM136.817 21.104C136.033 21.104 135.445 20.9267 135.053 20.572C134.661 20.1987 134.465 19.6853 134.465 19.032C134.465 18.3787 134.717 17.8373 135.221 17.408C135.743 16.96 136.387 16.736 137.153 16.736C137.843 16.736 138.403 16.904 138.833 17.24C139.262 17.576 139.477 18.052 139.477 18.668C139.477 19.4147 139.234 20.012 138.749 20.46C138.263 20.8893 137.619 21.104 136.817 21.104ZM136.593 36.14C135.379 36.14 134.493 35.7107 133.933 34.852C133.391 33.9933 133.121 32.8547 133.121 31.436C133.121 30.596 133.223 29.5227 133.429 28.216C133.653 26.8907 133.933 25.6587 134.269 24.52C134.437 23.9227 134.661 23.512 134.941 23.288C135.221 23.064 135.669 22.952 136.285 22.952C137.237 22.952 137.713 23.2693 137.713 23.904C137.713 24.3707 137.535 25.4533 137.181 27.152C136.733 29.2053 136.509 30.596 136.509 31.324C136.509 31.884 136.583 32.3133 136.733 32.612C136.882 32.9107 137.134 33.06 137.489 33.06C137.825 33.06 138.245 32.8267 138.749 32.36C139.253 31.8933 139.925 31.156 140.765 30.148C140.989 29.8867 141.241 29.756 141.521 29.756C141.763 29.756 141.95 29.868 142.081 30.092C142.23 30.316 142.305 30.624 142.305 31.016C142.305 31.7627 142.127 32.3413 141.773 32.752C139.925 35.0107 138.198 36.14 136.593 36.14ZM153.464 29.756C153.707 29.756 153.894 29.868 154.024 30.092C154.174 30.316 154.248 30.624 154.248 31.016C154.248 31.7067 154.071 32.2853 153.716 32.752C152.839 33.8907 151.747 34.7867 150.44 35.44C149.152 36.0933 147.696 36.42 146.072 36.42C144.803 36.42 143.702 36.2333 142.768 35.86C141.835 35.468 141.116 34.9453 140.612 34.292C140.127 33.62 139.884 32.8733 139.884 32.052C139.884 30.82 140.379 29.728 141.368 28.776C142.358 27.824 143.776 26.9093 145.624 26.032L141.032 26.144C140.622 26.1627 140.304 26.0227 140.08 25.724C139.875 25.4067 139.772 25.0333 139.772 24.604C139.772 24.156 139.875 23.764 140.08 23.428C140.304 23.0733 140.603 22.896 140.976 22.896C141.835 22.896 142.983 22.9613 144.42 23.092C144.719 23.1107 145.26 23.148 146.044 23.204C146.847 23.26 147.519 23.288 148.06 23.288C148.247 23.288 148.602 23.2133 149.124 23.064C149.218 23.0453 149.395 22.9987 149.656 22.924C149.936 22.8493 150.17 22.812 150.356 22.812C150.655 22.812 150.898 22.9427 151.084 23.204C151.29 23.4653 151.392 23.8667 151.392 24.408C151.392 25.0053 151.252 25.472 150.972 25.808C150.692 26.144 150.254 26.4427 149.656 26.704C147.958 27.432 146.548 28.216 145.428 29.056C144.308 29.8773 143.748 30.6987 143.748 31.52C143.748 32.0427 143.991 32.472 144.476 32.808C144.962 33.144 145.68 33.312 146.632 33.312C147.678 33.312 148.732 33.0507 149.796 32.528C150.879 32.0053 151.85 31.212 152.708 30.148C152.932 29.8867 153.184 29.756 153.464 29.756ZM165.933 29.756C166.176 29.756 166.363 29.868 166.493 30.092C166.643 30.316 166.717 30.624 166.717 31.016C166.717 31.7067 166.54 32.2853 166.185 32.752C165.308 33.8907 164.216 34.7867 162.909 35.44C161.621 36.0933 160.165 36.42 158.541 36.42C157.272 36.42 156.171 36.2333 155.237 35.86C154.304 35.468 153.585 34.9453 153.081 34.292C152.596 33.62 152.353 32.8733 152.353 32.052C152.353 30.82 152.848 29.728 153.837 28.776C154.827 27.824 156.245 26.9093 158.093 26.032L153.501 26.144C153.091 26.1627 152.773 26.0227 152.549 25.724C152.344 25.4067 152.241 25.0333 152.241 24.604C152.241 24.156 152.344 23.764 152.549 23.428C152.773 23.0733 153.072 22.896 153.445 22.896C154.304 22.896 155.452 22.9613 156.889 23.092C157.188 23.1107 157.729 23.148 158.513 23.204C159.316 23.26 159.988 23.288 160.529 23.288C160.716 23.288 161.071 23.2133 161.593 23.064C161.687 23.0453 161.864 22.9987 162.125 22.924C162.405 22.8493 162.639 22.812 162.825 22.812C163.124 22.812 163.367 22.9427 163.553 23.204C163.759 23.4653 163.861 23.8667 163.861 24.408C163.861 25.0053 163.721 25.472 163.441 25.808C163.161 26.144 162.723 26.4427 162.125 26.704C160.427 27.432 159.017 28.216 157.897 29.056C156.777 29.8773 156.217 30.6987 156.217 31.52C156.217 32.0427 156.46 32.472 156.945 32.808C157.431 33.144 158.149 33.312 159.101 33.312C160.147 33.312 161.201 33.0507 162.265 32.528C163.348 32.0053 164.319 31.212 165.177 30.148C165.401 29.8867 165.653 29.756 165.933 29.756ZM167.377 36.14C166.313 36.14 165.445 35.72 164.773 34.88C164.119 34.04 163.793 32.9387 163.793 31.576C163.793 30.0827 164.138 28.6733 164.829 27.348C165.519 26.004 166.434 24.9307 167.573 24.128C168.73 23.3067 169.953 22.896 171.241 22.896C171.651 22.896 171.922 22.98 172.053 23.148C172.202 23.2973 172.323 23.5773 172.417 23.988C172.771 23.9133 173.163 23.876 173.593 23.876C174.041 23.876 174.386 23.988 174.629 24.212C174.871 24.436 174.993 24.7533 174.993 25.164C174.993 25.5933 174.899 26.34 174.713 27.404C174.507 28.5427 174.349 29.6347 174.237 30.68C174.125 31.7067 174.069 32.864 174.069 34.152C174.069 34.8613 173.919 35.3747 173.621 35.692C173.341 35.9907 172.874 36.14 172.221 36.14C171.586 36.14 171.11 35.9907 170.793 35.692C170.494 35.3747 170.345 34.8707 170.345 34.18L170.373 33.732C169.794 35.3373 168.795 36.14 167.377 36.14ZM168.469 33.312C168.991 33.312 169.467 32.948 169.897 32.22C170.326 31.492 170.709 30.1947 171.044 28.328L171.577 25.5C170.811 25.5187 170.102 25.8173 169.449 26.396C168.795 26.956 168.273 27.7027 167.881 28.636C167.489 29.5693 167.293 30.5587 167.293 31.604C167.293 32.164 167.395 32.5933 167.601 32.892C167.825 33.172 168.114 33.312 168.469 33.312Z" fill="#C0123C"/>
</symbol><symbol id="logo-telegram" viewBox="0 0 24 24">
<path fill-rule="evenodd" clip-rule="evenodd" d="M22.8121 1.31717C23.3527 2.03146 23.5963 3.21551 23.7163 4.65496C23.8749 6.80304 23.9386 9.38074 23.9995 12.0444C23.9207 14.7576 23.8886 17.4939 23.7163 19.4338C23.5803 20.9228 23.2913 21.9199 22.8088 22.5247C22.195 23.1285 21.0175 23.6384 19.3386 23.7592C17.2966 23.9334 14.7773 23.9315 11.9979 24C8.90823 23.9471 6.8129 23.9698 4.61464 23.7602C2.89985 23.6412 1.77806 23.1375 1.0878 22.5294C0.576479 21.8429 0.426813 21.1131 0.285173 19.4021C0.108122 17.4264 0.0689352 14.7491 0.00189209 12.059C0.102457 9.38311 0.108594 6.68596 0.286589 4.67007C0.406039 3.07954 0.594421 2.01022 1.07741 1.33039C1.75493 0.753 2.91071 0.465959 4.63495 0.324328C6.99562 0.0481453 9.45355 -0.0061469 11.9946 -9.51198e-06C14.6097 0.00423945 17.1201 0.0788322 19.3599 0.299306C20.8707 0.420165 22.1209 0.680296 22.8098 1.31717H22.8121Z" fill="#2CA3DB"/>
</symbol><symbol id="logo-twitter" viewBox="0 0 24 21">
<path d="M23 2.00029C22.0424 2.67577 20.9821 3.1924 19.86 3.53029C19.2577 2.8378 18.4573 2.34698 17.567 2.12422C16.6767 1.90145 15.7395 1.95749 14.8821 2.28474C14.0247 2.612 13.2884 3.19469 12.773 3.95401C12.2575 4.71332 11.9877 5.61263 12 6.53029V7.53029C10.2426 7.57586 8.50127 7.1861 6.93101 6.39574C5.36074 5.60537 4.01032 4.43893 3 3.00029C3 3.00029 -1 12.0003 8 16.0003C5.94053 17.3983 3.48716 18.0992 1 18.0003C10 23.0003 21 18.0003 21 6.50029C20.9991 6.22174 20.9723 5.94388 20.92 5.67029C21.9406 4.66378 22.6608 3.393 23 2.00029Z" stroke="#565450" stroke-width="2" stroke-linecap="round" stroke-linejoin="round"/>
</symbol><symbol id="logo-viber" viewBox="0 0 24 24">
<g clip-path="url(#clip0_79_14893)">
<path fill-rule="evenodd" clip-rule="evenodd" d="M2.66667 24H21.3333C22.8061 24 24 22.8061 24 21.3333V2.66667C24 1.19391 22.8061 0 21.3333 0H2.66667C1.19391 0 0 1.19391 0 2.66667V21.3333C0 22.8061 1.19391 24 2.66667 24Z" fill="#7F4DA0"/>
<path fill-rule="evenodd" clip-rule="evenodd" d="M12 3.33332C16.7864 3.33332 20.6666 7.21352 20.6666 12C20.6666 16.7865 16.7864 20.6667 12 20.6667C7.21351 20.6667 3.33331 16.7865 3.33331 12C3.33331 7.21352 7.21351 3.33332 12 3.33332ZM12.519 6.86359C13.1083 6.93713 13.5846 7.0791 14.1071 7.33396C14.621 7.58541 14.9499 7.82316 15.385 8.2559C15.7927 8.6647 16.0188 8.97431 16.2586 9.45494C16.5927 10.1255 16.7829 10.9225 16.8154 11.8C16.8274 12.0993 16.8188 12.166 16.7503 12.2515C16.6201 12.4175 16.334 12.3901 16.2364 12.2037C16.2055 12.1421 16.197 12.0891 16.1867 11.8496C16.1696 11.4818 16.1439 11.2441 16.0925 10.9601C15.8903 9.84665 15.3559 8.9572 14.5028 8.31919C13.7918 7.78553 13.0569 7.52553 12.0942 7.46909C11.7687 7.45028 11.7122 7.43831 11.6385 7.38186C11.5015 7.27409 11.4946 7.02096 11.6265 6.90294C11.707 6.82937 11.7636 6.81911 12.0428 6.82767C12.1884 6.8328 12.4025 6.8499 12.519 6.86359ZM8.60298 7.04832C8.66295 7.06884 8.75546 7.11673 8.80857 7.15094C9.13402 7.36647 10.0402 8.52444 10.3366 9.10259C10.5062 9.4327 10.5627 9.6773 10.5096 9.85861C10.4548 10.0536 10.364 10.1562 9.95802 10.4829C9.79528 10.6146 9.64281 10.7498 9.61884 10.7857C9.55717 10.8746 9.50747 11.0491 9.50747 11.1723C9.50921 11.4579 9.69421 11.9762 9.93747 12.3747C10.1259 12.6843 10.4634 13.0811 10.7974 13.3856C11.1897 13.7448 11.5357 13.9894 11.9263 14.1827C12.4282 14.4324 12.7349 14.4957 12.9593 14.3914C13.0158 14.3657 13.0758 14.3315 13.0946 14.3161C13.1118 14.3007 13.2437 14.1399 13.3876 13.962C13.6651 13.6131 13.7285 13.5567 13.9186 13.4917C14.1602 13.4096 14.4068 13.4318 14.6552 13.5584C14.8437 13.6559 15.2548 13.9107 15.5203 14.0954C15.8698 14.34 16.6167 14.949 16.7178 15.0704C16.8959 15.2894 16.9268 15.5699 16.8068 15.8795C16.6801 16.2062 16.1867 16.8185 15.8424 17.0802C15.5306 17.3163 15.3096 17.4069 15.0184 17.4206C14.7786 17.4326 14.6792 17.4121 14.3726 17.2855C11.9674 16.2951 10.0471 14.8173 8.52246 12.7869C7.72591 11.7265 7.11947 10.6266 6.70489 9.48574C6.46337 8.82037 6.45139 8.5313 6.65008 8.19092C6.73575 8.04725 7.10063 7.69146 7.36615 7.49305C7.80813 7.16463 8.01197 7.04318 8.17472 7.00898C8.28606 6.98503 8.47963 7.00385 8.60298 7.04832ZM12.6372 8.10368C13.6771 8.2559 14.4822 8.73826 15.0098 9.52165C15.3062 9.96295 15.4912 10.4812 15.5546 11.0371C15.5768 11.2407 15.5768 11.6118 15.5529 11.6734C15.5306 11.7316 15.4586 11.8103 15.397 11.8427C15.3302 11.877 15.188 11.8736 15.1092 11.8325C14.9773 11.7658 14.9379 11.6597 14.9379 11.3724C14.9379 10.9294 14.8231 10.4624 14.6244 10.0998C14.3983 9.68585 14.0694 9.34377 13.6685 9.106C13.3242 8.90075 12.8154 8.74852 12.3512 8.7109C12.1833 8.6972 12.0908 8.663 12.0274 8.58945C11.9298 8.47826 11.9195 8.32774 12.0017 8.20289C12.0908 8.06433 12.2278 8.0421 12.6372 8.10368ZM13.0021 9.39507C13.3396 9.46692 13.5983 9.5952 13.8193 9.80217C14.1036 10.0707 14.2595 10.3957 14.328 10.8627C14.3743 11.1671 14.3554 11.2868 14.2475 11.3861C14.1464 11.4784 13.9597 11.4818 13.8467 11.3946C13.7644 11.333 13.7387 11.268 13.7199 11.0919C13.6976 10.8575 13.6565 10.6933 13.5863 10.5411C13.4355 10.2178 13.17 10.0502 12.7212 9.99545C12.5105 9.96978 12.4471 9.94584 12.3786 9.86546C12.2535 9.71664 12.3015 9.47547 12.4745 9.38652C12.5396 9.35402 12.567 9.3506 12.7109 9.35915C12.8 9.36428 12.9319 9.37967 13.0021 9.39507Z" fill="white"/>
</g>

</symbol><symbol id="logo" viewBox="0 0 176 49">
<path d="M28.4597 15.1541C25.1979 13.8252 21.7751 13.25 18 13.25C14.2249 13.25 10.5398 13.8828 7.53047 15.1259C6.96234 15.358 6.4575 15.7587 6.82242 16.497C7.11844 17.0968 14.2734 32.8672 16.9917 38.4922C17.0833 38.6822 17.2266 38.8425 17.4052 38.9547C17.5838 39.0669 17.7905 39.1265 18.0014 39.1265C18.2123 39.1265 18.419 39.0669 18.5976 38.9547C18.7762 38.8425 18.9195 38.6822 19.0111 38.4922L29.1396 16.5392C29.3639 16.0541 29.2029 15.4564 28.4597 15.1541Z" fill="#D9A404"/>
<path fill-rule="evenodd" clip-rule="evenodd" d="M6.94512 13.7014C10.178 12.3665 14.0693 11.7099 18 11.7099C21.9376 11.7099 25.5629 12.311 29.04 13.7275C29.7084 13.9994 30.2851 14.4807 30.5803 15.1768C30.8733 15.8676 30.8114 16.5925 30.5381 17.1844C30.5379 17.1848 30.5377 17.1851 30.5375 17.1855L20.4041 39.1491L20.3985 39.1607C20.1812 39.6118 19.8409 39.9925 19.4169 40.2589C18.9928 40.5253 18.5022 40.6666 18.0014 40.6666C17.5006 40.6666 17.01 40.5253 16.586 40.2589C16.162 39.9926 15.8218 39.612 15.6044 39.161C14.2371 36.3315 11.7623 30.9683 9.59888 26.2523C8.6389 24.1596 7.73838 22.1903 7.02058 20.6206C6.92842 20.419 6.83927 20.2241 6.7534 20.0363C6.37588 19.2108 6.06192 18.5245 5.83314 18.026C5.7187 17.7766 5.62613 17.5755 5.55783 17.4279C5.52363 17.354 5.49613 17.2948 5.47531 17.2504C5.46489 17.2281 5.45664 17.2106 5.45037 17.1974C5.44463 17.1854 5.44192 17.1798 5.44142 17.1788C5.44133 17.1786 5.44132 17.1785 5.44137 17.1787C5.05265 16.3916 5.04165 15.5026 5.55568 14.7517C5.96632 14.1518 6.57925 13.8511 6.94512 13.7014ZM8.47804 16.4053C8.76873 17.0367 9.26453 18.1209 9.88744 19.4831C10.5977 21.0364 11.4733 22.951 12.3986 24.968C14.3738 29.2738 16.5932 34.0853 17.9938 37.0208L27.4948 16.428C24.5618 15.2942 21.461 14.7901 18 14.7901C14.5357 14.7901 11.2003 15.348 8.47804 16.4053ZM7.98841 16.6122C7.9885 16.6121 7.9886 16.612 7.98869 16.612C7.98663 16.6135 7.98642 16.6135 7.98841 16.6122Z" fill="#870031"/>
<path d="M30.683 12.3134C27.0218 10.865 22.512 9.875 18 9.875C13.488 9.875 9.04571 10.7736 5.30719 12.2713C4.97742 12.4063 4.35938 12.7177 4.52883 13.2416L5.20945 14.9375C5.4907 15.5141 5.81906 15.5141 6.26836 15.5141C6.39422 15.5141 6.57 15.4437 6.78024 15.3608C10.3579 13.9711 14.1619 13.2555 18 13.25C21.9909 13.25 26.0796 14.0938 29.2219 15.3594C29.4743 15.4578 29.6149 15.5127 29.7338 15.5127C30.1964 15.5127 30.4636 15.6666 30.7884 14.9431L31.4754 13.25C31.6167 12.8281 31.1245 12.4892 30.683 12.3134Z" fill="#D9A404"/>
<path fill-rule="evenodd" clip-rule="evenodd" d="M4.73447 10.8416C8.65617 9.27055 13.293 8.33489 18 8.33489C22.7232 8.33489 27.4248 9.36819 31.2495 10.8813L31.2511 10.8819L31.2526 10.8825C31.5722 11.0098 32.0171 11.2333 32.3829 11.5965C32.7607 11.9716 33.2675 12.749 32.9357 13.7392L32.9205 13.7846L32.205 15.5482L32.1934 15.5739C31.9704 16.0706 31.5747 16.7169 30.7746 16.9684C30.4389 17.074 30.1415 17.0694 29.9974 17.0647C29.8669 17.0604 29.8324 17.0572 29.8107 17.0553C29.7925 17.0536 29.7833 17.0528 29.7337 17.0528C29.4423 17.0528 29.2021 16.9856 29.0599 16.9402C28.9305 16.8989 28.7907 16.8444 28.6841 16.8027L28.6544 16.7911L28.6465 16.788C25.6892 15.5968 21.7965 14.7903 18.0012 14.7901C14.3548 14.7954 10.7409 15.4751 7.34178 16.7949C7.33611 16.7971 7.33021 16.7994 7.3241 16.8019C7.23403 16.8375 7.09917 16.8908 6.96889 16.9332C6.84443 16.9736 6.58101 17.0542 6.26836 17.0542C6.2574 17.0542 6.24439 17.0543 6.22948 17.0544C6.0426 17.0562 5.55767 17.0607 5.08482 16.8642C4.46416 16.6062 4.07533 16.1254 3.82525 15.6127L3.80087 15.5627L3.07979 13.766L3.06349 13.7156C2.72411 12.6665 3.26518 11.8654 3.68934 11.476C4.07416 11.1228 4.52364 10.9279 4.7237 10.846L4.72907 10.8438L4.73447 10.8416ZM6.3058 13.5343L6.43059 13.8452C10.1247 12.4393 14.044 11.7155 17.9978 11.7099L17.9989 11.7099H18C22.0928 11.7099 26.2793 12.5519 29.5732 13.8418L29.6807 13.577C26.2635 12.2855 22.1238 11.4151 18 11.4151C13.8542 11.4151 9.77201 12.2097 6.3058 13.5343ZM30.0987 13.9861C30.0987 13.9861 30.0987 13.9861 30.0987 13.9861C30.1054 13.9864 30.1086 13.9863 30.1085 13.9862L30.0987 13.9861Z" fill="#870031"/>
<path d="M13.5 22.25C14.7426 22.25 15.75 21.2426 15.75 20C15.75 18.7574 14.7426 17.75 13.5 17.75C12.2574 17.75 11.25 18.7574 11.25 20C11.25 21.2426 12.2574 22.25 13.5 22.25Z" fill="#4D734F"/>
<path d="M22.5 23.375C23.7426 23.375 24.75 22.3676 24.75 21.125C24.75 19.8824 23.7426 18.875 22.5 18.875C21.2574 18.875 20.25 19.8824 20.25 21.125C20.25 22.3676 21.2574 23.375 22.5 23.375Z" fill="#C0123C"/>
<path d="M18 31.25C19.2426 31.25 20.25 30.2426 20.25 29C20.25 27.7574 19.2426 26.75 18 26.75C16.7574 26.75 15.75 27.7574 15.75 29C15.75 30.2426 16.7574 31.25 18 31.25Z" fill="#F2EDD5"/>
<path d="M72.4073 19.312C72.4073 20.8987 71.9966 22.3547 71.1753 23.68C70.3539 25.0053 69.1593 26.088 67.5913 26.928C66.0233 27.768 64.1566 28.2627 61.9913 28.412L60.7873 35.16C60.3206 37.7547 59.0513 39.052 56.9793 39.052C55.8406 39.052 54.7859 38.716 53.8153 38.044C52.8633 37.372 52.0979 36.3453 51.5193 34.964C50.9406 33.5827 50.6513 31.884 50.6513 29.868C50.6513 26.0787 51.2579 22.868 52.4713 20.236C53.7033 17.5853 55.3459 15.6067 57.3993 14.3C59.4713 12.9747 61.7486 12.312 64.2313 12.312C65.9859 12.312 67.4699 12.62 68.6833 13.236C69.9153 13.852 70.8393 14.692 71.4553 15.756C72.0899 16.8013 72.4073 17.9867 72.4073 19.312ZM62.4953 25.528C66.3219 25.0427 68.2353 23.0547 68.2353 19.564C68.2353 18.332 67.8246 17.3333 67.0033 16.568C66.2006 15.784 64.9499 15.392 63.2513 15.392C61.3286 15.392 59.6486 15.9987 58.2113 17.212C56.7926 18.4253 55.6913 20.1147 54.9073 22.28C54.1419 24.4267 53.7593 26.8813 53.7593 29.644C53.7593 30.8013 53.8713 31.828 54.0953 32.724C54.3379 33.62 54.6366 34.32 54.9913 34.824C55.3646 35.3093 55.7193 35.552 56.0553 35.552C56.5219 35.552 56.8766 34.908 57.1193 33.62L58.0433 28.328C57.3153 28.216 56.9979 28.1693 57.0913 28.188C56.5313 28.0947 56.1673 27.9267 55.9993 27.684C55.8313 27.4227 55.7473 27.096 55.7473 26.704C55.7473 26.2933 55.8593 25.9667 56.0833 25.724C56.3259 25.4813 56.6526 25.36 57.0633 25.36C57.2499 25.36 57.3899 25.3693 57.4833 25.388C57.9313 25.4627 58.2766 25.5093 58.5193 25.528C58.7619 24.072 59.1073 22.1213 59.5553 19.676C59.6673 19.0413 59.9193 18.5933 60.3113 18.332C60.7219 18.052 61.1979 17.912 61.7393 17.912C62.3553 17.912 62.7939 18.0333 63.0553 18.276C63.3353 18.5 63.4753 18.864 63.4753 19.368C63.4753 19.6667 63.4566 19.9093 63.4193 20.096L62.4953 25.528ZM84.332 29.756C84.5747 29.756 84.7613 29.868 84.892 30.092C85.0413 30.316 85.116 30.624 85.116 31.016C85.116 31.7627 84.9387 32.3413 84.584 32.752C83.8933 33.592 82.9133 34.3667 81.644 35.076C80.3933 35.7853 79.0493 36.14 77.612 36.14C75.652 36.14 74.1307 35.608 73.048 34.544C71.9653 33.48 71.424 32.024 71.424 30.176C71.424 28.888 71.6947 27.6933 72.236 26.592C72.7773 25.472 73.524 24.5853 74.476 23.932C75.4467 23.2787 76.5387 22.952 77.752 22.952C78.8347 22.952 79.7027 23.2787 80.356 23.932C81.0093 24.5667 81.336 25.4347 81.336 26.536C81.336 27.824 80.8693 28.9347 79.936 29.868C79.0213 30.7827 77.4627 31.5107 75.26 32.052C75.7267 32.9107 76.6133 33.34 77.92 33.34C78.76 33.34 79.712 33.0507 80.776 32.472C81.8587 31.8747 82.792 31.1 83.576 30.148C83.8 29.8867 84.052 29.756 84.332 29.756ZM77.276 25.696C76.5853 25.696 75.9973 26.0973 75.512 26.9C75.0453 27.7027 74.812 28.6733 74.812 29.812V29.868C75.9133 29.6067 76.7813 29.2147 77.416 28.692C78.0507 28.1693 78.368 27.5627 78.368 26.872C78.368 26.5173 78.2653 26.2373 78.06 26.032C77.8733 25.808 77.612 25.696 77.276 25.696ZM98.3351 29.756C98.5777 29.756 98.7644 29.868 98.8951 30.092C99.0444 30.316 99.1191 30.624 99.1191 31.016C99.1191 31.7627 98.9417 32.3413 98.5871 32.752C97.7844 33.7413 96.9164 34.5533 95.9831 35.188C95.0684 35.8227 94.0231 36.14 92.8471 36.14C91.8577 36.14 91.0551 35.7853 90.4391 35.076C89.3751 35.7667 88.2644 36.1213 87.1071 36.14C86.8644 39.7427 86.3137 42.748 85.4551 45.156C84.5964 47.5827 83.3364 48.796 81.6751 48.796C80.6671 48.796 79.9204 48.432 79.4351 47.704C78.9497 46.976 78.7071 45.968 78.7071 44.68C78.7071 42.8507 79.1271 40.7133 79.9671 38.268C80.8071 35.8413 82.1044 33.1627 83.8591 30.232C83.8591 27.5067 83.8404 25.612 83.8031 24.548C83.7844 24.0067 83.9991 23.5773 84.4471 23.26C84.8951 22.9427 85.4551 22.784 86.1271 22.784C86.5191 22.784 86.7991 22.868 86.9671 23.036C87.1537 23.1853 87.2564 23.4933 87.2751 23.96C87.2751 24.4267 87.2844 24.772 87.3031 24.996C87.9004 24.2493 88.4884 23.7173 89.0671 23.4C89.6457 23.064 90.2617 22.896 90.9151 22.896C91.9604 22.896 92.8097 23.316 93.4631 24.156C94.1351 24.996 94.4711 26.0973 94.4711 27.46C94.4711 28.4493 94.3124 29.4107 93.9951 30.344C93.6777 31.2773 93.2391 32.1267 92.6791 32.892C93.0711 33.004 93.3977 33.06 93.6591 33.06C94.2751 33.06 94.8631 32.836 95.4231 32.388C95.9831 31.94 96.7017 31.1933 97.5791 30.148C97.8031 29.8867 98.0551 29.756 98.3351 29.756ZM87.2471 33.452C87.9191 33.3027 88.5351 32.9387 89.0951 32.36C89.6737 31.7627 90.1311 31.0347 90.4671 30.176C90.8031 29.2987 90.9711 28.384 90.9711 27.432C90.9711 26.872 90.8591 26.452 90.6351 26.172C90.4111 25.8733 90.1124 25.724 89.7391 25.724C89.0671 25.724 88.2551 26.4333 87.3031 27.852C87.2844 28.6733 87.2751 29.8773 87.2751 31.464C87.2751 32.3227 87.2657 32.9853 87.2471 33.452ZM81.8991 46.052C82.4031 46.052 82.8231 44.9507 83.1591 42.748C83.4951 40.564 83.7097 37.8387 83.8031 34.572C83.0004 36.4387 82.3657 38.2213 81.8991 39.92C81.4324 41.6187 81.1991 43.0467 81.1991 44.204C81.1991 44.8013 81.2737 45.2587 81.4231 45.576C81.5537 45.8933 81.7124 46.052 81.8991 46.052ZM106.888 30.596C107.13 30.596 107.317 30.708 107.448 30.932C107.597 31.156 107.672 31.464 107.672 31.856C107.672 32.528 107.513 33.1067 107.196 33.592C106.673 34.3947 105.982 35.02 105.124 35.468C104.284 35.916 103.276 36.14 102.1 36.14C100.308 36.14 98.9169 35.608 97.9275 34.544C96.9382 33.4613 96.4435 32.0053 96.4435 30.176C96.4435 28.888 96.7142 27.6933 97.2555 26.592C97.7969 25.472 98.5435 24.5853 99.4955 23.932C100.466 23.2787 101.558 22.952 102.772 22.952C103.854 22.952 104.722 23.2787 105.376 23.932C106.029 24.5667 106.356 25.4347 106.356 26.536C106.356 27.824 105.889 28.9347 104.956 29.868C104.041 30.7827 102.473 31.5107 100.252 32.052C100.7 32.9107 101.456 33.34 102.52 33.34C103.285 33.34 103.91 33.1627 104.396 32.808C104.9 32.4533 105.478 31.856 106.132 31.016C106.356 30.736 106.608 30.596 106.888 30.596ZM102.296 25.696C101.605 25.696 101.017 26.0973 100.532 26.9C100.065 27.7027 99.8315 28.6733 99.8315 29.812V29.868C100.933 29.6067 101.801 29.2147 102.436 28.692C103.07 28.1693 103.388 27.5627 103.388 26.872C103.388 26.5173 103.285 26.2373 103.08 26.032C102.893 25.808 102.632 25.696 102.296 25.696ZM110.111 29.112C109.663 29.1493 109.299 29.0187 109.019 28.72C108.758 28.4213 108.627 28.0013 108.627 27.46C108.627 26.956 108.749 26.5827 108.991 26.34C109.253 26.0973 109.626 25.9573 110.111 25.92L115.851 25.36C116.318 25.3227 116.673 25.444 116.915 25.724C117.177 25.9853 117.307 26.3773 117.307 26.9C117.307 27.908 116.822 28.4587 115.851 28.552L110.111 29.112ZM134.62 29.756C134.863 29.756 135.05 29.868 135.18 30.092C135.33 30.316 135.404 30.624 135.404 31.016C135.404 31.7627 135.227 32.3413 134.872 32.752C134.07 33.7413 133.202 34.5533 132.268 35.188C131.354 35.8227 130.308 36.14 129.132 36.14C128.143 36.14 127.34 35.7853 126.724 35.076C125.66 35.7667 124.55 36.1213 123.392 36.14C123.15 39.7427 122.599 42.748 121.74 45.156C120.882 47.5827 119.622 48.796 117.96 48.796C116.952 48.796 116.206 48.432 115.72 47.704C115.235 46.976 114.992 45.968 114.992 44.68C114.992 42.8507 115.412 40.7133 116.252 38.268C117.092 35.8413 118.39 33.1627 120.144 30.232C120.144 27.5067 120.126 25.612 120.088 24.548C120.07 24.0067 120.284 23.5773 120.732 23.26C121.18 22.9427 121.74 22.784 122.412 22.784C122.804 22.784 123.084 22.868 123.252 23.036C123.439 23.1853 123.542 23.4933 123.56 23.96C123.56 24.4267 123.57 24.772 123.588 24.996C124.186 24.2493 124.774 23.7173 125.352 23.4C125.931 23.064 126.547 22.896 127.2 22.896C128.246 22.896 129.095 23.316 129.748 24.156C130.42 24.996 130.756 26.0973 130.756 27.46C130.756 28.4493 130.598 29.4107 130.28 30.344C129.963 31.2773 129.524 32.1267 128.964 32.892C129.356 33.004 129.683 33.06 129.944 33.06C130.56 33.06 131.148 32.836 131.708 32.388C132.268 31.94 132.987 31.1933 133.864 30.148C134.088 29.8867 134.34 29.756 134.62 29.756ZM123.532 33.452C124.204 33.3027 124.82 32.9387 125.38 32.36C125.959 31.7627 126.416 31.0347 126.752 30.176C127.088 29.2987 127.256 28.384 127.256 27.432C127.256 26.872 127.144 26.452 126.92 26.172C126.696 25.8733 126.398 25.724 126.024 25.724C125.352 25.724 124.54 26.4333 123.588 27.852C123.57 28.6733 123.56 29.8773 123.56 31.464C123.56 32.3227 123.551 32.9853 123.532 33.452ZM118.184 46.052C118.688 46.052 119.108 44.9507 119.444 42.748C119.78 40.564 119.995 37.8387 120.088 34.572C119.286 36.4387 118.651 38.2213 118.184 39.92C117.718 41.6187 117.484 43.0467 117.484 44.204C117.484 44.8013 117.559 45.2587 117.708 45.576C117.839 45.8933 117.998 46.052 118.184 46.052ZM136.817 21.104C136.033 21.104 135.445 20.9267 135.053 20.572C134.661 20.1987 134.465 19.6853 134.465 19.032C134.465 18.3787 134.717 17.8373 135.221 17.408C135.743 16.96 136.387 16.736 137.153 16.736C137.843 16.736 138.403 16.904 138.833 17.24C139.262 17.576 139.477 18.052 139.477 18.668C139.477 19.4147 139.234 20.012 138.749 20.46C138.263 20.8893 137.619 21.104 136.817 21.104ZM136.593 36.14C135.379 36.14 134.493 35.7107 133.933 34.852C133.391 33.9933 133.121 32.8547 133.121 31.436C133.121 30.596 133.223 29.5227 133.429 28.216C133.653 26.8907 133.933 25.6587 134.269 24.52C134.437 23.9227 134.661 23.512 134.941 23.288C135.221 23.064 135.669 22.952 136.285 22.952C137.237 22.952 137.713 23.2693 137.713 23.904C137.713 24.3707 137.535 25.4533 137.181 27.152C136.733 29.2053 136.509 30.596 136.509 31.324C136.509 31.884 136.583 32.3133 136.733 32.612C136.882 32.9107 137.134 33.06 137.489 33.06C137.825 33.06 138.245 32.8267 138.749 32.36C139.253 31.8933 139.925 31.156 140.765 30.148C140.989 29.8867 141.241 29.756 141.521 29.756C141.763 29.756 141.95 29.868 142.081 30.092C142.23 30.316 142.305 30.624 142.305 31.016C142.305 31.7627 142.127 32.3413 141.773 32.752C139.925 35.0107 138.198 36.14 136.593 36.14ZM153.464 29.756C153.707 29.756 153.894 29.868 154.024 30.092C154.174 30.316 154.248 30.624 154.248 31.016C154.248 31.7067 154.071 32.2853 153.716 32.752C152.839 33.8907 151.747 34.7867 150.44 35.44C149.152 36.0933 147.696 36.42 146.072 36.42C144.803 36.42 143.702 36.2333 142.768 35.86C141.835 35.468 141.116 34.9453 140.612 34.292C140.127 33.62 139.884 32.8733 139.884 32.052C139.884 30.82 140.379 29.728 141.368 28.776C142.358 27.824 143.776 26.9093 145.624 26.032L141.032 26.144C140.622 26.1627 140.304 26.0227 140.08 25.724C139.875 25.4067 139.772 25.0333 139.772 24.604C139.772 24.156 139.875 23.764 140.08 23.428C140.304 23.0733 140.603 22.896 140.976 22.896C141.835 22.896 142.983 22.9613 144.42 23.092C144.719 23.1107 145.26 23.148 146.044 23.204C146.847 23.26 147.519 23.288 148.06 23.288C148.247 23.288 148.602 23.2133 149.124 23.064C149.218 23.0453 149.395 22.9987 149.656 22.924C149.936 22.8493 150.17 22.812 150.356 22.812C150.655 22.812 150.898 22.9427 151.084 23.204C151.29 23.4653 151.392 23.8667 151.392 24.408C151.392 25.0053 151.252 25.472 150.972 25.808C150.692 26.144 150.254 26.4427 149.656 26.704C147.958 27.432 146.548 28.216 145.428 29.056C144.308 29.8773 143.748 30.6987 143.748 31.52C143.748 32.0427 143.991 32.472 144.476 32.808C144.962 33.144 145.68 33.312 146.632 33.312C147.678 33.312 148.732 33.0507 149.796 32.528C150.879 32.0053 151.85 31.212 152.708 30.148C152.932 29.8867 153.184 29.756 153.464 29.756ZM165.933 29.756C166.176 29.756 166.363 29.868 166.493 30.092C166.643 30.316 166.717 30.624 166.717 31.016C166.717 31.7067 166.54 32.2853 166.185 32.752C165.308 33.8907 164.216 34.7867 162.909 35.44C161.621 36.0933 160.165 36.42 158.541 36.42C157.272 36.42 156.171 36.2333 155.237 35.86C154.304 35.468 153.585 34.9453 153.081 34.292C152.596 33.62 152.353 32.8733 152.353 32.052C152.353 30.82 152.848 29.728 153.837 28.776C154.827 27.824 156.245 26.9093 158.093 26.032L153.501 26.144C153.091 26.1627 152.773 26.0227 152.549 25.724C152.344 25.4067 152.241 25.0333 152.241 24.604C152.241 24.156 152.344 23.764 152.549 23.428C152.773 23.0733 153.072 22.896 153.445 22.896C154.304 22.896 155.452 22.9613 156.889 23.092C157.188 23.1107 157.729 23.148 158.513 23.204C159.316 23.26 159.988 23.288 160.529 23.288C160.716 23.288 161.071 23.2133 161.593 23.064C161.687 23.0453 161.864 22.9987 162.125 22.924C162.405 22.8493 162.639 22.812 162.825 22.812C163.124 22.812 163.367 22.9427 163.553 23.204C163.759 23.4653 163.861 23.8667 163.861 24.408C163.861 25.0053 163.721 25.472 163.441 25.808C163.161 26.144 162.723 26.4427 162.125 26.704C160.427 27.432 159.017 28.216 157.897 29.056C156.777 29.8773 156.217 30.6987 156.217 31.52C156.217 32.0427 156.46 32.472 156.945 32.808C157.431 33.144 158.149 33.312 159.101 33.312C160.147 33.312 161.201 33.0507 162.265 32.528C163.348 32.0053 164.319 31.212 165.177 30.148C165.401 29.8867 165.653 29.756 165.933 29.756ZM167.377 36.14C166.313 36.14 165.445 35.72 164.773 34.88C164.119 34.04 163.793 32.9387 163.793 31.576C163.793 30.0827 164.138 28.6733 164.829 27.348C165.519 26.004 166.434 24.9307 167.573 24.128C168.73 23.3067 169.953 22.896 171.241 22.896C171.651 22.896 171.922 22.98 172.053 23.148C172.202 23.2973 172.323 23.5773 172.417 23.988C172.771 23.9133 173.163 23.876 173.593 23.876C174.041 23.876 174.386 23.988 174.629 24.212C174.871 24.436 174.993 24.7533 174.993 25.164C174.993 25.5933 174.899 26.34 174.713 27.404C174.507 28.5427 174.349 29.6347 174.237 30.68C174.125 31.7067 174.069 32.864 174.069 34.152C174.069 34.8613 173.919 35.3747 173.621 35.692C173.341 35.9907 172.874 36.14 172.221 36.14C171.586 36.14 171.11 35.9907 170.793 35.692C170.494 35.3747 170.345 34.8707 170.345 34.18L170.373 33.732C169.794 35.3373 168.795 36.14 167.377 36.14ZM168.469 33.312C168.991 33.312 169.467 32.948 169.897 32.22C170.326 31.492 170.709 30.1947 171.044 28.328L171.577 25.5C170.811 25.5187 170.102 25.8173 169.449 26.396C168.795 26.956 168.273 27.7027 167.881 28.636C167.489 29.5693 167.293 30.5587 167.293 31.604C167.293 32.164 167.395 32.5933 167.601 32.892C167.825 33.172 168.114 33.312 168.469 33.312Z" fill="#870031"/>
</symbol><symbol id="minus" viewBox="0 0 16 16">
<g clip-path="url(#clip0_67_10341)">
<path d="M1 8H15" stroke="#565450" stroke-linecap="round" stroke-linejoin="round"/>
</g>

</symbol><symbol id="plus" viewBox="0 0 16 16">
<g clip-path="url(#clip0_67_10331)">
<path d="M8 1V15" stroke="#565450" stroke-linecap="round" stroke-linejoin="round"/>
<path d="M1 8H15" stroke="#565450" stroke-linecap="round" stroke-linejoin="round"/>
</g>

</symbol></svg>