<svg width="16" height="16" viewBox="0 0 16 16" fill="none" xmlns="http://www.w3.org/2000/svg">
<g clip-path="url(#clip0_22_988)">
<g clip-path="url(#clip1_22_988)">
<path d="M14.6304 11.5897V13.5897C14.6312 13.7753 14.5931 13.9591 14.5188 14.1292C14.4444 14.2994 14.3353 14.4521 14.1985 14.5776C14.0617 14.7031 13.9001 14.7987 13.7243 14.8581C13.5484 14.9176 13.362 14.9397 13.1771 14.923C11.1256 14.7001 9.15508 13.9991 7.42375 12.8763C5.81297 11.8528 4.44731 10.4871 3.42375 8.87634C2.29707 7.13715 1.59591 5.15701 1.37708 3.09634C1.36043 2.91199 1.38233 2.72618 1.44142 2.55076C1.5005 2.37533 1.59547 2.21414 1.72026 2.07742C1.84506 1.94071 1.99695 1.83148 2.16628 1.75669C2.3356 1.6819 2.51865 1.64318 2.70375 1.64301H4.70375C5.02729 1.63982 5.34095 1.75439 5.58626 1.96536C5.83157 2.17633 5.9918 2.46931 6.03708 2.78968C6.1215 3.42972 6.27805 4.05816 6.50375 4.66301C6.59345 4.90162 6.61286 5.16095 6.55969 5.41026C6.50652 5.65957 6.38299 5.88842 6.20375 6.06968L5.35709 6.91634C6.30612 8.58537 7.68805 9.96731 9.35709 10.9163L10.2038 10.0697C10.385 9.89043 10.6139 9.76691 10.8632 9.71374C11.1125 9.66057 11.3718 9.67998 11.6104 9.76968C12.2153 9.99538 12.8437 10.1519 13.4838 10.2363C13.8076 10.282 14.1034 10.4451 14.3148 10.6947C14.5262 10.9442 14.6385 11.2627 14.6304 11.5897Z" stroke="#565450" stroke-linecap="round" stroke-linejoin="round"/>
</g>
</g>
<defs>
<clipPath id="clip0_22_988">
<rect width="16" height="16" fill="white"/>
</clipPath>
<clipPath id="clip1_22_988">
<rect width="16" height="16" fill="white" transform="translate(-0.0362549 0.309677)"/>
</clipPath>
</defs>
</svg>
