<svg id="icon-cart" width="14" height="16" viewBox="0 0 14 16" fill="none" xmlns="http://www.w3.org/2000/svg">
<path d="M1 3.99999L3 1.33333H11L13 3.99999M1 3.99999V13.3333C1 13.6869 1.14048 14.0261 1.39052 14.2761C1.64057 14.5262 1.97971 14.6667 2.33333 14.6667H11.6667C12.0203 14.6667 12.3594 14.5262 12.6095 14.2761C12.8595 14.0261 13 13.6869 13 13.3333V3.99999M1 3.99999H13M9.66667 6.66666C9.66667 7.37391 9.38572 8.05218 8.88562 8.55228C8.38552 9.05238 7.70724 9.33333 7 9.33333C6.29276 9.33333 5.61448 9.05238 5.11438 8.55228C4.61428 8.05218 4.33333 7.37391 4.33333 6.66666" stroke="white" stroke-linecap="round" stroke-linejoin="round"/>
</svg>
