<svg id="logo-red" width="176" height="49" viewBox="0 0 176 49" fill="none" xmlns="http://www.w3.org/2000/svg">
<path d="M28.4601 15.1541C25.1983 13.8252 21.7755 13.25 18.0004 13.25C14.2254 13.25 10.5403 13.8828 7.5309 15.1259C6.96278 15.358 6.45794 15.7587 6.82286 16.497C7.11887 17.0968 14.2739 32.8672 16.9922 38.4922C17.0837 38.6822 17.227 38.8425 17.4056 38.9547C17.5843 39.0669 17.7909 39.1265 18.0018 39.1265C18.2128 39.1265 18.4194 39.0669 18.598 38.9547C18.7766 38.8425 18.92 38.6822 19.0115 38.4922L29.14 16.5392C29.3643 16.0541 29.2033 15.4564 28.4601 15.1541Z" fill="white"/>
<path fill-rule="evenodd" clip-rule="evenodd" d="M6.94541 13.7015C10.1783 12.3666 14.0696 11.71 18.0003 11.71C21.9379 11.71 25.5632 12.3111 29.0403 13.7276C29.7086 13.9994 30.2854 14.4808 30.5806 15.1768C30.8736 15.8677 30.8117 16.5926 30.5384 17.1845C30.5382 17.1849 30.538 17.1852 30.5378 17.1856L20.4044 39.1492L20.3988 39.1608C20.1815 39.6119 19.8412 39.9926 19.4171 40.2589C18.9931 40.5253 18.5025 40.6666 18.0017 40.6666C17.5009 40.6666 17.0103 40.5253 16.5863 40.2589C16.1623 39.9926 15.8221 39.6121 15.6047 39.1611C14.2374 36.3315 11.7626 30.9684 9.59918 26.2524C8.63919 24.1597 7.73868 22.1904 7.02088 20.6206C6.92872 20.4191 6.83957 20.2241 6.7537 20.0364C6.37618 19.2108 6.06222 18.5246 5.83344 18.0261C5.71899 17.7767 5.62643 17.5755 5.55813 17.4279C5.52393 17.354 5.49643 17.2949 5.4756 17.2504C5.46519 17.2282 5.45694 17.2107 5.45067 17.1975C5.44493 17.1854 5.44222 17.1799 5.44172 17.1788C5.44163 17.1787 5.44161 17.1786 5.44167 17.1787C5.05295 16.3917 5.04195 15.5027 5.55598 14.7518C5.96662 14.1519 6.57955 13.8512 6.94541 13.7015ZM8.47834 16.4054C8.76903 17.0368 9.26482 18.121 9.88774 19.4832C10.598 21.0364 11.4736 22.9511 12.3989 24.9681C14.3741 29.2738 16.5935 34.0854 17.9941 37.0209L27.4951 16.4281C24.5621 15.2943 21.4613 14.7902 18.0003 14.7902C14.536 14.7902 11.2006 15.3481 8.47834 16.4054ZM7.98871 16.6122C7.9888 16.6122 7.9889 16.6121 7.98899 16.612C7.98693 16.6135 7.98672 16.6136 7.98871 16.6122Z" fill="#C0123C"/>
<path d="M30.683 12.3134C27.0218 10.865 22.512 9.875 18 9.875C13.4881 9.875 9.04574 10.7736 5.30722 12.2713C4.97745 12.4063 4.35941 12.7177 4.52886 13.2416L5.20949 14.9375C5.49074 15.5141 5.8191 15.5141 6.26839 15.5141C6.39425 15.5141 6.57003 15.4437 6.78027 15.3608C10.358 13.9711 14.1619 13.2555 18 13.25C21.991 13.25 26.0796 14.0938 29.2219 15.3594C29.4743 15.4578 29.615 15.5127 29.7338 15.5127C30.1964 15.5127 30.4636 15.6666 30.7885 14.9431L31.4754 13.25C31.6168 12.8281 31.1246 12.4892 30.683 12.3134Z" fill="#92908D"/>
<path fill-rule="evenodd" clip-rule="evenodd" d="M4.73478 10.8417C8.65648 9.27062 13.2933 8.33496 18.0003 8.33496C22.7235 8.33496 27.4251 9.36826 31.2499 10.8814L31.2514 10.882L31.2529 10.8826C31.5725 11.0098 32.0174 11.2334 32.3832 11.5966C32.761 11.9717 33.2678 12.749 32.936 13.7393L32.9208 13.7847L32.2053 15.5483L32.1937 15.574C31.9707 16.0707 31.5751 16.717 30.775 16.9685C30.4392 17.074 30.1418 17.0695 29.9977 17.0648C29.8672 17.0605 29.8327 17.0573 29.811 17.0553C29.7928 17.0537 29.7836 17.0528 29.7341 17.0528C29.4426 17.0528 29.2025 16.9856 29.0602 16.9403C28.9308 16.899 28.791 16.8444 28.6844 16.8028L28.6547 16.7912L28.6468 16.788C25.6895 15.5969 21.7968 14.7903 18.0015 14.7902C14.3551 14.7955 10.7412 15.4752 7.34209 16.7949C7.33642 16.7972 7.33052 16.7995 7.32442 16.8019C7.23434 16.8375 7.09948 16.8909 6.9692 16.9332C6.84474 16.9737 6.58132 17.0542 6.26867 17.0542C6.25771 17.0542 6.2447 17.0544 6.22979 17.0545C6.04291 17.0562 5.55799 17.0608 5.08513 16.8642C4.46447 16.6063 4.07564 16.1254 3.82557 15.6128L3.80118 15.5628L3.08011 13.7661L3.0638 13.7157C2.72442 12.6665 3.26549 11.8654 3.68965 11.4761C4.07447 11.1228 4.52395 10.9279 4.72401 10.846L4.72939 10.8438L4.73478 10.8417ZM6.30611 13.5343L6.4309 13.8453C10.125 12.4393 14.0443 11.7156 17.9981 11.71L17.9992 11.71H18.0003C22.0931 11.71 26.2796 12.552 29.5735 13.8419L29.681 13.5771C26.2639 12.2856 22.1241 11.4152 18.0003 11.4152C13.8545 11.4152 9.77232 12.2098 6.30611 13.5343ZM30.099 13.9862C30.099 13.9862 30.099 13.9862 30.099 13.9862C30.1057 13.9864 30.1089 13.9864 30.1088 13.9863L30.099 13.9862Z" fill="#C0123C"/>
<path d="M13.5 22.25C14.7426 22.25 15.75 21.2426 15.75 20C15.75 18.7574 14.7426 17.75 13.5 17.75C12.2574 17.75 11.25 18.7574 11.25 20C11.25 21.2426 12.2574 22.25 13.5 22.25Z" fill="#C0123C"/>
<path d="M22.5 23.375C23.7426 23.375 24.75 22.3676 24.75 21.125C24.75 19.8824 23.7426 18.875 22.5 18.875C21.2574 18.875 20.25 19.8824 20.25 21.125C20.25 22.3676 21.2574 23.375 22.5 23.375Z" fill="#C0123C"/>
<path d="M18 31.25C19.2426 31.25 20.25 30.2426 20.25 29C20.25 27.7574 19.2426 26.75 18 26.75C16.7574 26.75 15.75 27.7574 15.75 29C15.75 30.2426 16.7574 31.25 18 31.25Z" fill="#C0123C"/>
<path d="M72.4073 19.312C72.4073 20.8987 71.9966 22.3547 71.1753 23.68C70.3539 25.0053 69.1593 26.088 67.5913 26.928C66.0233 27.768 64.1566 28.2627 61.9913 28.412L60.7873 35.16C60.3206 37.7547 59.0513 39.052 56.9793 39.052C55.8406 39.052 54.7859 38.716 53.8153 38.044C52.8633 37.372 52.0979 36.3453 51.5193 34.964C50.9406 33.5827 50.6513 31.884 50.6513 29.868C50.6513 26.0787 51.2579 22.868 52.4713 20.236C53.7033 17.5853 55.3459 15.6067 57.3993 14.3C59.4713 12.9747 61.7486 12.312 64.2313 12.312C65.9859 12.312 67.4699 12.62 68.6833 13.236C69.9153 13.852 70.8393 14.692 71.4553 15.756C72.0899 16.8013 72.4073 17.9867 72.4073 19.312ZM62.4953 25.528C66.3219 25.0427 68.2353 23.0547 68.2353 19.564C68.2353 18.332 67.8246 17.3333 67.0033 16.568C66.2006 15.784 64.9499 15.392 63.2513 15.392C61.3286 15.392 59.6486 15.9987 58.2113 17.212C56.7926 18.4253 55.6913 20.1147 54.9073 22.28C54.1419 24.4267 53.7593 26.8813 53.7593 29.644C53.7593 30.8013 53.8713 31.828 54.0953 32.724C54.3379 33.62 54.6366 34.32 54.9913 34.824C55.3646 35.3093 55.7193 35.552 56.0553 35.552C56.5219 35.552 56.8766 34.908 57.1193 33.62L58.0433 28.328C57.3153 28.216 56.9979 28.1693 57.0913 28.188C56.5313 28.0947 56.1673 27.9267 55.9993 27.684C55.8313 27.4227 55.7473 27.096 55.7473 26.704C55.7473 26.2933 55.8593 25.9667 56.0833 25.724C56.3259 25.4813 56.6526 25.36 57.0633 25.36C57.2499 25.36 57.3899 25.3693 57.4833 25.388C57.9313 25.4627 58.2766 25.5093 58.5193 25.528C58.7619 24.072 59.1073 22.1213 59.5553 19.676C59.6673 19.0413 59.9193 18.5933 60.3113 18.332C60.7219 18.052 61.1979 17.912 61.7393 17.912C62.3553 17.912 62.7939 18.0333 63.0553 18.276C63.3353 18.5 63.4753 18.864 63.4753 19.368C63.4753 19.6667 63.4566 19.9093 63.4193 20.096L62.4953 25.528ZM84.332 29.756C84.5747 29.756 84.7613 29.868 84.892 30.092C85.0413 30.316 85.116 30.624 85.116 31.016C85.116 31.7627 84.9387 32.3413 84.584 32.752C83.8933 33.592 82.9133 34.3667 81.644 35.076C80.3933 35.7853 79.0493 36.14 77.612 36.14C75.652 36.14 74.1307 35.608 73.048 34.544C71.9653 33.48 71.424 32.024 71.424 30.176C71.424 28.888 71.6947 27.6933 72.236 26.592C72.7773 25.472 73.524 24.5853 74.476 23.932C75.4467 23.2787 76.5387 22.952 77.752 22.952C78.8347 22.952 79.7027 23.2787 80.356 23.932C81.0093 24.5667 81.336 25.4347 81.336 26.536C81.336 27.824 80.8693 28.9347 79.936 29.868C79.0213 30.7827 77.4627 31.5107 75.26 32.052C75.7267 32.9107 76.6133 33.34 77.92 33.34C78.76 33.34 79.712 33.0507 80.776 32.472C81.8587 31.8747 82.792 31.1 83.576 30.148C83.8 29.8867 84.052 29.756 84.332 29.756ZM77.276 25.696C76.5853 25.696 75.9973 26.0973 75.512 26.9C75.0453 27.7027 74.812 28.6733 74.812 29.812V29.868C75.9133 29.6067 76.7813 29.2147 77.416 28.692C78.0507 28.1693 78.368 27.5627 78.368 26.872C78.368 26.5173 78.2653 26.2373 78.06 26.032C77.8733 25.808 77.612 25.696 77.276 25.696ZM98.3351 29.756C98.5777 29.756 98.7644 29.868 98.8951 30.092C99.0444 30.316 99.1191 30.624 99.1191 31.016C99.1191 31.7627 98.9417 32.3413 98.5871 32.752C97.7844 33.7413 96.9164 34.5533 95.9831 35.188C95.0684 35.8227 94.0231 36.14 92.8471 36.14C91.8577 36.14 91.0551 35.7853 90.4391 35.076C89.3751 35.7667 88.2644 36.1213 87.1071 36.14C86.8644 39.7427 86.3137 42.748 85.4551 45.156C84.5964 47.5827 83.3364 48.796 81.6751 48.796C80.6671 48.796 79.9204 48.432 79.4351 47.704C78.9497 46.976 78.7071 45.968 78.7071 44.68C78.7071 42.8507 79.1271 40.7133 79.9671 38.268C80.8071 35.8413 82.1044 33.1627 83.8591 30.232C83.8591 27.5067 83.8404 25.612 83.8031 24.548C83.7844 24.0067 83.9991 23.5773 84.4471 23.26C84.8951 22.9427 85.4551 22.784 86.1271 22.784C86.5191 22.784 86.7991 22.868 86.9671 23.036C87.1537 23.1853 87.2564 23.4933 87.2751 23.96C87.2751 24.4267 87.2844 24.772 87.3031 24.996C87.9004 24.2493 88.4884 23.7173 89.0671 23.4C89.6457 23.064 90.2617 22.896 90.9151 22.896C91.9604 22.896 92.8097 23.316 93.4631 24.156C94.1351 24.996 94.4711 26.0973 94.4711 27.46C94.4711 28.4493 94.3124 29.4107 93.9951 30.344C93.6777 31.2773 93.2391 32.1267 92.6791 32.892C93.0711 33.004 93.3977 33.06 93.6591 33.06C94.2751 33.06 94.8631 32.836 95.4231 32.388C95.9831 31.94 96.7017 31.1933 97.5791 30.148C97.8031 29.8867 98.0551 29.756 98.3351 29.756ZM87.2471 33.452C87.9191 33.3027 88.5351 32.9387 89.0951 32.36C89.6737 31.7627 90.1311 31.0347 90.4671 30.176C90.8031 29.2987 90.9711 28.384 90.9711 27.432C90.9711 26.872 90.8591 26.452 90.6351 26.172C90.4111 25.8733 90.1124 25.724 89.7391 25.724C89.0671 25.724 88.2551 26.4333 87.3031 27.852C87.2844 28.6733 87.2751 29.8773 87.2751 31.464C87.2751 32.3227 87.2657 32.9853 87.2471 33.452ZM81.8991 46.052C82.4031 46.052 82.8231 44.9507 83.1591 42.748C83.4951 40.564 83.7097 37.8387 83.8031 34.572C83.0004 36.4387 82.3657 38.2213 81.8991 39.92C81.4324 41.6187 81.1991 43.0467 81.1991 44.204C81.1991 44.8013 81.2737 45.2587 81.4231 45.576C81.5537 45.8933 81.7124 46.052 81.8991 46.052ZM106.888 30.596C107.13 30.596 107.317 30.708 107.448 30.932C107.597 31.156 107.672 31.464 107.672 31.856C107.672 32.528 107.513 33.1067 107.196 33.592C106.673 34.3947 105.982 35.02 105.124 35.468C104.284 35.916 103.276 36.14 102.1 36.14C100.308 36.14 98.9169 35.608 97.9275 34.544C96.9382 33.4613 96.4435 32.0053 96.4435 30.176C96.4435 28.888 96.7142 27.6933 97.2555 26.592C97.7969 25.472 98.5435 24.5853 99.4955 23.932C100.466 23.2787 101.558 22.952 102.772 22.952C103.854 22.952 104.722 23.2787 105.376 23.932C106.029 24.5667 106.356 25.4347 106.356 26.536C106.356 27.824 105.889 28.9347 104.956 29.868C104.041 30.7827 102.473 31.5107 100.252 32.052C100.7 32.9107 101.456 33.34 102.52 33.34C103.285 33.34 103.91 33.1627 104.396 32.808C104.9 32.4533 105.478 31.856 106.132 31.016C106.356 30.736 106.608 30.596 106.888 30.596ZM102.296 25.696C101.605 25.696 101.017 26.0973 100.532 26.9C100.065 27.7027 99.8315 28.6733 99.8315 29.812V29.868C100.933 29.6067 101.801 29.2147 102.436 28.692C103.07 28.1693 103.388 27.5627 103.388 26.872C103.388 26.5173 103.285 26.2373 103.08 26.032C102.893 25.808 102.632 25.696 102.296 25.696ZM110.111 29.112C109.663 29.1493 109.299 29.0187 109.019 28.72C108.758 28.4213 108.627 28.0013 108.627 27.46C108.627 26.956 108.749 26.5827 108.991 26.34C109.253 26.0973 109.626 25.9573 110.111 25.92L115.851 25.36C116.318 25.3227 116.673 25.444 116.915 25.724C117.177 25.9853 117.307 26.3773 117.307 26.9C117.307 27.908 116.822 28.4587 115.851 28.552L110.111 29.112ZM134.62 29.756C134.863 29.756 135.05 29.868 135.18 30.092C135.33 30.316 135.404 30.624 135.404 31.016C135.404 31.7627 135.227 32.3413 134.872 32.752C134.07 33.7413 133.202 34.5533 132.268 35.188C131.354 35.8227 130.308 36.14 129.132 36.14C128.143 36.14 127.34 35.7853 126.724 35.076C125.66 35.7667 124.55 36.1213 123.392 36.14C123.15 39.7427 122.599 42.748 121.74 45.156C120.882 47.5827 119.622 48.796 117.96 48.796C116.952 48.796 116.206 48.432 115.72 47.704C115.235 46.976 114.992 45.968 114.992 44.68C114.992 42.8507 115.412 40.7133 116.252 38.268C117.092 35.8413 118.39 33.1627 120.144 30.232C120.144 27.5067 120.126 25.612 120.088 24.548C120.07 24.0067 120.284 23.5773 120.732 23.26C121.18 22.9427 121.74 22.784 122.412 22.784C122.804 22.784 123.084 22.868 123.252 23.036C123.439 23.1853 123.542 23.4933 123.56 23.96C123.56 24.4267 123.57 24.772 123.588 24.996C124.186 24.2493 124.774 23.7173 125.352 23.4C125.931 23.064 126.547 22.896 127.2 22.896C128.246 22.896 129.095 23.316 129.748 24.156C130.42 24.996 130.756 26.0973 130.756 27.46C130.756 28.4493 130.598 29.4107 130.28 30.344C129.963 31.2773 129.524 32.1267 128.964 32.892C129.356 33.004 129.683 33.06 129.944 33.06C130.56 33.06 131.148 32.836 131.708 32.388C132.268 31.94 132.987 31.1933 133.864 30.148C134.088 29.8867 134.34 29.756 134.62 29.756ZM123.532 33.452C124.204 33.3027 124.82 32.9387 125.38 32.36C125.959 31.7627 126.416 31.0347 126.752 30.176C127.088 29.2987 127.256 28.384 127.256 27.432C127.256 26.872 127.144 26.452 126.92 26.172C126.696 25.8733 126.398 25.724 126.024 25.724C125.352 25.724 124.54 26.4333 123.588 27.852C123.57 28.6733 123.56 29.8773 123.56 31.464C123.56 32.3227 123.551 32.9853 123.532 33.452ZM118.184 46.052C118.688 46.052 119.108 44.9507 119.444 42.748C119.78 40.564 119.995 37.8387 120.088 34.572C119.286 36.4387 118.651 38.2213 118.184 39.92C117.718 41.6187 117.484 43.0467 117.484 44.204C117.484 44.8013 117.559 45.2587 117.708 45.576C117.839 45.8933 117.998 46.052 118.184 46.052ZM136.817 21.104C136.033 21.104 135.445 20.9267 135.053 20.572C134.661 20.1987 134.465 19.6853 134.465 19.032C134.465 18.3787 134.717 17.8373 135.221 17.408C135.743 16.96 136.387 16.736 137.153 16.736C137.843 16.736 138.403 16.904 138.833 17.24C139.262 17.576 139.477 18.052 139.477 18.668C139.477 19.4147 139.234 20.012 138.749 20.46C138.263 20.8893 137.619 21.104 136.817 21.104ZM136.593 36.14C135.379 36.14 134.493 35.7107 133.933 34.852C133.391 33.9933 133.121 32.8547 133.121 31.436C133.121 30.596 133.223 29.5227 133.429 28.216C133.653 26.8907 133.933 25.6587 134.269 24.52C134.437 23.9227 134.661 23.512 134.941 23.288C135.221 23.064 135.669 22.952 136.285 22.952C137.237 22.952 137.713 23.2693 137.713 23.904C137.713 24.3707 137.535 25.4533 137.181 27.152C136.733 29.2053 136.509 30.596 136.509 31.324C136.509 31.884 136.583 32.3133 136.733 32.612C136.882 32.9107 137.134 33.06 137.489 33.06C137.825 33.06 138.245 32.8267 138.749 32.36C139.253 31.8933 139.925 31.156 140.765 30.148C140.989 29.8867 141.241 29.756 141.521 29.756C141.763 29.756 141.95 29.868 142.081 30.092C142.23 30.316 142.305 30.624 142.305 31.016C142.305 31.7627 142.127 32.3413 141.773 32.752C139.925 35.0107 138.198 36.14 136.593 36.14ZM153.464 29.756C153.707 29.756 153.894 29.868 154.024 30.092C154.174 30.316 154.248 30.624 154.248 31.016C154.248 31.7067 154.071 32.2853 153.716 32.752C152.839 33.8907 151.747 34.7867 150.44 35.44C149.152 36.0933 147.696 36.42 146.072 36.42C144.803 36.42 143.702 36.2333 142.768 35.86C141.835 35.468 141.116 34.9453 140.612 34.292C140.127 33.62 139.884 32.8733 139.884 32.052C139.884 30.82 140.379 29.728 141.368 28.776C142.358 27.824 143.776 26.9093 145.624 26.032L141.032 26.144C140.622 26.1627 140.304 26.0227 140.08 25.724C139.875 25.4067 139.772 25.0333 139.772 24.604C139.772 24.156 139.875 23.764 140.08 23.428C140.304 23.0733 140.603 22.896 140.976 22.896C141.835 22.896 142.983 22.9613 144.42 23.092C144.719 23.1107 145.26 23.148 146.044 23.204C146.847 23.26 147.519 23.288 148.06 23.288C148.247 23.288 148.602 23.2133 149.124 23.064C149.218 23.0453 149.395 22.9987 149.656 22.924C149.936 22.8493 150.17 22.812 150.356 22.812C150.655 22.812 150.898 22.9427 151.084 23.204C151.29 23.4653 151.392 23.8667 151.392 24.408C151.392 25.0053 151.252 25.472 150.972 25.808C150.692 26.144 150.254 26.4427 149.656 26.704C147.958 27.432 146.548 28.216 145.428 29.056C144.308 29.8773 143.748 30.6987 143.748 31.52C143.748 32.0427 143.991 32.472 144.476 32.808C144.962 33.144 145.68 33.312 146.632 33.312C147.678 33.312 148.732 33.0507 149.796 32.528C150.879 32.0053 151.85 31.212 152.708 30.148C152.932 29.8867 153.184 29.756 153.464 29.756ZM165.933 29.756C166.176 29.756 166.363 29.868 166.493 30.092C166.643 30.316 166.717 30.624 166.717 31.016C166.717 31.7067 166.54 32.2853 166.185 32.752C165.308 33.8907 164.216 34.7867 162.909 35.44C161.621 36.0933 160.165 36.42 158.541 36.42C157.272 36.42 156.171 36.2333 155.237 35.86C154.304 35.468 153.585 34.9453 153.081 34.292C152.596 33.62 152.353 32.8733 152.353 32.052C152.353 30.82 152.848 29.728 153.837 28.776C154.827 27.824 156.245 26.9093 158.093 26.032L153.501 26.144C153.091 26.1627 152.773 26.0227 152.549 25.724C152.344 25.4067 152.241 25.0333 152.241 24.604C152.241 24.156 152.344 23.764 152.549 23.428C152.773 23.0733 153.072 22.896 153.445 22.896C154.304 22.896 155.452 22.9613 156.889 23.092C157.188 23.1107 157.729 23.148 158.513 23.204C159.316 23.26 159.988 23.288 160.529 23.288C160.716 23.288 161.071 23.2133 161.593 23.064C161.687 23.0453 161.864 22.9987 162.125 22.924C162.405 22.8493 162.639 22.812 162.825 22.812C163.124 22.812 163.367 22.9427 163.553 23.204C163.759 23.4653 163.861 23.8667 163.861 24.408C163.861 25.0053 163.721 25.472 163.441 25.808C163.161 26.144 162.723 26.4427 162.125 26.704C160.427 27.432 159.017 28.216 157.897 29.056C156.777 29.8773 156.217 30.6987 156.217 31.52C156.217 32.0427 156.46 32.472 156.945 32.808C157.431 33.144 158.149 33.312 159.101 33.312C160.147 33.312 161.201 33.0507 162.265 32.528C163.348 32.0053 164.319 31.212 165.177 30.148C165.401 29.8867 165.653 29.756 165.933 29.756ZM167.377 36.14C166.313 36.14 165.445 35.72 164.773 34.88C164.119 34.04 163.793 32.9387 163.793 31.576C163.793 30.0827 164.138 28.6733 164.829 27.348C165.519 26.004 166.434 24.9307 167.573 24.128C168.73 23.3067 169.953 22.896 171.241 22.896C171.651 22.896 171.922 22.98 172.053 23.148C172.202 23.2973 172.323 23.5773 172.417 23.988C172.771 23.9133 173.163 23.876 173.593 23.876C174.041 23.876 174.386 23.988 174.629 24.212C174.871 24.436 174.993 24.7533 174.993 25.164C174.993 25.5933 174.899 26.34 174.713 27.404C174.507 28.5427 174.349 29.6347 174.237 30.68C174.125 31.7067 174.069 32.864 174.069 34.152C174.069 34.8613 173.919 35.3747 173.621 35.692C173.341 35.9907 172.874 36.14 172.221 36.14C171.586 36.14 171.11 35.9907 170.793 35.692C170.494 35.3747 170.345 34.8707 170.345 34.18L170.373 33.732C169.794 35.3373 168.795 36.14 167.377 36.14ZM168.469 33.312C168.991 33.312 169.467 32.948 169.897 32.22C170.326 31.492 170.709 30.1947 171.044 28.328L171.577 25.5C170.811 25.5187 170.102 25.8173 169.449 26.396C168.795 26.956 168.273 27.7027 167.881 28.636C167.489 29.5693 167.293 30.5587 167.293 31.604C167.293 32.164 167.395 32.5933 167.601 32.892C167.825 33.172 168.114 33.312 168.469 33.312Z" fill="#C0123C"/>
</svg>
