<svg width="24" height="24" viewBox="0 0 24 24" fill="none" xmlns="http://www.w3.org/2000/svg">
<path fill-rule="evenodd" clip-rule="evenodd" d="M22.8121 1.31717C23.3527 2.03146 23.5963 3.21551 23.7163 4.65496C23.8749 6.80304 23.9386 9.38074 23.9995 12.0444C23.9207 14.7576 23.8886 17.4939 23.7163 19.4338C23.5803 20.9228 23.2913 21.9199 22.8088 22.5247C22.195 23.1285 21.0175 23.6384 19.3386 23.7592C17.2966 23.9334 14.7773 23.9315 11.9979 24C8.90823 23.9471 6.8129 23.9698 4.61464 23.7602C2.89985 23.6412 1.77806 23.1375 1.0878 22.5294C0.576479 21.8429 0.426813 21.1131 0.285173 19.4021C0.108122 17.4264 0.0689352 14.7491 0.00189209 12.059C0.102457 9.38311 0.108594 6.68596 0.286589 4.67007C0.406039 3.07954 0.594421 2.01022 1.07741 1.33039C1.75493 0.753 2.91071 0.465959 4.63495 0.324328C6.99562 0.0481453 9.45355 -0.0061469 11.9946 -9.51198e-06C14.6097 0.00423945 17.1201 0.0788322 19.3599 0.299306C20.8707 0.420165 22.1209 0.680296 22.8098 1.31717H22.8121Z" fill="#2CA3DB"/>
</svg>
