<svg id="vita-1" width="25" height="24" viewBox="0 0 25 24"  xmlns="http://www.w3.org/2000/svg">
<path fill-rule="evenodd" clip-rule="evenodd" d="M2.2265 10C2.2265 9.44772 2.67422 9 3.2265 9H21.2265C21.7788 9 22.2265 9.44772 22.2265 10C22.2265 10.5523 21.7788 11 21.2265 11H3.2265C2.67422 11 2.2265 10.5523 2.2265 10Z" fill="#10B321"/>
<path fill-rule="evenodd" clip-rule="evenodd" d="M2.2265 6C2.2265 5.44772 2.67422 5 3.2265 5H21.2265C21.7788 5 22.2265 5.44772 22.2265 6C22.2265 6.55228 21.7788 7 21.2265 7H3.2265C2.67422 7 2.2265 6.55228 2.2265 6Z" fill="#10B321"/>
<path fill-rule="evenodd" clip-rule="evenodd" d="M2.2265 14C2.2265 13.4477 2.67422 13 3.2265 13H21.2265C21.7788 13 22.2265 13.4477 22.2265 14C22.2265 14.5523 21.7788 15 21.2265 15H3.2265C2.67422 15 2.2265 14.5523 2.2265 14Z" fill="#10B321"/>
<path fill-rule="evenodd" clip-rule="evenodd" d="M2.2265 18C2.2265 17.4477 2.67422 17 3.2265 17H21.2265C21.7788 17 22.2265 17.4477 22.2265 18C22.2265 18.5523 21.7788 19 21.2265 19H3.2265C2.67422 19 2.2265 18.5523 2.2265 18Z" fill="#10B321"/>
</svg>
